<?xml version="1.0" encoding="UTF-8"?>
<svg width="1200pt" height="1200pt" version="1.1" viewBox="0 0 1200 1200" xmlns="http://www.w3.org/2000/svg">
 <g fill="#fff">
  <path d="m690.07 99.18c0 54.227-43.957 98.184-98.184 98.184-54.227 0-98.184-43.957-98.184-98.184 0-54.227 43.957-98.184 98.184-98.184 54.227 0 98.184 43.957 98.184 98.184"/>
  <path d="m580.27 857.46 0.023437-136.74-125.58-13.883-0.011719 162.53z"/>
  <path d="m734.43 449.28v-63.469l-274.63 39.359z"/>
  <path d="m354.04 483.7c0 7.6562 0.625 15.145 1.7266 22.453l80.066 0.25v-59.293l-81.793-7.1875z"/>
  <path d="m454.83 615.95v48.047h-0.10547v18.742l279.05 30.887 0.023438-25.246h0.32422l0.023437-73.199c44.93-10.895 77.281-43.871 92.172-83.543l-464.82-1.5469c14.449 43.125 48.793 75.852 93.336 85.859z"/>
  <path d="m435.84 363.32h18.625v38.449l380.22-54.504c-0.82813-12.66-3.3477-25.129-7.4141-37.078l-473.02 39.91c-0.035156 1.5117-0.20312 2.9766-0.20312 4.5v61.309l81.793 7.1875z"/>
  <path d="m580.27 881.51-125.58 11.879-0.011719 45.359 125.58 0.44531z"/>
  <path d="m608.18 854.81 125.53-11.879 0.046874-105.22-125.53-13.895z"/>
  <path d="m454.46 448.73v57.734l279.97 0.93359v-34.078z"/>
  <path d="m835.1 393.94v-22.562l-82.055 11.762v67.789l82.465 7.2227v-64.211z"/>
  <path d="m816.98 287c-21.695-39.109-61.727-67.836-114.46-67.836l-219.85-0.12109c-64.234 0-113.88 45.527-125.82 106.79z"/>
  <path d="m454.66 1025.8-0.011718 111.45c0 34.645 28.117 62.785 62.773 62.785 34.715 0 62.809-28.152 62.809-62.785l0.011719-100.62z"/>
  <path d="m580.25 963.13-125.58-0.42187-0.015625 39.035 125.58 10.84z"/>
  <path d="m608.11 1039-0.046875 98.207c0 34.645 28.117 62.785 62.785 62.785 34.656 0 62.762-28.152 62.762-62.785l0.023437-87.359z"/>
  <path d="m733.69 963.65-125.56-0.42188-0.023437 51.758 125.55 10.848z"/>
  <path d="m753.04 474.94v32.52l79.945 0.26562c1.5586-8.4102 2.4727-16.957 2.4961-25.547z"/>
  <path d="m608.15 878.87-0.011719 60.41 125.55 0.41797 0.023438-72.73z"/>
 </g>
</svg>
