<?xml version="1.0" encoding="UTF-8"?>
<svg width="1200pt" height="1200pt" version="1.1" viewBox="0 0 1200 1200" xmlns="http://www.w3.org/2000/svg">
 <path d="m807.52 666.59s-3.2383 21.84-36.852 28.477c-33.59 6.5391-38.664-27.074-38.664-27.074v-271.99h-24v720.54s0.92578 37.273-45.098 40.176c-46.02 2.9414-50.902-48.227-50.902-48.227v-412.49h-12v-451.88c24 0.30078 50.508 1.6328 80.039 4.6562l5.1484 0.71875c17.062 1.8594 34.754 4.1641 53.27 7.2227 0 0 54.77 7.2852 67.934 86.207 13.148 78.902 1.125 323.67 1.125 323.67zm-336.77-30.734c-0.9375 0-1.6914 0.76953-1.6914 1.7148v13.523c0 0.91016 0.75781 1.668 1.6914 1.668 0.9375 0 1.6914-0.75781 1.6914-1.668v-13.523c-0.007812-0.93359-0.75391-1.7148-1.6914-1.7148zm0-54.07c-0.9375 0-1.6914 0.75781-1.6914 1.6797v13.512c0 0.92578 0.75781 1.7031 1.6914 1.7031 0.9375 0 1.6914-0.78125 1.6914-1.7031v-13.512c-0.007812-0.92578-0.75391-1.6797-1.6914-1.6797zm0-81.156c-0.9375 0-1.6914 0.75781-1.6914 1.6914v13.523c0 0.92578 0.75781 1.6797 1.6914 1.6797 0.9375 0 1.6914-0.75781 1.6914-1.6797l0.003906-13.523c-0.011718-0.92578-0.75781-1.6914-1.6953-1.6914zm0 54.105c-0.9375 0-1.6914 0.75781-1.6914 1.6797v13.523c0 0.92578 0.75781 1.6914 1.6914 1.6914 0.9375 0 1.6914-0.76953 1.6914-1.6914v-13.523c-0.007812-0.92187-0.75391-1.6797-1.6914-1.6797zm0-27.059c-0.9375 0-1.6914 0.75781-1.6914 1.6797v13.523c0 0.9375 0.75781 1.6914 1.6914 1.6914 0.9375 0 1.6914-0.75781 1.6914-1.6914v-13.523c-0.007812-0.92188-0.75391-1.6797-1.6914-1.6797zm0 81.133c-0.9375 0-1.6914 0.76953-1.6914 1.7031v13.512c0 0.96094 0.75781 1.7148 1.6914 1.7148 0.9375 0 1.6914-0.75781 1.6914-1.7148v-13.512c-0.007812-0.92188-0.75391-1.7031-1.6914-1.7031zm-16.953-344.46c-0.30078-0.88672-1.2852-1.3555-2.1367-1.043-4.2461 1.4648-8.4961 3.4062-12.59 5.7617-0.80469 0.46875-1.0664 1.5-0.625 2.3047 0.3125 0.53906 0.88672 0.83984 1.4766 0.83984 0.28906 0 0.57422-0.070313 0.83984-0.21484 3.8984-2.2578 7.9453-4.1055 12-5.4961 0.86719-0.31641 1.3203-1.2773 1.0352-2.1523zm16.953 398.58c-0.9375 0-1.6914 0.75781-1.6914 1.668l0.046874 0.86328c-0.023437 0.070312-1.1641 5.207-4.5234 10.871-0.48047 0.76953-0.21484 1.8242 0.58984 2.2695 0.26562 0.19141 0.55078 0.25391 0.85156 0.25391 0.58984 0 1.1406-0.30078 1.4648-0.81641 3.6484-6.1445 4.8594-11.629 4.957-12.215v-1.2461c-0.011718-0.89453-0.75781-1.6484-1.6953-1.6484zm-39.035 27.887-0.71875-0.12109c-4.2969-0.86328-8.3164-2.0156-11.914-3.4219-0.88672-0.34766-1.8477 0.097656-2.1836 0.9375-0.33594 0.83984 0.085938 1.8477 0.94922 2.1836 3.793 1.5 8.0039 2.7227 12.492 3.6133l0.86328 0.16797h0.25391c0.82812 0 1.5234-0.58984 1.668-1.4297 0.14062-0.89844-0.48438-1.7852-1.4102-1.9297zm24.434-4.8945c-3.4219 2.5547-7.2969 4.2617-11.555 5.0391-0.91016 0.19141-1.5234 1.0781-1.3438 1.9688 0.14453 0.83984 0.85156 1.3789 1.6562 1.3789 0.097656 0 0.20312-0.023438 0.30078-0.023438 4.7773-0.86328 9.1445-2.7852 12.984-5.6758 0.74219-0.5625 0.88672-1.6445 0.32422-2.3633-0.56641-0.72266-1.6367-0.89062-2.3672-0.32422zm32.039 282.75c0-0.9375-0.75781-1.6914-1.6797-1.6914-0.92578 0-1.6914 0.75781-1.6914 1.6914v13.691c0 0.91016 0.75781 1.6914 1.6914 1.6914 0.9375 0 1.6797-0.76953 1.6797-1.6914zm0 27.371c0-0.96094-0.75781-1.7148-1.6797-1.7148-0.92578 0-1.6914 0.75781-1.6914 1.7148v13.668c0 0.9375 0.75781 1.6914 1.6914 1.6914 0.9375 0 1.6797-0.75781 1.6797-1.6914zm-78.504-698.42c-2.4102 3.7578-4.6328 7.7891-6.6133 12.012-0.42188 0.82812-0.046875 1.8477 0.80469 2.2422 0.21484 0.10938 0.46875 0.16797 0.70703 0.16797 0.63672 0 1.2461-0.34766 1.5234-0.97266 1.9336-4.0938 4.0781-8.0039 6.4219-11.629 0.51562-0.78125 0.26562-1.8242-0.50391-2.3281-0.78125-0.5-1.8359-0.28516-2.3398 0.50781zm78.504 643.67c0-0.91016-0.75781-1.668-1.6797-1.668-0.92578 0-1.6914 0.75781-1.6914 1.668v13.691c0 0.9375 0.75781 1.6914 1.6914 1.6914 0.9375 0 1.6797-0.75781 1.6797-1.6914zm0-54.695c0-0.9375-0.75781-1.6914-1.6797-1.6914-0.92578 0-1.6914 0.75781-1.6914 1.6914v13.668c0 0.9375 0.75781 1.7148 1.6914 1.7148 0.9375 0 1.6797-0.76953 1.6797-1.7148zm0 27.348c0-0.9375-0.75781-1.6914-1.6797-1.6914-0.92578 0-1.6914 0.75781-1.6914 1.6914v13.691c0 0.9375 0.75781 1.6914 1.6914 1.6914 0.9375 0 1.6797-0.75781 1.6797-1.6914zm-3.3711-506.21c0 0.92578 0.75781 1.6797 1.6914 1.6797 0.9375 0 1.6797-0.75781 1.6797-1.6797v-8.4375l-8.4219 0.003906c-0.15625 0-0.25391 0.13281-0.37109 0.16797-0.14453-0.035156-0.25391-0.16797-0.39453-0.16797h-0.75781c-0.14453 0-0.25391 0.12109-0.38281 0.16797-0.13281-0.046875-0.22656-0.16797-0.37109-0.16797h-8.4375v8.4375c0 0.92578 0.75781 1.6797 1.6914 1.6797 0.9375 0 1.6914-0.75781 1.6914-1.6797v-5.0508h5.0508c0.14453 0 0.25391-0.12109 0.37109-0.15625 0.13281 0.035156 0.23828 0.15625 0.38281 0.15625h0.75781c0.14453 0 0.25391-0.12109 0.39453-0.15625 0.13281 0.035156 0.21484 0.15625 0.37109 0.15625h5.0508zm-14.066 11.762c-0.9375 0-1.6914 0.75781-1.6914 1.6797v13.523c0 0.9375 0.75781 1.6914 1.6914 1.6914 0.9375 0 1.6914-0.75781 1.6914-1.6914v-13.523c-0.007812-0.92188-0.75391-1.6797-1.6914-1.6797zm0 27.047c-0.9375 0-1.6914 0.75781-1.6914 1.6797v13.512c0 0.9375 0.75781 1.6914 1.6914 1.6914 0.9375 0 1.6914-0.75781 1.6914-1.6914v-13.512c-0.007812-0.92188-0.75391-1.6797-1.6914-1.6797zm0 27.051c-0.9375 0-1.6914 0.75781-1.6914 1.6914v13.512c0 0.92578 0.75781 1.6797 1.6914 1.6797 0.9375 0 1.6914-0.75781 1.6914-1.6797v-13.512c-0.007812-0.9375-0.75391-1.6914-1.6914-1.6914zm17.438 549.78c0-0.91016-0.75781-1.668-1.6797-1.668-0.92578 0-1.6914 0.75781-1.6914 1.668v13.715c0 0.9375 0.75781 1.6914 1.6914 1.6914 0.9375 0 1.6797-0.75781 1.6797-1.6914zm-1.6797 25.719c-0.92578 0-1.6914 0.75781-1.6914 1.668v13.691c0 0.91016 0.75781 1.6914 1.6914 1.6914 0.9375 0 1.6797-0.76953 1.6797-1.6914v-13.691c0-0.92578-0.75391-1.668-1.6797-1.668zm-67.32-759.7c0.48047 0 0.94922-0.20312 1.2734-0.57422 2.9297-3.3594 6.0977-6.4805 9.4453-9.2656 0.70703-0.58984 0.81641-1.6562 0.22656-2.375-0.61328-0.73047-1.668-0.81641-2.3867-0.22656-3.4805 2.9023-6.7812 6.1445-9.8164 9.6484-0.60156 0.70703-0.52734 1.7773 0.16797 2.375 0.30859 0.27344 0.69531 0.41797 1.0898 0.41797zm112.66-89.531c0.32422 0.39453 0.81641 0.60156 1.2852 0.60156 0.37109 0 0.76953-0.13281 1.0781-0.39453 0.71875-0.60156 0.80469-1.668 0.21484-2.375-2.8906-3.4336-5.5195-7.1055-7.8242-10.922-0.49219-0.80469-1.5-1.0664-2.3047-0.57422-0.80469 0.48047-1.043 1.5117-0.5625 2.3047 2.3906 3.9805 5.1133 7.7852 8.1133 11.359zm-142.56 191.3h0.097656c0.875 0 1.6328-0.69531 1.6797-1.5859 0.23828-4.668 0.52734-9.1797 0.85156-13.465 0.070313-0.9375-0.625-1.7539-1.5586-1.8125-0.92578-0.22656-1.7266 0.625-1.8008 1.5469-0.3125 4.3203-0.60156 8.8438-0.875 13.535-0.027343 0.95313 0.67969 1.7344 1.6055 1.7812zm136.57-292.98c0.55078 0 1.1055-0.27734 1.4141-0.79297 2.3516-3.7695 5.0156-7.4023 7.9688-10.801 0.61328-0.70703 0.52734-1.7656-0.16797-2.375-0.70703-0.58984-1.7773-0.52734-2.3867 0.16797-3.0352 3.5273-5.832 7.3086-8.2578 11.23-0.49219 0.79297-0.25391 1.8242 0.52734 2.3164 0.28906 0.17187 0.58984 0.25391 0.90234 0.25391zm-37.668 761.04c0-0.9375-0.75781-1.6914-1.6797-1.6914-0.92578 0-1.6914 0.75781-1.6914 1.6914v13.691c0 0.9375 0.75781 1.6914 1.6914 1.6914 0.9375 0 1.6797-0.75781 1.6797-1.6914zm-96.938-495.02c0.046875 0.011719 0.12109 0.011719 0.16797 0.011719 0.85156 0 1.5977-0.66016 1.6797-1.5 0.50391-4.9062 1.0938-9.3945 1.7266-13.344 0.13281-0.92578-0.50391-1.7656-1.4141-1.9219-0.9375-0.097656-1.7891 0.49219-1.9336 1.3906-0.61328 3.9961-1.1992 8.5547-1.7383 13.5-0.082031 0.91797 0.58984 1.7578 1.5117 1.8633zm123.59-240.95c0.13281 0.023438 0.26562 0.046875 0.39453 0.046875 0.75781 0 1.4531-0.51562 1.6445-1.2852 1.0547-4.3203 2.4844-8.6055 4.2227-12.73 0.35938-0.86328-0.035156-1.8477-0.88672-2.207-0.88672-0.37109-1.8594 0.035156-2.207 0.89844-1.8125 4.2852-3.2891 8.7344-4.4023 13.246-0.23047 0.90234 0.32422 1.8125 1.2344 2.0312zm28.859-45.711c0.39453 0 0.78125-0.13281 1.0938-0.39453 3.4336-2.8906 7.0781-5.5195 10.895-7.8242 0.79297-0.48047 1.043-1.5234 0.57422-2.3164-0.49219-0.79297-1.5117-1.043-2.3281-0.5625-3.9492 2.4102-7.7539 5.1367-11.316 8.1367-0.71875 0.60156-0.80469 1.668-0.20312 2.375 0.33594 0.37109 0.80469 0.58594 1.2852 0.58594zm49.703 150.46h-0.12109c-0.875 0-1.6094 0.68359-1.6797 1.5586-0.070312 0.92578 1.6094 1.7383 2.5312 1.8125 1.625 0.13281 5.8711 0.15625 5.8711 0.19141v0.57422c48 0 88.105-39.898 88.105-89.125 0-48.551-39.816-87.973-88.105-89.039v-0.10547c-2.1953 0-4.3438-0.19141-6.5039-0.035157-0.92578 0.070313-1.6328 0.875-1.5586 1.8008 0.046875 0.92578 1.8828 1.6914 2.7969 1.5586 1.4141-0.10547 5.2656-0.023437 5.2656 0.023438v170.99c0-0.046875-5.0742-0.20312-6.6016-0.20312zm-26.352-164.59c0.20312 0 0.42188-0.046875 0.625-0.13281 4.1523-1.6914 8.4375-3.0586 12.781-4.0664 0.91016-0.21484 1.4766-1.1172 1.2617-2.0156-0.21484-0.89844-1.1172-1.4766-2.0273-1.2617-4.5117 1.0547-8.9883 2.4844-13.297 4.2344-0.86328 0.34766-1.2734 1.332-0.91016 2.1953 0.27344 0.64062 0.90625 1.0469 1.5664 1.0469zm4.2266 187.86c0.023437 0.91016 0.78125 1.6445 1.6797 1.6445h0.046875c4.3906-0.10937 8.8906-0.17969 13.488-0.22656 0.9375-0.011719 1.6797-0.76953 1.6797-1.7031-0.011719-0.92578-0.75781-1.668-1.6914-1.668h-0.011718c-4.6328 0.035156-9.1445 0.12109-13.535 0.22656-0.92578 0.019531-1.6836 0.80078-1.6562 1.7266zm-183.49 193.96h0.023438c0.92578 0 1.6797-0.73047 1.6797-1.6562 0.046875-4.5703 0.10938-9.0859 0.19141-13.512 0.011719-0.94922-0.73047-1.7031-1.6562-1.7266h-0.035156c-0.91016 0-1.668 0.74219-1.6914 1.6562-0.070313 4.4531-0.13281 8.9648-0.17969 13.535-0.011719 0.96094 0.74219 1.7031 1.668 1.7031zm0.46484-27.047h0.046875c0.91016 0 1.668-0.71875 1.6914-1.6328 0.12109-4.5977 0.27734-9.1211 0.45703-13.488 0.023438-0.9375-0.70703-1.7266-1.6328-1.7656-0.82812 0.070313-1.7031 0.69531-1.7539 1.6211-0.16797 4.4023-0.3125 8.9297-0.43359 13.535-0.042969 0.9375 0.69141 1.707 1.625 1.7305zm1.6094 162.38h0.058593c0.92578-0.046874 1.6562-0.82812 1.6328-1.7539-0.15625-4.4141-0.30078-8.9141-0.44531-13.523-0.023437-0.91016-0.78125-1.6445-1.6914-1.6445h-0.046875c-0.9375 0.035156-1.668 0.79297-1.6445 1.7539 0.14453 4.5977 0.28906 9.1211 0.44531 13.535 0.035157 0.90234 0.78125 1.6328 1.6914 1.6328zm2.1484 54.121c0.9375-0.023437 1.6562-0.83984 1.6094-1.7539l-0.55078-13.523c-0.046875-0.91016-0.79297-1.6211-1.6914-1.6211h-0.058594c-0.94922 0.046875-1.668 0.81641-1.6328 1.7539l0.58984 13.535c0.023438 0.88672 0.78125 1.6211 1.6797 1.6211 0.007812-0.011719 0.03125-0.011719 0.054687-0.011719zm5.3984-298.46c1.0664-4.4766 2.3398-8.7734 3.707-12.816 0.30078-0.875-0.15625-1.8359-1.043-2.1367-0.83984-0.3125-1.8359 0.16797-2.1484 1.043-1.4141 4.1406-2.6992 8.543-3.8047 13.129-0.21484 0.91016 0.33594 1.8125 1.2461 2.0273 0.13281 0.035156 0.26562 0.046875 0.38281 0.046875 0.78516-0.007812 1.4688-0.51172 1.6602-1.293zm-4.918 308.63c-0.9375 0.023437-1.6445 0.81641-1.5977 1.7539l0.66016 13.523c0.046875 0.91016 0.78125 1.6211 1.6914 1.6211h0.070313c0.9375-0.046875 1.6562-0.86328 1.6094-1.7773l-0.66016-13.5c-0.058593-0.96094-0.77734-1.6211-1.7734-1.6211zm-1.5977-37.234c0.9375-0.046875 1.6562-0.82812 1.6328-1.7539-0.16797-4.3555-0.34766-8.8438-0.51562-13.512-0.023437-0.94922-0.60156-1.7266-1.7539-1.6211-0.92578 0.023437-1.6562 0.79297-1.6328 1.7266 0.16797 4.668 0.33594 9.1914 0.50391 13.535 0.046875 0.92578 0.79297 1.6328 1.6914 1.6328 0.027344-0.007812 0.0625-0.007812 0.074219-0.007812zm7.7891 64.164c-0.50391-0.76953-1.5352-0.96094-2.3281-0.49219-0.76953 0.53906-0.98438 1.5977-0.48047 2.3633 2.5195 3.793 5.7969 7.1758 9.7422 10.105 0.30078 0.23828 0.66016 0.32422 0.99609 0.32422 0.51562 0 1.0312-0.25391 1.3672-0.68359 0.55078-0.75781 0.38281-1.8008-0.35938-2.3633-3.6211-2.668-6.6211-5.8008-8.9375-9.2539zm-10.957-199.49c0.9375 0 1.6914-0.75781 1.6914-1.6914l-0.011718-6.7305 0.011718-6.7812c0-0.94922-0.75781-1.7031-1.6797-1.7031-0.9375 0-1.7031 0.75781-1.7031 1.6797v13.535c0 0.94531 0.75781 1.6914 1.6914 1.6914zm0.66016 54.145h0.035156c0.9375-0.023437 1.668-0.80469 1.6445-1.7266l-0.23828-13.516c-0.023437-0.92578-0.78125-1.668-1.6914-1.668h-0.023437c-0.9375 0.011719-1.6797 0.78125-1.668 1.7148l0.26562 13.535c0.019531 0.9375 0.77734 1.6602 1.6758 1.6602zm0.66016 27.059h0.046876c0.92578-0.023438 1.6562-0.79297 1.6328-1.7266l-0.33594-13.523c-0.023437-0.91016-0.78125-1.6445-1.6914-1.6445h-0.035156c-0.9375 0.023437-1.6797 0.79297-1.6562 1.7266l0.34766 13.535c0.023438 0.90234 0.78125 1.6328 1.6914 1.6328zm-1.1133-54.145c1.0938-0.12109 1.7031-0.76953 1.6914-1.7148-0.058594-4.5-0.10938-9.0117-0.13281-13.512-0.011719-0.9375-0.76953-1.6797-1.6914-1.6797h-0.011719c-0.92578 0-1.6797 0.76953-1.6797 1.7031 0.035157 4.5 0.070313 9.0234 0.14453 13.535-0.003906 0.92578 0.75391 1.668 1.6797 1.668zm77.77-235.97c3.1094-0.60156 7.5703-1.4141 13.273-2.3281 0.92578-0.15625 1.5469-1.0078 1.4023-1.9336-0.14453-0.92578-1.0312-1.4883-1.9336-1.4023-5.7344 0.92578-10.234 1.7383-13.391 2.3516-0.89844 0.16797-1.5 1.0547-1.3203 1.9805 0.15625 0.80469 0.86328 1.3555 1.6562 1.3555 0.097657 0.015625 0.19141 0 0.3125-0.023437zm123.86 774.07c-0.92578 0-1.6797 0.75781-1.6797 1.6914v13.668c0 0.96094 0.75781 1.7148 1.6797 1.7148 0.9375 0 1.6914-0.75781 1.6914-1.7148v-13.668c0.003906-0.9375-0.75391-1.6914-1.6914-1.6914zm0 27.371c-0.92578 0-1.6797 0.75781-1.6797 1.6914v13.668c0 0.9375 0.75781 1.7148 1.6797 1.7148 0.9375 0 1.6914-0.76953 1.6914-1.7148v-13.668c0.003906-0.93359-0.75391-1.6914-1.6914-1.6914zm0 27.359c-0.92578 0-1.6797 0.75781-1.6797 1.6914v3.3711c-0.13281 0.68359-0.89844 4.2852-2.7461 9.3477-0.3125 0.86328 0.12109 1.8477 0.99609 2.1602 0.19141 0.070312 0.38281 0.12109 0.57422 0.12109 0.68359 0 1.3438-0.42187 1.5859-1.1055 0.3125-0.86328 2.7734-7.6445 2.832-10.355l0.12109-3.5391c0.011718-0.94531-0.74609-1.6914-1.6836-1.6914zm0-82.078c-0.92578 0-1.6797 0.75781-1.6797 1.6914v13.691c0 0.91016 0.75781 1.668 1.6797 1.668 0.9375 0 1.6914-0.75781 1.6914-1.668v-13.691c0.003906-0.94922-0.75391-1.6914-1.6914-1.6914zm0-27.359c-0.92578 0-1.6797 0.75781-1.6797 1.668v13.691c0 0.91016 0.75781 1.6914 1.6797 1.6914 0.9375 0 1.6914-0.76953 1.6914-1.6914v-13.691c0.003906-0.91406-0.75391-1.668-1.6914-1.668zm-28.414 154.69c-3.7695 2.1602-7.8711 3.7305-12.238 4.6445-0.91016 0.19141-1.5 1.1055-1.2969 1.9922 0.16797 0.79297 0.86328 1.332 1.6562 1.332 0.10938 0 0.22656 0 0.33594-0.023437 4.7148-0.98438 9.1562-2.6758 13.223-4.9922 0.80469-0.46875 1.0664-1.5 0.625-2.3164-0.46875-0.80469-1.5-1.1289-2.3047-0.63672zm-0.023437-885.83c-0.023438-0.89844-0.78125-1.6211-1.6797-1.6211h-0.070312c-4.6562 0.19141-9.168 0.42188-13.535 0.67188-0.92578 0.058593-1.6328 0.86328-1.5703 1.7891 0.046875 0.89844 0.80469 1.5859 1.6797 1.5859h0.097657c4.3555-0.26562 8.8438-0.49219 13.488-0.67188 0.90625-0.027344 1.6367-0.82031 1.5898-1.7539zm18.301 867.11c-2.3516 3.9844-5.0391 7.5703-7.957 10.621-0.64844 0.68359-0.625 1.7383 0.058594 2.3633 0.3125 0.32422 0.73047 0.46875 1.1641 0.46875s0.875-0.16797 1.2109-0.51562c3.0859-3.2383 5.9297-7.0078 8.4258-11.23 0.48047-0.79297 0.20312-1.8477-0.60156-2.293-0.76562-0.49219-1.8242-0.24219-2.3008 0.58594zm-25.707-900.36c0.5625 0 1.1055-0.27734 1.4297-0.78125 0.50391-0.79297 0.26562-1.8242-0.52734-2.3164-3.7812-2.375-7.4141-5.0508-10.766-7.9922-0.70703-0.61328-1.7773-0.53906-2.375 0.16797-0.61328 0.69531-0.53906 1.7656 0.16797 2.375 3.5039 3.0469 7.2617 5.8438 11.195 8.3047 0.26562 0.16016 0.57422 0.24219 0.875 0.24219zm25.094 10.68c0.76953 0 1.4648-0.51562 1.6562-1.2852 0.22656-0.89844-0.33594-1.8125-1.2344-2.0391-4.332-1.0547-8.6055-2.4961-12.73-4.2461-0.83984-0.35938-1.8359 0.011719-2.1953 0.89844-0.35938 0.85156 0.023437 1.8359 0.88672 2.207 4.2852 1.8242 8.7461 3.3242 13.234 4.4414 0.11719 0 0.27344 0.023438 0.38281 0.023438zm10.75 726.34c-0.92578 0-1.6797 0.73047-1.6797 1.668v13.691c0 0.96094 0.75781 1.7148 1.6797 1.7148 0.9375 0 1.6914-0.75781 1.6914-1.7148v-13.691c0.003906-0.93359-0.75391-1.668-1.6914-1.668zm0-191.55c-0.92578 0-1.6797 0.75781-1.6797 1.7148v13.668c0 0.9375 0.75781 1.6914 1.6797 1.6914 0.9375 0 1.6914-0.75781 1.6914-1.6914v-13.668c0.003906-0.96094-0.75391-1.7148-1.6914-1.7148zm0-54.695c-0.92578 0-1.6797 0.75781-1.6797 1.668v13.691c0 0.9375 0.75781 1.6914 1.6797 1.6914 0.9375 0 1.6914-0.75781 1.6914-1.6914v-13.691c0.003906-0.92578-0.75391-1.668-1.6914-1.668zm0 27.348c-0.92578 0-1.6797 0.75781-1.6797 1.6914v13.691c0 0.91016 0.75781 1.6914 1.6797 1.6914 0.9375 0 1.6914-0.76953 1.6914-1.6914v-13.691c0.003906-0.9375-0.75391-1.6914-1.6914-1.6914zm6.7461-47.93h-8.4258v8.3867c0 0.96094 0.75781 1.7148 1.6797 1.7148 0.9375 0 1.6914-0.75781 1.6914-1.7148v-5.0391h5.0508c0.9375 0 1.6914-0.75781 1.6914-1.6914 0.003906-0.91016-0.75391-1.6562-1.6875-1.6562zm-6.7461 239.46c-0.92578 0-1.6797 0.75781-1.6797 1.6914v13.691c0 0.9375 0.75781 1.6914 1.6797 1.6914 0.9375 0 1.6914-0.75781 1.6914-1.6914v-13.691c0.003906-0.94531-0.75391-1.6914-1.6914-1.6914zm-54.285 214.99c-4.4883-0.27734-8.7461-0.9375-12.695-1.9219-0.92578-0.25391-1.8242 0.32422-2.0391 1.2461-0.22656 0.88672 0.3125 1.8008 1.2227 2.0391 4.1523 1.0312 8.6289 1.6914 13.297 2.0156 0.19141 0 0.40625 0.023438 0.63672 0.023438 0.92578 0 1.4883-0.76953 1.4883-1.7148-0.003906-0.94531-0.97656-1.6875-1.9102-1.6875zm54.285-242.34c-0.92578 0-1.6797 0.75781-1.6797 1.668v13.715c0 0.91016 0.75781 1.6914 1.6797 1.6914 0.9375 0 1.6914-0.76953 1.6914-1.6914v-13.715c0.003906-0.92578-0.75391-1.668-1.6914-1.668zm0-109.45c-0.92578 0-1.6797 0.75781-1.6797 1.668v13.715c0 0.9375 0.75781 1.6914 1.6797 1.6914 0.9375 0 1.6914-0.75781 1.6914-1.6914v-13.715c0.003906-0.92188-0.75391-1.668-1.6914-1.668zm0 82.094c-0.92578 0-1.6797 0.73047-1.6797 1.668v13.691c0 0.9375 0.75781 1.6914 1.6797 1.6914 0.9375 0 1.6914-0.75781 1.6914-1.6914v-13.691c0.003906-0.9375-0.75391-1.668-1.6914-1.668zm0-54.723c-0.92578 0-1.6797 0.75781-1.6797 1.668v13.691c0 0.9375 0.75781 1.6914 1.6797 1.6914 0.9375 0 1.6914-0.75781 1.6914-1.6914v-13.691c0.003906-0.92188-0.75391-1.668-1.6914-1.668zm0 27.324c-0.92578 0-1.6797 0.75781-1.6797 1.7148v13.691c0 0.9375 0.75781 1.668 1.6797 1.668 0.9375 0 1.6914-0.73047 1.6914-1.668v-13.691c0.003906-0.95703-0.75391-1.7148-1.6914-1.7148zm-101.38-96.141c0-0.9375-0.75781-1.6914-1.6797-1.6914-0.92578 0-1.6914 0.75781-1.6914 1.6914v13.691c0 0.9375 0.75781 1.668 1.6914 1.668 0.9375 0 1.6797-0.73047 1.6797-1.668zm0-109.45c0-0.91016-0.75781-1.668-1.6797-1.668-0.92578 0-1.6914 0.75781-1.6914 1.668v13.691c0 0.91016 0.75781 1.6914 1.6914 1.6914 0.9375 0 1.6797-0.76953 1.6797-1.6914zm0-27.371c0-0.91016-0.75781-1.668-1.6797-1.668-0.92578 0-1.6914 0.75781-1.6914 1.668v13.691c0 0.96094 0.75781 1.7148 1.6914 1.7148 0.9375 0 1.6797-0.75781 1.6797-1.7148zm0 54.754c0-0.9375-0.75781-1.6914-1.6797-1.6914-0.92578 0-1.6914 0.75781-1.6914 1.6914v13.691c0 0.9375 0.75781 1.668 1.6914 1.668 0.9375 0 1.6797-0.73047 1.6797-1.668zm0-82.09c0-0.94922-0.75781-1.7031-1.6797-1.7031-0.92578 0-1.6914 0.75781-1.6914 1.7031v13.691c0 0.92578 0.75781 1.6797 1.6914 1.6797 0.9375 0 1.6797-0.75781 1.6797-1.6797zm0-27.363c0-0.92578-0.75781-1.6914-1.6797-1.6914-0.92578 0-1.6914 0.76953-1.6914 1.6914v13.68c0 0.92578 0.75781 1.6797 1.6914 1.6797 0.9375 0 1.6797-0.75781 1.6797-1.6797zm0 246.25c0-0.9375-0.75781-1.668-1.6797-1.668-0.92578 0-1.6914 0.73047-1.6914 1.668v13.691c0 0.9375 0.75781 1.7148 1.6914 1.7148 0.9375 0 1.6797-0.76953 1.6797-1.7148zm0-273.62c0-0.92578-0.75781-1.6797-1.6797-1.6797-0.92578 0-1.6914 0.75781-1.6914 1.6797v13.68c0 0.92578 0.75781 1.6914 1.6914 1.6914 0.9375 0 1.6797-0.76953 1.6797-1.6914zm0 246.25c0-0.91016-0.75781-1.668-1.6797-1.668-0.92578 0-1.6914 0.75781-1.6914 1.668v13.68c0 0.96094 0.75781 1.7148 1.6914 1.7148 0.9375 0 1.6797-0.75781 1.6797-1.7148zm0-82.082c0-0.9375-0.75781-1.6914-1.6797-1.6914-0.92578 0-1.6914 0.75781-1.6914 1.6914v13.691c0 0.9375 0.75781 1.6914 1.6914 1.6914 0.9375 0 1.6797-0.75781 1.6797-1.6914zm0 136.82c0-0.9375-0.75781-1.6914-1.6797-1.6914-0.92578 0-1.6914 0.75781-1.6914 1.6914v13.691c0 0.91016 0.75781 1.668 1.6914 1.668 0.9375 0 1.6797-0.75781 1.6797-1.668zm0-109.45c0-0.9375-0.75781-1.668-1.6797-1.668-0.92578 0-1.6914 0.73047-1.6914 1.668v13.691c0 0.91016 0.75781 1.6914 1.6914 1.6914 0.9375 0 1.6797-0.76953 1.6797-1.6914zm11.605 406.01c-0.64844-0.66016-1.7148-0.68359-2.3867-0.023437-0.67188 0.63672-0.68359 1.7148-0.035156 2.3867 3.2539 3.3242 7.0312 6.2148 11.258 8.5078 0.26562 0.14453 0.52734 0.21484 0.82812 0.21484 0.57422 0 1.1641-0.30078 1.4766-0.86328 0.44531-0.81641 0.14453-1.8477-0.67188-2.293-3.9414-2.1602-7.457-4.8125-10.469-7.9297zm-11.594-23.137c-0.10937-0.91016-0.91016-1.6914-1.8828-1.4531-0.92578 0.097657-1.5859 0.9375-1.4648 1.8711 0.12109 1.0547 0.94922 6.7578 4.3438 13.523 0.28906 0.61328 0.89844 0.96094 1.5117 0.96094 0.26562 0 0.50391-0.046875 0.75781-0.19141 0.83984-0.42188 1.1641-1.4297 0.75781-2.2578-3.1602-6.2852-3.9141-11.469-4.0234-12.453zm45.926-852.16c-0.070313-0.92578-0.92578-1.7031-1.8008-1.5469-4.7148 0.35938-9.2266 0.74219-13.512 1.1406-0.9375 0.085938-1.6094 0.89844-1.5352 1.8359 0.097656 0.875 0.82812 1.5234 1.6797 1.5234h0.16797c4.2617-0.39453 8.7461-0.78125 13.441-1.1406 0.92188-0.074218 1.6289-0.87891 1.5586-1.8125zm-26.93 2.4609c-0.097656-0.91016-0.89844-1.6562-1.8711-1.4883-4.8359 0.55078-9.3359 1.1055-13.465 1.6562-0.92578 0.13281-1.5703 0.98438-1.4414 1.8945 0.10938 0.85156 0.82813 1.4648 1.668 1.4648 0.070313 0 0.15625 0 0.22656-0.011719 4.0938-0.55078 8.5664-1.1172 13.391-1.6562 0.92969-0.097657 1.5898-0.92578 1.4922-1.8594zm7.3945-106.9c-0.13281-2.0039-0.20313-4.0195-0.20313-6.0586 0-2.4727 0.097657-4.9453 0.30078-7.3555 0.085937-0.92578-0.61328-1.7383-1.5469-1.8242-1.0312-0.16797-1.7383 0.61328-1.8242 1.5352-0.20312 2.5078-0.3125 5.0898-0.3125 7.6445 0 2.125 0.070312 4.2227 0.22656 6.3008 0.070313 0.88672 0.79297 1.5586 1.6797 1.5586 0.046875 0 0.085938 0 0.12109-0.011719 0.93359-0.058594 1.6172-0.86328 1.5586-1.7891zm4.4609 28.379c0.21484 0 0.42188-0.035156 0.63672-0.13281 0.85156-0.34766 1.2617-1.332 0.92578-2.1836-1.6797-4.1289-3.0352-8.4375-4.0312-12.805-0.21484-0.91016-1.0664-1.4766-2.0273-1.2617-0.89844 0.20312-1.4766 1.1172-1.2461 2.0156 1.043 4.5352 2.4609 9.0117 4.1992 13.309 0.25 0.67578 0.87109 1.0586 1.543 1.0586zm-30.863 326.43c0-0.92578-0.75781-1.6797-1.6797-1.6797-0.92578 0-1.6914 0.75781-1.6914 1.6797v13.691c0 0.9375 0.75781 1.7031 1.6914 1.7031 0.9375 0 1.6797-0.76953 1.6797-1.7031zm-1.6797 589.98c0.92578 0 1.6797-0.73047 1.6797-1.668v-13.691c0-0.96094-0.75781-1.7148-1.6797-1.7148-0.92578 0-1.6914 0.75781-1.6914 1.7148v13.691c0 0.94922 0.76562 1.668 1.6914 1.668zm1.6797-644.69c0-0.9375-0.75781-1.6914-1.6797-1.6914-0.92578 0-1.6914 0.75781-1.6914 1.6914v13.68c0 0.92578 0.75781 1.6797 1.6914 1.6797 0.9375 0 1.6797-0.75781 1.6797-1.6797zm0 27.359c0-0.9375-0.75781-1.6914-1.6797-1.6914-0.92578 0-1.6914 0.75781-1.6914 1.6914v13.68c0 0.9375 0.75781 1.6914 1.6914 1.6914 0.9375 0 1.6797-0.75781 1.6797-1.6914zm0-54.734c0-0.92578-0.75781-1.6797-1.6797-1.6797-0.92578 0-1.6914 0.75781-1.6914 1.6797v13.691c0 0.92578 0.75781 1.6797 1.6914 1.6797 0.9375 0 1.6797-0.75781 1.6797-1.6797z" fill="#fff"/>
</svg>
