 <svg  version="1.0" xmlns="http://www.w3.org/2000/svg"  width="300.000000pt" height="269.000000pt" viewBox="0 0 300.000000 269.000000"  preserveAspectRatio="xMidYMid meet">  <g transform="translate(0.000000,269.000000) scale(0.050000,-0.050000)" fill="#ffffff" stroke="none"> <path d="M1210 5272 c-528 -400 -884 -966 -1083 -1722 -58 -221 -54 -968 8 -1233 114 -493 383 -1015 693 -1347 l112 -119 840 839 c462 462 838 847 835 855 -13 38 -1184 1192 -1200 1182 -30 -19 -92 -180 -137 -354 -89 -347 -70 -664 62 -1053 l58 -169 -188 -188 c-216 -214 -218 -214 -305 -41 -346 690 -289 1664 134 2278 34 50 93 135 131 191 37 55 91 122 120 149 l51 48 825 -824 c453 -453 833 -824 844 -824 11 0 392 371 846 825 l827 825 79 -90 c610 -693 753 -1709 359 -2552 -99 -213 -83 -214 -307 23 l-196 207 40 96 c187 444 165 1160 -44 1441 -19 25 -696 -618 -1054 -1001 l-164 -175 407 -418 c531 -546 472 -488 899 -901 l373 -361 129 137 c775 822 961 2168 447 3234 -181 375 -519 797 -819 1023 -221 166 -108 240 -1014 -664 -440 -440 -803 -802 -807 -806 -5 -4 -366 354 -804 795 -438 441 -810 802 -827 801 -16 -1 -93 -49 -170 -107z"/> <path d="M2620 1771 c-214 -213 -391 -395 -395 -406 -22 -67 500 -205 776 -205 269 0 802 132 798 198 0 15 -353 378 -600 616 l-190 184 -389 -387z"/> <path d="M1581 739 c-245 -237 -245 -225 1 -363 911 -511 2130 -487 2951 59 134 88 143 60 -100 302 l-207 206 -128 -69 c-630 -339 -1523 -342 -2168 -7 -66 35 -125 65 -131 68 -5 3 -104 -85 -218 -196z"/> </g> </svg> 