<?xml version="1.0" encoding="UTF-8"?>
<svg width="1200pt" height="1200pt" version="1.1" viewBox="0 0 1200 1200" xmlns="http://www.w3.org/2000/svg">
 <path d="m884.44 282.6-588.01 603.14 32.59 31.656 149.72-153.56c38.047 10.875 78.789 16.773 121.14 16.773 147.56 0 276.27-71.051 337.22-177.66 3.8711-6.8008 3.8711-15.641 0-22.445-32.582-56.914-84.508-103.58-148.3-134.9l127.99-131.36zm-284.56 120.02c-147.51 0-276 71.371-336.98 177.89-3.8711 6.8008-3.8711 15.645 0 22.445 32.461 56.777 84.145 103.42 147.59 134.66l33.77-34.73c-57.414-25.566-104.25-64.629-134.37-111.27 54.355-83.973 162.91-143.64 289.99-143.64 29.133 0 57.297 3.3711 84.07 9.2148l37.074-37.801c-38.051-10.879-78.855-16.773-121.14-16.773zm0 68.039c-66.508 0-120.91 54.422-120.91 120.96 0 21.586 5.8125 41.941 15.82 59.535l33.77-34.492c-2.707-7.8203-4.25-16.25-4.25-25.043 0-42.023 33.562-75.598 75.566-75.598 8.1445 0 16.055 1.2031 23.379 3.543l33.531-34.492c-16.977-9.1211-36.387-14.41-56.91-14.41zm155.15 9.6875c57.723 25.562 104.83 64.531 135.08 111.27-54.289 84.102-162.99 143.64-290.23 143.64-29.383 0-57.625-3.25-84.543-9.2148l27.395-28.113c17.047 9.2305 36.48 14.648 57.148 14.648 66.508 0 120.91-54.426 120.91-120.96 0-21.785-5.9023-42.074-16.059-59.77z" fill="#fff"/>
</svg>
