<svg version="1.1" id="Layer_1" xmlns="http://www.w3.org/2000/svg" xmlns:xlink="http://www.w3.org/1999/xlink" x="0px" y="0px"
	 width="100%" viewBox="0 0 798 797" enable-background="new 0 0 798 797" xml:space="preserve">
<path fill="#030303" opacity="1.000000" stroke="none" 
	d="
M1.000000,437.000000 
	C1.000000,412.312439 1.000000,387.624878 1.414427,362.413177 
	C2.161266,360.107208 2.515282,358.329102 2.822764,356.542969 
	C6.121469,337.381653 8.146437,317.896759 12.927269,299.113129 
	C32.729832,221.309860 72.728065,155.565140 132.965820,102.271233 
	C168.577713,70.764442 208.630981,46.441124 252.566162,28.508724 
	C279.740356,17.417419 307.887604,9.568927 336.884247,4.819174 
	C343.292755,3.769443 349.629974,2.284527 356.000000,1.000002 
	C367.020905,1.000000 378.041779,1.000000 389.649719,1.327430 
	C391.611359,4.931245 394.105713,8.184676 394.173401,11.487853 
	C394.531769,28.968050 394.523224,46.466194 394.132843,63.946754 
	C393.947815,72.230217 389.802307,75.742699 381.656342,76.706619 
	C370.922729,77.976753 360.132782,79.020042 349.512329,80.957275 
	C282.313019,93.214798 222.880020,121.820808 175.127716,170.747467 
	C94.323044,253.539398 64.294449,352.812103 85.954979,466.775848 
	C94.142220,509.851807 111.407135,549.386292 138.763733,584.012390 
	C146.792847,594.175110 155.787155,603.589050 164.606659,613.098022 
	C165.885406,614.476746 168.958786,615.356506 170.660294,614.802917 
	C171.983078,614.372681 172.867096,611.422791 173.214401,609.463013 
	C173.643768,607.040222 173.266342,604.482239 173.324326,601.984619 
	C173.586411,590.694763 173.320129,579.354370 174.346634,568.133057 
	C175.099548,559.902588 177.585632,551.833252 179.251724,543.682373 
	C179.900848,540.506836 181.690765,536.463745 177.819366,534.966675 
	C176.674255,534.523865 172.988632,538.940430 171.398438,541.672241 
	C166.130371,550.722290 161.411789,560.091125 156.205109,569.178772 
	C154.632889,571.922913 152.099823,574.611450 148.435959,572.375122 
	C144.794983,570.152771 146.727859,567.137634 148.165588,564.531006 
	C153.069244,555.640747 158.178360,546.861206 162.921387,537.887329 
	C163.766495,536.288391 163.239349,533.964233 163.345840,531.974915 
	C161.471085,532.571472 159.054276,532.624023 157.815155,533.858521 
	C152.394211,539.259644 147.239029,544.935974 142.144699,550.652649 
	C139.767151,553.320740 137.200760,555.949036 133.764069,553.270874 
	C130.351501,550.611511 131.874603,547.109558 134.276443,544.541077 
	C140.406052,537.986145 146.630142,531.504211 153.099335,525.287476 
	C157.497330,521.061218 161.460754,516.712646 162.943893,510.612427 
	C163.885635,506.738983 164.299271,502.756775 160.588165,500.179718 
	C156.935013,497.642914 154.441376,500.923798 151.837173,502.811981 
	C147.392975,506.034241 142.650833,508.548248 137.039322,506.926819 
	C135.019653,506.343262 133.399506,504.376923 131.597031,503.041656 
	C133.099335,501.496857 134.418091,499.696167 136.141678,498.459900 
	C139.883698,495.775696 145.168625,494.216370 147.387527,490.672455 
	C150.820618,485.189178 155.151108,483.961243 160.849030,483.084625 
	C175.410095,480.844421 189.533936,477.428711 200.297974,465.981720 
	C211.282806,454.299896 219.758347,441.047729 225.936646,426.365570 
	C232.244080,411.376526 239.596832,397.048950 250.822372,385.130005 
	C260.835297,374.498596 268.103882,362.476990 272.222626,348.408234 
	C278.339539,327.514252 286.169250,307.040344 285.353180,284.676697 
	C285.167572,279.590088 286.080780,274.369141 287.138947,269.347107 
	C292.759949,242.670364 308.410370,233.818832 331.580475,228.401352 
	C332.612000,228.160156 333.905121,229.037857 335.076416,229.394394 
	C334.624542,230.551163 334.503967,232.145401 333.660065,232.784470 
	C330.885040,234.885925 327.886444,236.704834 324.903778,238.517105 
	C316.720215,243.489471 310.112427,250.270081 308.832245,259.760254 
	C306.972992,273.542816 306.641113,287.536804 305.893036,301.453278 
	C305.833679,302.556763 307.604187,303.758606 308.524323,304.914734 
	C309.596619,303.770569 311.327759,302.762299 311.597900,301.452667 
	C312.091827,299.058228 311.782074,296.483612 311.700989,293.987579 
	C311.423187,285.436829 311.806305,276.995972 315.531158,269.063904 
	C321.022797,257.369598 329.453552,248.046677 339.350281,239.994904 
	C342.152863,237.714813 345.366852,235.841614 348.630585,234.280228 
	C349.785919,233.727509 352.235168,234.154861 353.016693,235.062317 
	C353.707520,235.864365 353.384125,238.259964 352.656586,239.415710 
	C351.074341,241.929184 348.928802,244.084488 347.048767,246.414612 
	C339.071411,256.301910 332.859772,267.054474 332.162933,280.076294 
	C331.575867,291.046875 331.421417,302.044830 331.327606,313.032837 
	C331.313904,314.640442 332.701141,316.259979 333.440186,317.873993 
	C334.293152,316.292053 335.830536,314.731659 335.881165,313.124390 
	C336.106628,305.969757 335.215485,298.720795 336.041687,291.659668 
	C336.998199,283.484467 339.021057,275.383942 341.239960,267.434937 
	C341.970551,264.817596 344.433044,262.370880 346.686707,260.579926 
	C348.919861,258.805267 350.862732,259.958710 350.947845,262.956024 
	C350.984406,264.243317 350.400116,265.536957 350.207092,266.843842 
	C348.803986,276.343170 346.428802,285.826355 346.236206,295.352600 
	C345.704102,321.667816 346.088013,348.001556 346.108124,374.327972 
	C346.110046,376.827240 345.745483,379.398163 346.229980,381.798828 
	C346.520233,383.237030 348.129913,384.408936 349.146576,385.700531 
	C350.003632,384.450409 350.992432,383.265991 351.662231,381.922516 
	C351.998138,381.248840 351.767609,380.285553 351.768646,379.453186 
	C351.801270,353.797638 351.827789,328.142090 351.862213,302.486542 
	C351.877136,291.367798 354.123749,280.660736 358.163208,270.351990 
	C359.385590,267.232391 360.410309,262.596649 364.661407,263.287811 
	C369.124634,264.013519 368.044617,268.640350 368.163483,272.028320 
	C368.198517,273.026855 368.168060,274.027710 368.165436,275.027496 
	C368.101593,299.520844 367.969757,324.014557 368.095245,348.506958 
	C368.105896,350.579895 369.837036,352.644012 370.768860,354.712250 
	C371.937531,352.636902 373.757050,350.671173 374.129089,348.461700 
	C374.757050,344.732086 374.468018,340.848145 374.803223,336.973816 
	C374.877411,336.268951 374.712982,335.619293 374.414551,334.521057 
	C374.389709,327.392151 374.498871,320.711853 374.945618,313.864624 
	C375.520538,312.769012 375.962860,311.840820 375.964905,310.911621 
	C376.007385,291.499390 376.017944,272.086975 375.959869,252.674850 
	C375.956207,251.449875 375.340637,250.226730 374.955811,248.641754 
	C376.160706,247.270081 377.419556,246.259399 378.678406,245.248718 
	C379.601135,246.522842 380.823761,247.685715 381.351135,249.106613 
	C381.767670,250.228775 381.329285,251.668228 381.019287,253.060944 
	C380.941254,254.115540 381.114532,255.075958 381.429504,256.414185 
	C381.474854,257.850067 381.378510,258.908142 381.001801,260.097900 
	C380.910126,261.831940 381.098877,263.434326 381.427307,265.482727 
	C381.507324,280.814087 381.405670,295.699554 381.434387,310.584717 
	C381.438568,312.752411 380.388519,315.806183 384.605713,316.081451 
	C385.301453,315.392914 385.689056,314.707214 386.000519,313.558899 
	C385.927368,309.433807 385.909912,305.771179 385.939728,302.108887 
	C385.964081,299.116882 386.463593,296.047638 390.017334,295.662109 
	C393.973389,295.233002 395.106506,298.527161 395.391083,301.543762 
	C395.810883,305.993378 395.627197,310.499878 395.318512,314.998901 
	C394.293915,315.977448 393.138275,316.917389 393.096161,317.904785 
	C392.898193,322.546875 392.839600,327.212250 393.125916,331.844910 
	C393.194305,332.951691 394.776459,333.964905 395.764465,335.341797 
	C395.806610,336.102142 395.746643,336.541809 395.368713,336.981323 
	C394.508759,337.425140 393.966797,337.869171 393.424805,338.313202 
	C394.177094,338.548553 394.929413,338.783936 395.782227,339.436493 
	C395.829041,341.563538 395.775330,343.273376 395.379639,344.986328 
	C394.403351,345.543213 393.769012,346.096985 393.134674,346.650757 
	C393.997986,347.439331 394.861298,348.227936 395.822449,349.339508 
	C395.855225,350.102783 395.790131,350.543091 395.397827,350.976135 
	C394.285126,351.259918 393.499725,351.550903 392.714294,351.841888 
	C393.712463,352.567261 394.710632,353.292633 395.813416,354.381042 
	C395.857300,355.490845 395.796570,356.237640 395.413940,357.026550 
	C391.553925,359.216339 393.465118,360.640259 395.851990,362.461761 
	C395.893219,366.268219 395.831360,369.627594 395.390350,373.097778 
	C394.691833,373.748138 394.098145,374.285492 394.093964,374.827362 
	C394.022614,384.059509 393.977753,393.292786 394.088837,402.523865 
	C394.098907,403.359528 395.216797,404.181854 395.930725,405.466858 
	C396.098175,421.014069 396.263397,436.105438 396.177063,451.195404 
	C396.110748,462.788422 395.727539,474.379608 395.184448,486.067871 
	C394.908539,487.438721 394.933380,488.713318 395.038269,490.420837 
	C394.976379,492.896606 394.834412,494.939514 394.342102,497.083313 
	C392.583191,499.652405 391.872528,502.040466 394.961914,504.320679 
	C396.684967,508.032745 398.935852,510.739532 402.674530,507.892181 
	C404.152130,506.766846 404.886078,503.781525 404.828674,501.673950 
	C404.547607,491.357391 403.430359,481.051178 403.431793,470.741394 
	C403.441223,402.912292 403.656921,335.083130 403.843781,267.254150 
	C403.849243,265.275085 403.838531,263.089355 404.642487,261.379517 
	C405.388336,259.793243 407.167206,257.757660 408.581726,257.685120 
	C409.982391,257.613312 412.198181,259.468079 412.799194,260.978180 
	C413.748138,263.362579 413.937286,266.164551 413.941406,268.790558 
	C413.963867,283.119720 413.771240,297.449371 413.822754,311.778229 
	C413.829773,313.732697 414.789673,315.683716 415.308380,317.636353 
	C416.012421,317.565552 416.716431,317.494751 417.420441,317.423920 
	C417.709198,315.442078 418.213898,313.464325 418.251862,311.477661 
	C418.512726,297.818542 418.503418,284.150726 419.039978,270.503754 
	C419.129822,268.218781 421.450775,266.021515 422.740784,263.783691 
	C424.809998,265.607941 428.070221,267.087708 428.716980,269.323425 
	C430.409790,275.175446 431.521149,281.328644 431.836334,287.415039 
	C432.309540,296.553223 431.792603,305.739258 431.989777,314.898651 
	C432.021271,316.361572 433.581848,317.791565 434.435516,319.236786 
	C435.610748,317.874939 437.352692,316.681061 437.818665,315.109009 
	C438.408966,313.117493 437.982269,310.818329 437.959106,308.652191 
	C437.770294,290.991882 437.558868,273.331757 437.390778,255.671265 
	C437.356628,252.083908 437.543060,247.650040 441.591553,247.116928 
	C444.436859,246.742264 448.682922,248.533508 450.506012,250.802094 
	C453.427734,254.437851 455.784210,259.081879 456.714081,263.639587 
	C458.263824,271.235474 458.347687,279.120483 459.407654,286.834473 
	C459.624084,288.409424 461.423615,289.766846 462.493378,291.224548 
	C463.377563,289.662170 465.034729,288.079895 464.995148,286.541321 
	C464.893036,282.573334 463.714447,278.633850 463.602173,274.665009 
	C463.526703,271.997437 463.617828,268.020233 465.235443,266.858795 
	C469.758545,263.611237 468.370117,260.793335 466.342041,257.141785 
	C462.797089,250.759048 458.838531,244.483719 458.870697,236.748856 
	C458.890961,231.875885 461.006622,229.046783 465.666656,229.586731 
	C481.496948,231.420914 495.918915,236.328217 505.539093,250.254639 
	C512.654236,260.554718 514.588928,272.418396 514.739197,284.476837 
	C514.929504,299.746185 516.919739,314.642517 520.935547,329.355103 
	C526.497192,349.730988 532.969299,369.476044 548.476135,385.053284 
	C557.852600,394.472290 563.797485,406.276093 569.105957,418.440491 
	C573.557129,428.640717 578.394470,438.737579 583.911743,448.394073 
	C596.076965,469.685730 614.356567,481.775818 639.174927,483.453156 
	C641.309326,483.597412 644.280823,484.493927 645.276794,486.053925 
	C649.433655,492.565369 655.220581,496.639618 662.203430,499.450928 
	C665.037170,500.591797 665.002014,503.103058 662.930847,504.505219 
	C660.748352,505.982697 657.647217,507.427734 655.281616,507.007111 
	C651.502808,506.335327 648.026428,504.045044 644.371460,502.564453 
	C641.922363,501.572327 637.702393,499.496613 637.190674,500.158875 
	C635.364319,502.522461 634.318420,505.785248 633.901367,508.834137 
	C633.638184,510.758240 634.557190,513.242554 635.752136,514.891235 
	C639.052002,519.444031 642.623718,523.825073 646.368774,528.023621 
	C651.351562,533.609680 656.692200,538.876038 661.693970,544.445923 
	C664.123413,547.151306 665.230713,550.477234 661.899841,553.242249 
	C658.345886,556.192566 656.311462,553.144714 654.147278,550.737244 
	C648.916077,544.917847 643.676025,539.099121 638.209900,533.504517 
	C637.160583,532.430603 635.061340,532.382507 633.446472,531.861145 
	C633.192993,533.664795 632.372314,535.624878 632.816895,537.235901 
	C633.511108,539.752014 634.984070,542.074646 636.265442,544.403137 
	C640.036804,551.256287 643.886536,558.066223 647.683960,564.905090 
	C649.239502,567.706482 649.415894,570.474182 646.422607,572.350708 
	C643.279663,574.321045 641.256836,571.948975 639.908691,569.687134 
	C635.909302,562.977112 632.099609,556.148254 628.408081,549.262756 
	C626.292053,545.315735 624.736755,541.061462 622.519165,537.179688 
	C621.897217,536.091125 619.821228,535.833313 618.412231,535.194397 
	C617.839966,536.489929 616.780151,537.791992 616.797424,539.079590 
	C616.832886,541.717773 617.375122,544.360718 617.834167,546.979736 
	C619.527344,556.637756 622.134583,566.229370 622.782837,575.953613 
	C623.634216,588.726929 622.796265,601.605408 623.057251,614.431030 
	C623.118958,617.461243 624.667297,620.461182 625.531738,623.474976 
	C628.106384,621.899292 631.076233,620.732361 633.193848,618.684265 
	C652.594788,599.920166 668.614075,578.460144 681.869385,555.051514 
	C710.683777,504.166046 723.872009,449.502930 721.575317,390.908325 
	C720.071350,352.537842 712.890564,315.601807 697.917542,280.225525 
	C677.054626,230.933594 647.033447,188.270630 605.834473,153.823822 
	C567.846985,122.062202 524.934021,99.233864 477.143005,86.554916 
	C457.628937,81.377838 437.182281,79.691200 417.140594,76.539413 
	C408.777924,75.224289 405.144745,71.971077 404.938629,63.592163 
	C404.545502,47.609962 404.639343,31.616102 404.485382,15.627522 
	C404.435394,10.440938 404.855988,5.402537 408.000000,1.000000 
	C420.354218,1.000000 432.708466,1.000000 445.673737,1.382471 
	C477.232513,5.825300 507.442169,12.829255 536.668762,23.961250 
	C584.526428,42.189545 628.552429,67.011726 666.993347,100.981514 
	C706.250183,135.672348 737.045776,176.976913 760.016235,224.081207 
	C776.808960,258.517151 788.622131,294.569702 795.185120,332.336700 
	C796.271851,338.589935 797.719238,344.780487 799.000000,351.000000 
	C799.000000,376.354218 799.000000,401.708466 798.593262,427.688934 
	C797.126221,438.067139 796.658020,447.928680 794.878113,457.547485 
	C791.525879,475.663177 788.472412,493.940582 783.419006,511.614441 
	C770.014221,558.496033 747.460754,600.949524 717.644653,639.428284 
	C686.964661,679.021912 650.303223,712.084167 607.309570,737.986084 
	C602.899292,740.643066 598.651611,743.575500 594.383667,746.461670 
	C590.263184,749.248291 586.265747,752.220215 582.093811,754.924927 
	C581.164551,755.527344 579.476440,755.883606 578.573242,755.448730 
	C573.540894,753.025574 569.953003,755.206726 567.700928,759.294861 
	C565.107300,764.002930 560.961304,765.066772 556.311523,766.129211 
	C556.311523,740.772827 556.283325,715.776733 556.327271,690.780823 
	C556.342102,682.318909 560.061890,676.189087 567.158691,671.233765 
	C581.313965,661.349915 595.041931,650.847412 608.814758,640.426514 
	C613.197815,637.110168 614.870239,632.321716 614.858521,626.791382 
	C614.823242,610.126648 615.994995,593.376831 614.660767,576.824280 
	C613.644287,564.214172 609.636902,551.827148 606.636841,539.419006 
	C606.281311,537.948792 603.912598,536.073425 602.424866,536.026123 
	C601.009521,535.981079 598.647766,537.833923 598.232178,539.289246 
	C596.827820,544.206604 595.180054,549.342957 595.314941,554.350037 
	C595.578613,564.137207 597.009644,573.891174 597.904236,583.663757 
	C598.367554,588.723755 596.287720,592.570923 593.077698,592.826172 
	C589.589050,593.103577 586.880371,589.314880 586.847595,584.098938 
	C586.844482,583.600159 586.884583,583.100220 586.922363,582.602173 
	C587.400818,576.294556 587.875916,569.986694 588.364441,563.679810 
	C590.123291,540.973083 587.773682,518.783813 579.571472,497.430695 
	C578.055176,493.483093 576.903198,487.891052 570.920410,488.858521 
	C565.103149,489.799225 565.088196,495.267059 565.093262,499.632843 
	C565.133728,534.288269 565.286072,568.944641 565.670166,603.597778 
	C565.756653,611.399597 567.082092,619.180298 567.464355,626.989014 
	C567.691895,631.637573 564.778442,635.515930 561.759094,635.026672 
	C557.419739,634.323364 555.937622,631.032898 555.747864,627.018616 
	C555.693176,625.860596 555.822449,624.691040 555.908691,623.529785 
	C556.328491,617.882996 557.068909,612.240845 557.135620,606.590454 
	C557.371460,586.603149 557.410278,566.613220 557.463562,546.624146 
	C557.516418,526.793823 557.869751,506.952454 557.289185,487.139435 
	C557.106384,480.901947 554.673218,474.617432 552.509583,468.629211 
	C551.958130,467.102966 548.451111,465.827087 546.397217,465.955750 
	C545.082214,466.038116 543.405151,468.744354 542.857544,470.565216 
	C542.158203,472.890472 542.308472,475.508972 542.308899,478.001038 
	C542.312439,498.165161 542.373962,518.329285 542.397766,538.493408 
	C542.401367,541.525635 542.559143,545.389587 538.537231,545.351562 
	C534.901123,545.317139 535.002197,541.681885 534.999878,538.753662 
	C534.989685,525.755005 535.002136,512.755432 534.854858,499.757935 
	C534.698181,485.931610 534.509949,472.102722 534.062622,458.283783 
	C533.820435,450.802521 531.431091,443.874023 526.818176,437.887939 
	C524.394653,434.742889 521.396545,432.276428 517.021301,433.344604 
	C512.691101,434.401855 510.977234,437.714539 510.450928,441.802765 
	C510.217773,443.614075 510.038635,445.447388 510.035553,447.271057 
	C509.980286,480.098175 509.915680,512.925354 509.935089,545.752502 
	C509.957245,583.248962 510.111633,620.745605 509.995636,658.241455 
	C509.988892,660.426025 508.075928,662.604614 507.050110,664.786011 
	C505.744629,662.584534 504.424774,660.391357 503.153748,658.170166 
	C503.011780,657.922119 503.153259,657.515320 503.153229,657.182190 
	C503.149139,604.521423 503.152435,551.860596 503.135620,499.199829 
	C503.127045,472.369446 503.185913,445.538116 502.942200,418.709686 
	C502.905609,414.681976 501.661957,410.572662 500.372467,406.702423 
	C499.958160,405.458893 497.532318,404.072388 496.152252,404.192535 
	C494.773987,404.312561 492.906860,406.008575 492.406219,407.421814 
	C491.540009,409.867126 491.271759,412.626740 491.263031,415.256226 
	C491.216583,429.254395 491.342712,443.253021 491.374084,457.251587 
	C491.380554,460.124969 491.403595,463.634003 487.721039,463.867981 
	C483.561066,464.132233 483.439087,460.334106 483.322479,457.382843 
	C483.118744,452.225464 483.386444,447.049438 483.181335,441.892181 
	C482.864532,433.927399 482.416595,425.964294 481.823975,418.015442 
	C481.517456,413.904816 480.391663,409.833771 480.313293,405.731903 
	C480.119171,395.571014 480.374207,385.402374 480.327545,375.237427 
	C480.306152,370.578430 480.555817,365.802063 479.597656,361.310364 
	C479.086670,358.914948 476.265076,357.012482 474.486359,354.887512 
	C472.626953,356.959167 469.679504,358.770599 469.110229,361.150818 
	C467.336975,368.565033 466.503998,376.201355 465.233704,383.739319 
	C463.174255,395.959564 462.399719,408.136108 464.514587,420.497131 
	C468.917755,446.233246 473.868652,471.922852 476.952393,497.827057 
	C482.396729,543.560852 478.959473,588.989929 468.361877,633.773865 
	C462.861969,657.015747 457.907623,680.305115 458.366577,704.285828 
	C458.643188,718.741455 460.437714,733.161560 461.073761,747.618591 
	C461.777344,763.609619 460.131744,779.404846 455.786865,794.840088 
	C451.001770,795.249084 446.582642,795.524963 442.189850,796.029907 
	C437.447052,796.575012 432.728912,797.334167 428.000000,798.000000 
	C421.312347,798.000000 414.624725,798.000000 407.256042,797.622864 
	C404.739746,779.082092 405.835510,761.048706 409.363281,743.182190 
	C412.182129,728.906067 411.658173,715.015808 408.147064,700.757874 
	C405.933777,691.770142 406.443359,682.021423 406.430725,672.613098 
	C406.421814,665.991882 408.268188,659.352600 408.108582,652.749817 
	C407.541718,629.301697 406.515167,605.864014 405.550934,582.426880 
	C405.359985,577.786133 405.087128,573.069275 404.039001,568.577271 
	C403.527100,566.383423 401.145782,564.625793 399.610657,562.670715 
	C397.794525,564.563721 395.416382,566.183655 394.325348,568.429016 
	C393.300354,570.538391 393.513397,573.302429 393.390717,575.788757 
	C392.545959,592.910034 391.387970,610.027039 391.060333,627.159302 
	C390.777832,641.929932 391.632599,656.718811 391.656616,671.500183 
	C391.672455,681.256470 392.345062,691.254883 390.501862,700.711853 
	C387.979675,713.652527 387.473480,726.292603 388.842407,739.344971 
	C390.827667,758.273682 391.924255,777.295898 393.317383,796.284363 
	C393.356781,796.821106 392.460175,797.426575 392.000000,798.000000 
	C375.979095,798.000000 359.958221,798.000000 343.434998,797.602966 
	C337.223602,776.225830 336.608459,754.972900 338.601135,733.401550 
	C340.562561,712.168762 341.507080,690.792114 337.702393,669.662842 
	C335.051117,654.939270 331.279633,640.416809 327.985260,625.809753 
	C319.633575,588.778870 318.451660,551.284485 320.712494,513.567749 
	C322.338745,486.437531 325.340393,459.492554 332.136078,433.105011 
	C336.051758,417.900543 337.016785,402.585754 334.702820,387.058533 
	C333.598663,379.649292 332.473328,372.242584 331.461395,364.820557 
	C330.899506,360.699341 330.687256,356.528412 330.064453,352.418213 
	C329.550903,349.028687 328.513977,345.426819 324.323303,345.376434 
	C319.994934,345.324341 319.250854,349.180725 318.660156,352.429657 
	C318.128296,355.355042 318.049194,358.390350 318.037598,361.378235 
	C317.947052,384.707245 318.004700,408.037323 317.776520,431.364716 
	C317.745514,434.529938 317.354858,438.574860 315.440247,440.660675 
	C310.997467,445.500732 309.525360,450.892639 309.541718,457.075043 
	C309.580536,471.738434 309.651550,486.401855 309.642761,501.065216 
	C309.604065,565.713623 309.538452,630.362061 309.497620,695.010498 
	C309.495514,698.339661 309.953644,701.707886 309.556671,704.980164 
	C309.383087,706.411133 307.593109,707.646057 306.537109,708.969971 
	C305.315796,707.620850 303.858795,706.408630 302.964874,704.869324 
	C302.458893,703.998108 302.873535,702.589905 302.880341,701.423584 
	C302.980408,684.260864 303.139526,667.098206 303.172455,649.935364 
	C303.310272,578.122925 303.409241,506.310455 303.525635,434.498016 
	C303.540222,425.502014 303.850800,416.492310 303.405975,407.519592 
	C303.293335,405.248016 300.800537,403.094421 299.401428,400.886627 
	C297.194031,402.579742 293.906036,403.842255 293.021271,406.062469 
	C291.529327,409.806305 291.114227,414.148285 291.030884,418.254608 
	C290.702881,434.412598 290.683960,450.576813 290.539429,466.738617 
	C290.527557,468.066315 290.834503,469.598083 290.285431,470.673584 
	C289.418091,472.372375 287.950806,473.764862 286.737427,475.286987 
	C285.560730,473.677521 283.892395,472.219055 283.339142,470.418060 
	C282.728699,468.431061 283.126740,466.129913 283.110931,463.965424 
	C283.065918,457.800568 283.489349,451.581543 282.766693,445.498047 
	C282.487488,443.147888 279.619873,441.105225 277.931519,438.922455 
	C275.766663,440.627594 272.912445,441.935822 271.636139,444.152557 
	C270.425964,446.254517 270.631317,449.307556 270.622742,451.943634 
	C270.557190,472.106567 270.606903,492.269867 270.579529,512.432983 
	C270.575043,515.752319 270.879303,520.137329 266.343018,520.037048 
	C261.961487,519.940063 262.245514,515.616272 262.228180,512.267883 
	C262.141174,495.438873 262.118408,478.609222 261.937225,461.781281 
	C261.905426,458.823578 261.654419,455.733368 260.746185,452.952057 
	C259.438934,448.948975 255.658325,447.777740 252.380554,450.439819 
	C250.141510,452.258301 247.814636,454.766388 247.032272,457.411377 
	C245.495895,462.605469 244.331497,468.094666 244.209717,473.488770 
	C243.773529,492.810760 243.612305,512.145752 243.760574,531.472717 
	C244.044113,568.430115 241.770401,605.444275 246.010590,642.323486 
	C246.161484,643.635864 246.191254,645.012085 245.973282,646.307373 
	C245.353821,649.988403 244.642700,654.170410 239.786591,653.865662 
	C235.357346,653.587708 233.879440,650.037170 233.922775,645.954590 
	C233.952805,643.126465 234.150299,640.298584 234.329071,637.474060 
	C234.791748,630.164185 235.663010,622.858459 235.704239,615.547241 
	C235.935379,574.557739 235.987122,533.567139 236.019089,492.576904 
	C236.020737,490.467377 235.562088,488.250427 234.822403,486.268341 
	C232.934875,481.210266 228.328506,480.071411 224.728989,484.138489 
	C222.267807,486.919373 220.376419,490.444550 219.045242,493.946747 
	C210.125458,517.413269 205.089706,541.496216 207.907623,566.803528 
	C208.734207,574.226868 209.224152,581.710205 209.373840,589.175964 
	C209.438171,592.384827 207.988800,595.879944 204.020264,595.795715 
	C199.852692,595.707275 198.515320,592.281494 198.693756,588.694885 
	C198.941116,583.722473 199.798737,578.783936 200.217514,573.815918 
	C201.110519,563.221924 202.834412,552.529846 199.097198,542.178284 
	C198.265808,539.875488 195.701080,538.198425 193.934448,536.233276 
	C192.301666,538.464905 189.903122,540.473145 189.175125,542.968689 
	C186.672852,551.546692 184.670547,560.275635 182.657211,568.988525 
	C181.877228,572.364014 181.175140,575.845093 181.129868,579.287109 
	C180.969925,591.447632 181.581848,603.634705 181.001617,615.768677 
	C180.432251,627.675049 184.628296,637.028015 193.954620,643.961304 
	C205.964249,652.889465 218.091660,661.687378 230.528091,670.003296 
	C238.716461,675.478699 243.271576,682.262390 242.882370,692.331055 
	C242.599548,699.647949 242.947433,706.987915 242.960052,714.317688 
	C243.002502,738.966614 243.019928,763.615479 243.049347,788.264404 
	C243.052963,791.289978 242.556046,794.433777 238.925430,794.544495 
	C235.100357,794.661255 234.776978,791.397888 234.771378,788.426147 
	C234.760681,782.760681 235.011124,777.084839 234.736832,771.433533 
	C234.586334,768.333252 234.117477,765.036499 232.866333,762.242981 
	C229.622803,755.000916 220.475601,754.311829 216.618683,761.191162 
	C214.677994,764.652649 213.782425,769.007874 213.510712,773.032959 
	C212.950745,781.328979 213.126785,789.674744 213.000000,798.000000 
	C210.629440,798.000000 208.258896,798.000000 205.521805,797.536865 
	C205.153946,785.123535 204.984161,773.170288 205.196930,761.223816 
	C205.426956,748.306763 199.365952,739.544067 188.156998,733.828857 
	C179.401230,729.364441 173.953842,732.264404 173.159882,742.068298 
	C172.812561,746.356934 172.890076,750.679993 172.371216,754.987427 
	C167.703140,754.978210 168.938660,758.265320 169.213501,760.333557 
	C169.334290,761.242554 171.525162,761.876587 172.876785,763.054565 
	C172.984970,774.982422 172.992477,786.491211 173.000000,798.000000 
	C170.629440,798.000000 168.258896,798.000000 165.327942,797.676941 
	C164.833588,796.906250 164.899658,796.458557 165.199493,795.866211 
	C165.272354,795.142883 165.111465,794.564270 164.847076,793.527771 
	C164.818878,773.716492 164.894165,754.363037 165.203003,734.857788 
	C165.252625,734.125854 165.068710,733.545715 164.729630,732.597900 
	C164.149078,723.987671 162.126190,716.544373 155.283249,711.004517 
	C147.526993,704.725281 139.891159,698.283997 132.419006,691.669128 
	C91.121338,655.109436 59.220291,611.563904 35.795815,561.685242 
	C17.813997,523.395874 6.593626,483.287537 2.582952,441.162262 
	C2.447307,439.737518 1.544968,438.385773 1.000000,437.000000 
M491.085876,363.962097 
	C491.434540,364.527130 491.783234,365.092163 492.131897,365.657196 
	C492.376434,364.460358 492.621002,363.263550 493.095917,361.192719 
	C493.095917,358.406525 493.095917,355.620331 493.095917,352.834137 
	C492.469757,352.852875 491.843628,352.871613 491.217468,352.890381 
	C491.217468,356.274109 491.217468,359.657867 491.085876,363.962097 
M381.113495,369.131592 
	C380.706116,371.230591 379.965118,373.339630 380.027588,375.424530 
	C380.060364,376.518982 381.500549,377.571259 382.305176,378.642578 
	C383.076050,377.512024 384.526337,376.354004 384.481995,375.256378 
	C384.376892,372.653656 383.562927,370.079559 383.075226,366.712769 
	C383.471954,359.348175 383.868713,351.983551 384.265442,344.618958 
	C383.568604,344.594482 382.871796,344.569977 382.174988,344.545502 
	C380.045837,352.357544 381.218597,360.403229 381.113495,369.131592 
M431.013489,417.894928 
	C430.023468,427.292328 428.998657,436.686279 428.069885,446.089722 
	C427.859406,448.220581 427.363800,450.644562 428.127075,452.459320 
	C428.878845,454.246613 430.928833,456.310822 432.663727,456.573639 
	C433.829224,456.750214 436.111877,454.223389 436.674927,452.506134 
	C437.355865,450.429199 436.937286,447.907745 436.666748,445.617401 
	C435.500214,435.742249 434.213654,425.881226 433.243225,415.116150 
	C433.243225,411.111237 433.243225,407.106323 433.243225,403.101440 
	C432.539368,403.120239 431.835480,403.139038 431.131622,403.157837 
	C431.131622,407.782532 431.131622,412.407257 431.013489,417.894928 
M355.247101,424.631073 
	C354.873016,428.099365 354.061249,431.596710 354.288605,435.025116 
	C354.425507,437.089508 356.006561,440.619171 357.240204,440.755157 
	C360.847626,441.152863 360.945251,437.884430 360.869446,435.135315 
	C360.456726,420.165100 359.990723,405.196259 359.617462,390.225098 
	C359.495850,385.347717 359.598328,380.464752 359.598328,375.584320 
	C358.950195,375.528748 358.302094,375.473175 357.653961,375.417603 
	C357.273590,377.874390 356.641510,380.322327 356.554596,382.789459 
	C356.074158,396.426666 355.726593,410.068573 355.247101,424.631073 
M453.005188,315.535522 
	C452.752319,311.293610 452.499420,307.051666 452.246552,302.809753 
	C451.519257,302.803253 450.791931,302.796783 450.064636,302.790283 
	C449.738464,304.556305 449.147552,306.319336 449.127747,308.088776 
	C448.960144,323.072144 448.898590,338.056610 448.800842,353.040771 
	C448.769348,357.868988 448.588928,362.702576 448.783173,367.521393 
	C448.830811,368.704010 450.082550,369.838104 450.780762,370.994537 
	C451.703247,369.974457 452.828674,369.066681 453.477203,367.894958 
	C453.911926,367.109436 453.735443,365.948639 453.721527,364.957336 
	C453.494751,348.812622 453.250275,332.668121 453.005188,315.535522 
M357.955902,560.240173 
	C357.523987,554.274658 357.092041,548.309143 356.660126,542.343567 
	C356.201752,542.329224 355.743378,542.314819 355.285034,542.300415 
	C354.952087,543.462708 354.412842,544.608521 354.318512,545.789856 
	C353.474457,556.358337 352.727905,566.934570 351.908264,577.505066 
	C351.664276,580.651917 352.354797,583.660217 355.882843,583.714539 
	C359.666473,583.772766 359.999023,580.388123 359.762482,577.481140 
	C359.318878,572.029053 358.615692,566.598083 357.955902,560.240173 
M478.038544,240.977829 
	C477.880402,241.027695 477.704437,241.050018 477.570282,241.136948 
	C477.478333,241.196518 477.364136,241.399292 477.396179,241.447601 
	C481.183441,247.157532 484.781097,253.012268 488.910492,258.464172 
	C490.095276,260.028412 492.818634,260.427338 494.836548,261.360535 
	C495.024475,259.249847 496.099792,256.644440 495.246704,255.114059 
	C491.545898,248.475311 486.166504,243.468903 478.038544,240.977829 
M434.149597,632.204224 
	C434.042389,628.059387 433.935120,623.914551 433.827911,619.769714 
	C433.728973,615.943970 433.630066,612.118286 433.531158,608.292542 
	C432.843536,608.287231 432.155884,608.281921 431.468262,608.276611 
	C430.952728,619.615967 430.395599,630.953979 430.025177,642.298035 
	C430.002991,642.977478 431.546631,644.329224 432.229462,644.248596 
	C433.031219,644.153992 434.256317,642.868774 434.306061,642.040405 
	C434.483459,639.084534 434.240234,636.103394 434.149597,632.204224 
M442.540100,567.901489 
	C442.091400,574.020935 441.453644,580.135986 441.311249,586.262573 
	C441.269531,588.058228 442.634857,589.886658 443.355255,591.700073 
	C444.224182,589.850708 445.840240,587.993713 445.821503,586.153381 
	C445.765839,580.696533 445.064575,575.246277 444.618134,569.793213 
	C444.410797,567.260742 444.209106,564.727783 444.004852,562.195068 
	C443.641449,562.201172 443.278076,562.207275 442.914673,562.213379 
	C442.804291,563.812561 442.693909,565.411743 442.540100,567.901489 
M294.870026,351.040314 
	C296.116699,352.461670 297.363403,353.882996 298.610077,355.304352 
	C299.758362,353.738190 301.488739,352.311859 301.907074,350.570374 
	C302.426117,348.409271 302.128876,345.929993 301.655060,343.700623 
	C301.391571,342.461029 300.051575,341.450195 299.196777,340.336273 
	C298.071869,341.353394 296.405670,342.172058 295.943604,343.432220 
	C295.170288,345.541077 295.165497,347.931732 294.870026,351.040314 
M533.861511,381.500427 
	C533.711060,381.431763 533.560669,381.363129 533.410217,381.294464 
	C533.378296,381.420593 533.303833,381.552643 533.320557,381.671967 
	C533.889343,385.739227 534.229614,389.860901 535.164673,393.842865 
	C535.517029,395.343353 537.249573,396.519775 538.352905,397.843933 
	C538.888977,396.001984 540.336792,393.803162 539.782837,392.387817 
	C538.361206,388.755280 536.050720,385.470581 533.861511,381.500427 
M378.199432,405.898651 
	C378.190582,407.697357 377.935089,409.544067 378.272186,411.275391 
	C378.453003,412.204071 379.565002,413.458649 380.418182,413.601379 
	C381.214386,413.734558 382.510834,412.792419 383.086426,411.972290 
	C384.854370,409.453156 383.478729,402.406494 380.427765,399.649872 
	C379.685181,401.613861 379.028656,403.350250 378.199432,405.898651 
M494.584290,383.188293 
	C493.858124,377.569824 493.131989,371.951385 492.405853,366.332916 
	C490.897369,372.007690 490.361664,377.718567 490.159485,383.441223 
	C490.118103,384.612457 491.326813,385.827881 491.959259,387.022919 
	C492.824890,386.014893 493.690491,385.006866 494.584290,383.188293 
M381.984985,334.457397 
	C381.984985,336.765198 381.984985,339.072968 381.984985,341.380768 
	C382.686127,341.337921 383.387299,341.295044 384.088440,341.252197 
	C383.835999,336.195496 383.583557,331.138794 383.331146,326.082092 
	C382.882141,326.099243 382.433136,326.116394 381.984131,326.133545 
	C381.984131,328.600220 381.984131,331.066895 381.984985,334.457397 
z"/>
<path fill="#FDFDFD" opacity="1.000000" stroke="none" 
	d="
M374.564636,337.029083 
	C374.468018,340.848145 374.757050,344.732086 374.129089,348.461700 
	C373.757050,350.671173 371.937531,352.636902 370.768860,354.712250 
	C369.837036,352.644012 368.105896,350.579895 368.095245,348.506958 
	C367.969757,324.014557 368.101593,299.520844 368.165436,275.027496 
	C368.168060,274.027710 368.198517,273.026855 368.163483,272.028320 
	C368.044617,268.640350 369.124634,264.013519 364.661407,263.287811 
	C360.410309,262.596649 359.385590,267.232391 358.163208,270.351990 
	C354.123749,280.660736 351.877136,291.367798 351.862213,302.486542 
	C351.827789,328.142090 351.801270,353.797638 351.768646,379.453186 
	C351.767609,380.285553 351.998138,381.248840 351.662231,381.922516 
	C350.992432,383.265991 350.003632,384.450409 349.146576,385.700531 
	C348.129913,384.408936 346.520233,383.237030 346.229980,381.798828 
	C345.745483,379.398163 346.110046,376.827240 346.108124,374.327972 
	C346.088013,348.001556 345.704102,321.667816 346.236206,295.352600 
	C346.428802,285.826355 348.803986,276.343170 350.207092,266.843842 
	C350.400116,265.536957 350.984406,264.243317 350.947845,262.956024 
	C350.862732,259.958710 348.919861,258.805267 346.686707,260.579926 
	C344.433044,262.370880 341.970551,264.817596 341.239960,267.434937 
	C339.021057,275.383942 336.998199,283.484467 336.041687,291.659668 
	C335.215485,298.720795 336.106628,305.969757 335.881165,313.124390 
	C335.830536,314.731659 334.293152,316.292053 333.440186,317.873993 
	C332.701141,316.259979 331.313904,314.640442 331.327606,313.032837 
	C331.421417,302.044830 331.575867,291.046875 332.162933,280.076294 
	C332.859772,267.054474 339.071411,256.301910 347.048767,246.414612 
	C348.928802,244.084488 351.074341,241.929184 352.656586,239.415710 
	C353.384125,238.259964 353.707520,235.864365 353.016693,235.062317 
	C352.235168,234.154861 349.785919,233.727509 348.630585,234.280228 
	C345.366852,235.841614 342.152863,237.714813 339.350281,239.994904 
	C329.453552,248.046677 321.022797,257.369598 315.531158,269.063904 
	C311.806305,276.995972 311.423187,285.436829 311.700989,293.987579 
	C311.782074,296.483612 312.091827,299.058228 311.597900,301.452667 
	C311.327759,302.762299 309.596619,303.770569 308.524323,304.914734 
	C307.604187,303.758606 305.833679,302.556763 305.893036,301.453278 
	C306.641113,287.536804 306.972992,273.542816 308.832245,259.760254 
	C310.112427,250.270081 316.720215,243.489471 324.903778,238.517105 
	C327.886444,236.704834 330.885040,234.885925 333.660065,232.784470 
	C334.503967,232.145401 334.624542,230.551163 335.076416,229.394394 
	C333.905121,229.037857 332.612000,228.160156 331.580475,228.401352 
	C308.410370,233.818832 292.759949,242.670364 287.138947,269.347107 
	C286.080780,274.369141 285.167572,279.590088 285.353180,284.676697 
	C286.169250,307.040344 278.339539,327.514252 272.222626,348.408234 
	C268.103882,362.476990 260.835297,374.498596 250.822372,385.130005 
	C239.596832,397.048950 232.244080,411.376526 225.936646,426.365570 
	C219.758347,441.047729 211.282806,454.299896 200.297974,465.981720 
	C189.533936,477.428711 175.410095,480.844421 160.849030,483.084625 
	C155.151108,483.961243 150.820618,485.189178 147.387527,490.672455 
	C145.168625,494.216370 139.883698,495.775696 136.141678,498.459900 
	C134.418091,499.696167 133.099335,501.496857 131.597031,503.041656 
	C133.399506,504.376923 135.019653,506.343262 137.039322,506.926819 
	C142.650833,508.548248 147.392975,506.034241 151.837173,502.811981 
	C154.441376,500.923798 156.935013,497.642914 160.588165,500.179718 
	C164.299271,502.756775 163.885635,506.738983 162.943893,510.612427 
	C161.460754,516.712646 157.497330,521.061218 153.099335,525.287476 
	C146.630142,531.504211 140.406052,537.986145 134.276443,544.541077 
	C131.874603,547.109558 130.351501,550.611511 133.764069,553.270874 
	C137.200760,555.949036 139.767151,553.320740 142.144699,550.652649 
	C147.239029,544.935974 152.394211,539.259644 157.815155,533.858521 
	C159.054276,532.624023 161.471085,532.571472 163.345840,531.974915 
	C163.239349,533.964233 163.766495,536.288391 162.921387,537.887329 
	C158.178360,546.861206 153.069244,555.640747 148.165588,564.531006 
	C146.727859,567.137634 144.794983,570.152771 148.435959,572.375122 
	C152.099823,574.611450 154.632889,571.922913 156.205109,569.178772 
	C161.411789,560.091125 166.130371,550.722290 171.398438,541.672241 
	C172.988632,538.940430 176.674255,534.523865 177.819366,534.966675 
	C181.690765,536.463745 179.900848,540.506836 179.251724,543.682373 
	C177.585632,551.833252 175.099548,559.902588 174.346634,568.133057 
	C173.320129,579.354370 173.586411,590.694763 173.324326,601.984619 
	C173.266342,604.482239 173.643768,607.040222 173.214401,609.463013 
	C172.867096,611.422791 171.983078,614.372681 170.660294,614.802917 
	C168.958786,615.356506 165.885406,614.476746 164.606659,613.098022 
	C155.787155,603.589050 146.792847,594.175110 138.763733,584.012390 
	C111.407135,549.386292 94.142220,509.851807 85.954979,466.775848 
	C64.294449,352.812103 94.323044,253.539398 175.127716,170.747467 
	C222.880020,121.820808 282.313019,93.214798 349.512329,80.957275 
	C360.132782,79.020042 370.922729,77.976753 381.656342,76.706619 
	C389.802307,75.742699 393.947815,72.230217 394.132843,63.946754 
	C394.523224,46.466194 394.531769,28.968050 394.173401,11.487853 
	C394.105713,8.184676 391.611359,4.931245 390.118347,1.327430 
	C395.688049,1.000000 401.376068,1.000000 407.532043,1.000000 
	C404.855988,5.402537 404.435394,10.440938 404.485382,15.627522 
	C404.639343,31.616102 404.545502,47.609962 404.938629,63.592163 
	C405.144745,71.971077 408.777924,75.224289 417.140594,76.539413 
	C437.182281,79.691200 457.628937,81.377838 477.143005,86.554916 
	C524.934021,99.233864 567.846985,122.062202 605.834473,153.823822 
	C647.033447,188.270630 677.054626,230.933594 697.917542,280.225525 
	C712.890564,315.601807 720.071350,352.537842 721.575317,390.908325 
	C723.872009,449.502930 710.683777,504.166046 681.869385,555.051514 
	C668.614075,578.460144 652.594788,599.920166 633.193848,618.684265 
	C631.076233,620.732361 628.106384,621.899292 625.531738,623.474976 
	C624.667297,620.461182 623.118958,617.461243 623.057251,614.431030 
	C622.796265,601.605408 623.634216,588.726929 622.782837,575.953613 
	C622.134583,566.229370 619.527344,556.637756 617.834167,546.979736 
	C617.375122,544.360718 616.832886,541.717773 616.797424,539.079590 
	C616.780151,537.791992 617.839966,536.489929 618.412231,535.194397 
	C619.821228,535.833313 621.897217,536.091125 622.519165,537.179688 
	C624.736755,541.061462 626.292053,545.315735 628.408081,549.262756 
	C632.099609,556.148254 635.909302,562.977112 639.908691,569.687134 
	C641.256836,571.948975 643.279663,574.321045 646.422607,572.350708 
	C649.415894,570.474182 649.239502,567.706482 647.683960,564.905090 
	C643.886536,558.066223 640.036804,551.256287 636.265442,544.403137 
	C634.984070,542.074646 633.511108,539.752014 632.816895,537.235901 
	C632.372314,535.624878 633.192993,533.664795 633.446472,531.861145 
	C635.061340,532.382507 637.160583,532.430603 638.209900,533.504517 
	C643.676025,539.099121 648.916077,544.917847 654.147278,550.737244 
	C656.311462,553.144714 658.345886,556.192566 661.899841,553.242249 
	C665.230713,550.477234 664.123413,547.151306 661.693970,544.445923 
	C656.692200,538.876038 651.351562,533.609680 646.368774,528.023621 
	C642.623718,523.825073 639.052002,519.444031 635.752136,514.891235 
	C634.557190,513.242554 633.638184,510.758240 633.901367,508.834137 
	C634.318420,505.785248 635.364319,502.522461 637.190674,500.158875 
	C637.702393,499.496613 641.922363,501.572327 644.371460,502.564453 
	C648.026428,504.045044 651.502808,506.335327 655.281616,507.007111 
	C657.647217,507.427734 660.748352,505.982697 662.930847,504.505219 
	C665.002014,503.103058 665.037170,500.591797 662.203430,499.450928 
	C655.220581,496.639618 649.433655,492.565369 645.276794,486.053925 
	C644.280823,484.493927 641.309326,483.597412 639.174927,483.453156 
	C614.356567,481.775818 596.076965,469.685730 583.911743,448.394073 
	C578.394470,438.737579 573.557129,428.640717 569.105957,418.440491 
	C563.797485,406.276093 557.852600,394.472290 548.476135,385.053284 
	C532.969299,369.476044 526.497192,349.730988 520.935547,329.355103 
	C516.919739,314.642517 514.929504,299.746185 514.739197,284.476837 
	C514.588928,272.418396 512.654236,260.554718 505.539093,250.254639 
	C495.918915,236.328217 481.496948,231.420914 465.666656,229.586731 
	C461.006622,229.046783 458.890961,231.875885 458.870697,236.748856 
	C458.838531,244.483719 462.797089,250.759048 466.342041,257.141785 
	C468.370117,260.793335 469.758545,263.611237 465.235443,266.858795 
	C463.617828,268.020233 463.526703,271.997437 463.602173,274.665009 
	C463.714447,278.633850 464.893036,282.573334 464.995148,286.541321 
	C465.034729,288.079895 463.377563,289.662170 462.493378,291.224548 
	C461.423615,289.766846 459.624084,288.409424 459.407654,286.834473 
	C458.347687,279.120483 458.263824,271.235474 456.714081,263.639587 
	C455.784210,259.081879 453.427734,254.437851 450.506012,250.802094 
	C448.682922,248.533508 444.436859,246.742264 441.591553,247.116928 
	C437.543060,247.650040 437.356628,252.083908 437.390778,255.671265 
	C437.558868,273.331757 437.770294,290.991882 437.959106,308.652191 
	C437.982269,310.818329 438.408966,313.117493 437.818665,315.109009 
	C437.352692,316.681061 435.610748,317.874939 434.435516,319.236786 
	C433.581848,317.791565 432.021271,316.361572 431.989777,314.898651 
	C431.792603,305.739258 432.309540,296.553223 431.836334,287.415039 
	C431.521149,281.328644 430.409790,275.175446 428.716980,269.323425 
	C428.070221,267.087708 424.809998,265.607941 422.740784,263.783691 
	C421.450775,266.021515 419.129822,268.218781 419.039978,270.503754 
	C418.503418,284.150726 418.512726,297.818542 418.251862,311.477661 
	C418.213898,313.464325 417.709198,315.442078 417.420441,317.423920 
	C416.716431,317.494751 416.012421,317.565552 415.308380,317.636353 
	C414.789673,315.683716 413.829773,313.732697 413.822754,311.778229 
	C413.771240,297.449371 413.963867,283.119720 413.941406,268.790558 
	C413.937286,266.164551 413.748138,263.362579 412.799194,260.978180 
	C412.198181,259.468079 409.982391,257.613312 408.581726,257.685120 
	C407.167206,257.757660 405.388336,259.793243 404.642487,261.379517 
	C403.838531,263.089355 403.849243,265.275085 403.843781,267.254150 
	C403.656921,335.083130 403.441223,402.912292 403.431793,470.741394 
	C403.430359,481.051178 404.547607,491.357391 404.828674,501.673950 
	C404.886078,503.781525 404.152130,506.766846 402.674530,507.892181 
	C398.935852,510.739532 396.684967,508.032745 395.026123,503.883789 
	C394.833649,501.087341 394.763031,499.034882 394.692444,496.982391 
	C394.834412,494.939514 394.976379,492.896606 395.264404,490.150696 
	C395.435394,488.289001 395.460327,487.130310 395.485229,485.971619 
	C395.727539,474.379608 396.110748,462.788422 396.177063,451.195404 
	C396.263397,436.105438 396.098175,421.014069 396.043579,405.009460 
	C395.953796,393.726105 395.861664,383.356506 395.769531,372.986938 
	C395.831360,369.627594 395.893219,366.268219 395.968872,362.053345 
	C395.900391,359.793365 395.818115,358.388885 395.735840,356.984436 
	C395.796570,356.237640 395.857300,355.490845 395.928894,354.010712 
	C395.868225,352.512695 395.796661,351.748047 395.725067,350.983368 
	C395.790131,350.543091 395.855225,350.102783 395.936554,348.945801 
	C395.875732,347.147125 395.798676,346.065186 395.721588,344.983215 
	C395.775330,343.273376 395.829041,341.563538 395.896729,339.103516 
	C395.835968,337.896088 395.761322,337.438782 395.686676,336.981506 
	C395.746643,336.541809 395.806610,336.102142 395.875000,334.883606 
	C395.822449,327.730560 395.761505,321.356354 395.700531,314.982147 
	C395.627197,310.499878 395.810883,305.993378 395.391083,301.543762 
	C395.106506,298.527161 393.973389,295.233002 390.017334,295.662109 
	C386.463593,296.047638 385.964081,299.116882 385.939728,302.108887 
	C385.909912,305.771179 385.927368,309.433807 385.820099,313.771118 
	C385.243073,314.992065 384.770325,315.538177 384.297607,316.084290 
	C380.388519,315.806183 381.438568,312.752411 381.434387,310.584717 
	C381.405670,295.699554 381.507324,280.814087 381.594604,265.082397 
	C381.508850,262.812744 381.395508,261.389496 381.282196,259.966217 
	C381.378510,258.908142 381.474854,257.850067 381.596558,256.046631 
	C381.504791,254.523132 381.387665,253.744949 381.270569,252.966782 
	C381.329285,251.668228 381.767670,250.228775 381.351135,249.106613 
	C380.823761,247.685715 379.601135,246.522842 378.678406,245.248718 
	C377.419556,246.259399 376.160706,247.270081 374.782654,249.009689 
	C374.611755,260.379700 374.526733,271.020752 374.517792,281.661865 
	C374.508728,292.451721 374.574829,303.241638 374.608032,314.031525 
	C374.498871,320.711853 374.389709,327.392151 374.275391,334.856079 
	C374.368347,336.102783 374.466461,336.565948 374.564636,337.029083 
M412.178436,137.499786 
	C412.232788,161.471634 412.185944,185.444458 412.420380,209.414536 
	C412.472015,214.694702 412.926575,220.128860 414.317535,225.183334 
	C415.269775,228.643539 417.871368,231.832916 420.346619,234.595978 
	C421.267120,235.623505 424.268921,235.769440 425.682861,235.054382 
	C426.772522,234.503311 427.563477,231.836014 427.263275,230.358292 
	C426.473450,226.470016 424.888947,222.750351 423.888306,218.894150 
	C423.498383,217.391556 423.824554,215.703156 423.824554,214.099380 
	C426.114716,215.311432 427.357391,216.791840 428.399109,218.402267 
	C431.017090,222.449524 433.204529,226.831253 436.220337,230.546570 
	C438.441986,233.283493 441.468811,235.632385 444.607880,237.226944 
	C445.845245,237.855515 449.249023,236.514938 450.115631,235.112701 
	C452.082672,231.929886 448.689117,221.911789 445.549255,219.770218 
	C432.796631,211.072113 425.957794,188.639801 431.645325,174.163147 
	C433.499237,169.444229 434.753754,169.170792 439.374390,171.595978 
	C440.632568,172.256363 443.005585,172.313004 444.074982,171.544571 
	C448.278809,168.524017 449.162872,155.638977 444.958130,152.863800 
	C441.665558,150.690689 441.668549,148.095520 441.826447,145.279678 
	C442.445892,134.233673 439.223572,124.272896 433.768555,114.879448 
	C428.440857,105.705284 421.817566,97.981735 410.844635,95.600609 
	C408.922089,95.183418 406.772278,95.813301 404.727448,95.959610 
	C404.897125,98.005203 404.678223,100.188965 405.343018,102.058510 
	C406.042358,104.025284 407.870422,105.570831 408.698456,107.516159 
	C410.079590,110.760963 411.763733,114.118141 412.051117,117.534760 
	C412.579407,123.815514 412.185455,130.173828 412.178436,137.499786 
M384.596436,106.540977 
	C384.884491,109.691933 386.792267,109.305046 388.215942,107.751572 
	C390.101105,105.694496 391.773834,103.304230 392.972473,100.787857 
	C394.948151,96.640152 393.413361,94.608879 388.891754,95.561394 
	C381.067017,97.209724 374.053680,100.466499 369.532990,107.546974 
	C361.806854,119.647926 355.824005,132.299118 356.888641,147.232880 
	C356.995117,148.726440 356.756165,150.838821 355.804108,151.716125 
	C350.111694,156.961441 349.200470,164.722168 353.915100,170.361740 
	C355.693695,172.489243 357.286285,173.546219 360.192444,171.566864 
	C364.444489,168.670883 367.228821,169.889236 367.602814,175.107361 
	C368.147522,182.707306 368.492554,190.432602 367.737885,197.986099 
	C366.824524,207.128159 362.819214,214.910187 353.845001,219.067230 
	C352.486481,219.696518 351.109436,220.285736 349.740936,220.893478 
	C350.285675,221.902008 350.830444,222.910538 351.375183,223.919067 
	C354.230804,223.664001 357.367828,224.088196 359.895416,223.041214 
	C373.984314,217.205383 375.487946,204.440918 376.629303,191.405289 
	C377.512512,193.339691 378.096252,195.168610 378.165253,197.016739 
	C378.363770,202.333359 378.233734,207.664154 378.515839,212.974335 
	C378.581909,214.218079 379.766510,215.402374 380.436493,216.614014 
	C381.591492,215.805954 383.340118,215.233612 383.774567,214.139420 
	C384.609314,212.037262 385.027130,209.642166 385.046722,207.363647 
	C385.224030,186.714157 385.290161,166.063675 385.360718,145.413361 
	C385.384613,138.420120 385.408539,131.424637 385.237305,124.434967 
	C385.205139,123.121346 384.534637,121.066116 383.641815,120.731239 
	C382.629669,120.351624 380.563171,121.138313 379.786407,122.093796 
	C377.712860,124.644249 376.093994,127.562950 374.276672,130.323593 
	C373.107208,132.100037 371.906219,133.855759 370.153442,136.462418 
	C365.909302,125.257156 377.061646,120.845200 378.262482,112.695366 
	C376.420868,112.461876 374.960938,112.276772 372.937286,112.020203 
	C375.919342,107.623505 379.215271,105.360474 384.596436,106.540977 
z"/>
<path fill="#FDFDFD" opacity="1.000000" stroke="none" 
	d="
M428.468658,798.000000 
	C432.728912,797.334167 437.447052,796.575012 442.189850,796.029907 
	C446.582642,795.524963 451.001770,795.249084 455.786865,794.840088 
	C460.131744,779.404846 461.777344,763.609619 461.073761,747.618591 
	C460.437714,733.161560 458.643188,718.741455 458.366577,704.285828 
	C457.907623,680.305115 462.861969,657.015747 468.361877,633.773865 
	C478.959473,588.989929 482.396729,543.560852 476.952393,497.827057 
	C473.868652,471.922852 468.917755,446.233246 464.514587,420.497131 
	C462.399719,408.136108 463.174255,395.959564 465.233704,383.739319 
	C466.503998,376.201355 467.336975,368.565033 469.110229,361.150818 
	C469.679504,358.770599 472.626953,356.959167 474.486359,354.887512 
	C476.265076,357.012482 479.086670,358.914948 479.597656,361.310364 
	C480.555817,365.802063 480.306152,370.578430 480.327545,375.237427 
	C480.374207,385.402374 480.119171,395.571014 480.313293,405.731903 
	C480.391663,409.833771 481.517456,413.904816 481.823975,418.015442 
	C482.416595,425.964294 482.864532,433.927399 483.181335,441.892181 
	C483.386444,447.049438 483.118744,452.225464 483.322479,457.382843 
	C483.439087,460.334106 483.561066,464.132233 487.721039,463.867981 
	C491.403595,463.634003 491.380554,460.124969 491.374084,457.251587 
	C491.342712,443.253021 491.216583,429.254395 491.263031,415.256226 
	C491.271759,412.626740 491.540009,409.867126 492.406219,407.421814 
	C492.906860,406.008575 494.773987,404.312561 496.152252,404.192535 
	C497.532318,404.072388 499.958160,405.458893 500.372467,406.702423 
	C501.661957,410.572662 502.905609,414.681976 502.942200,418.709686 
	C503.185913,445.538116 503.127045,472.369446 503.135620,499.199829 
	C503.152435,551.860596 503.149139,604.521423 503.153229,657.182190 
	C503.153259,657.515320 503.011780,657.922119 503.153748,658.170166 
	C504.424774,660.391357 505.744629,662.584534 507.050110,664.786011 
	C508.075928,662.604614 509.988892,660.426025 509.995636,658.241455 
	C510.111633,620.745605 509.957245,583.248962 509.935089,545.752502 
	C509.915680,512.925354 509.980286,480.098175 510.035553,447.271057 
	C510.038635,445.447388 510.217773,443.614075 510.450928,441.802765 
	C510.977234,437.714539 512.691101,434.401855 517.021301,433.344604 
	C521.396545,432.276428 524.394653,434.742889 526.818176,437.887939 
	C531.431091,443.874023 533.820435,450.802521 534.062622,458.283783 
	C534.509949,472.102722 534.698181,485.931610 534.854858,499.757935 
	C535.002136,512.755432 534.989685,525.755005 534.999878,538.753662 
	C535.002197,541.681885 534.901123,545.317139 538.537231,545.351562 
	C542.559143,545.389587 542.401367,541.525635 542.397766,538.493408 
	C542.373962,518.329285 542.312439,498.165161 542.308899,478.001038 
	C542.308472,475.508972 542.158203,472.890472 542.857544,470.565216 
	C543.405151,468.744354 545.082214,466.038116 546.397217,465.955750 
	C548.451111,465.827087 551.958130,467.102966 552.509583,468.629211 
	C554.673218,474.617432 557.106384,480.901947 557.289185,487.139435 
	C557.869751,506.952454 557.516418,526.793823 557.463562,546.624146 
	C557.410278,566.613220 557.371460,586.603149 557.135620,606.590454 
	C557.068909,612.240845 556.328491,617.882996 555.908691,623.529785 
	C555.822449,624.691040 555.693176,625.860596 555.747864,627.018616 
	C555.937622,631.032898 557.419739,634.323364 561.759094,635.026672 
	C564.778442,635.515930 567.691895,631.637573 567.464355,626.989014 
	C567.082092,619.180298 565.756653,611.399597 565.670166,603.597778 
	C565.286072,568.944641 565.133728,534.288269 565.093262,499.632843 
	C565.088196,495.267059 565.103149,489.799225 570.920410,488.858521 
	C576.903198,487.891052 578.055176,493.483093 579.571472,497.430695 
	C587.773682,518.783813 590.123291,540.973083 588.364441,563.679810 
	C587.875916,569.986694 587.400818,576.294556 586.922363,582.602173 
	C586.884583,583.100220 586.844482,583.600159 586.847595,584.098938 
	C586.880371,589.314880 589.589050,593.103577 593.077698,592.826172 
	C596.287720,592.570923 598.367554,588.723755 597.904236,583.663757 
	C597.009644,573.891174 595.578613,564.137207 595.314941,554.350037 
	C595.180054,549.342957 596.827820,544.206604 598.232178,539.289246 
	C598.647766,537.833923 601.009521,535.981079 602.424866,536.026123 
	C603.912598,536.073425 606.281311,537.948792 606.636841,539.419006 
	C609.636902,551.827148 613.644287,564.214172 614.660767,576.824280 
	C615.994995,593.376831 614.823242,610.126648 614.858521,626.791382 
	C614.870239,632.321716 613.197815,637.110168 608.814758,640.426514 
	C595.041931,650.847412 581.313965,661.349915 567.158691,671.233765 
	C560.061890,676.189087 556.342102,682.318909 556.327271,690.780823 
	C556.283325,715.776733 556.311523,740.772827 556.311523,766.129211 
	C560.961304,765.066772 565.107300,764.002930 567.700928,759.294861 
	C569.953003,755.206726 573.540894,753.025574 578.573242,755.448730 
	C579.476440,755.883606 581.164551,755.527344 582.093811,754.924927 
	C586.265747,752.220215 590.263184,749.248291 594.383667,746.461670 
	C598.651611,743.575500 602.899292,740.643066 607.309570,737.986084 
	C650.303223,712.084167 686.964661,679.021912 717.644653,639.428284 
	C747.460754,600.949524 770.014221,558.496033 783.419006,511.614441 
	C788.472412,493.940582 791.525879,475.663177 794.878113,457.547485 
	C796.658020,447.928680 797.126221,438.067139 798.593262,428.157593 
	C799.000000,551.260498 799.000000,674.520996 799.000000,798.000000 
	C675.645874,798.000000 552.291565,798.000000 428.468658,798.000000 
M486.145233,759.499390 
	C486.145233,769.253357 486.145233,779.007385 486.145233,789.208679 
	C488.953918,788.507751 491.035980,787.988159 493.135651,787.464233 
	C493.135651,749.314819 493.146606,711.518677 493.131134,673.722595 
	C493.123352,654.739624 493.035522,635.756592 493.069519,616.773743 
	C493.074341,614.076965 492.915009,611.095520 489.745239,611.372803 
	C488.385040,611.491760 487.273010,614.830505 486.133423,616.756653 
	C485.912476,617.130188 486.078979,617.737427 486.079407,618.236816 
	C486.121399,664.991455 486.164642,711.746155 486.145233,759.499390 
M519.097900,757.485291 
	C519.126648,761.482056 518.769714,765.537720 519.367310,769.447510 
	C519.618591,771.091003 521.888000,772.425903 523.239929,773.901123 
	C524.523315,772.413452 525.965942,771.028015 527.016663,769.390991 
	C527.478149,768.671997 527.163452,767.440369 527.162903,766.441467 
	C527.149963,743.615967 527.133850,720.790466 527.109070,697.964966 
	C527.107666,696.633118 527.485474,695.021179 526.880066,694.034729 
	C525.954834,692.527466 524.335083,690.484070 522.993164,690.471313 
	C521.704651,690.459167 519.897888,692.527954 519.232910,694.075195 
	C518.562622,695.634888 518.980591,697.677917 518.983582,699.509033 
	C519.014465,718.502808 519.057861,737.496521 519.097900,757.485291 
M525.054871,495.894562 
	C523.896851,494.191803 522.738770,492.489014 521.580750,490.786255 
	C520.698914,492.548035 519.205566,494.260223 519.057922,496.081543 
	C518.711060,500.358917 518.753357,504.714722 519.193726,508.981445 
	C519.331787,510.318390 521.242859,511.472351 522.342346,512.710083 
	C523.294373,511.387207 524.947021,510.123718 525.065063,508.730194 
	C525.399353,504.785400 525.105347,500.787354 525.054871,495.894562 
M541.914246,592.758484 
	C540.745605,591.859924 539.576965,590.961426 538.408264,590.062927 
	C537.559326,591.335693 536.194336,592.525146 535.972778,593.899048 
	C535.558533,596.467468 535.419006,599.222412 535.934875,601.742188 
	C536.219360,603.131714 538.067627,604.201233 539.210876,605.414978 
	C540.192322,604.250061 541.833862,603.180481 542.018738,601.900513 
	C542.412415,599.175781 542.049500,596.341736 541.914246,592.758484 
z"/>
<path fill="#FBFBFB" opacity="1.000000" stroke="none" 
	d="
M213.468658,798.000000 
	C213.126785,789.674744 212.950745,781.328979 213.510712,773.032959 
	C213.782425,769.007874 214.677994,764.652649 216.618683,761.191162 
	C220.475601,754.311829 229.622803,755.000916 232.866333,762.242981 
	C234.117477,765.036499 234.586334,768.333252 234.736832,771.433533 
	C235.011124,777.084839 234.760681,782.760681 234.771378,788.426147 
	C234.776978,791.397888 235.100357,794.661255 238.925430,794.544495 
	C242.556046,794.433777 243.052963,791.289978 243.049347,788.264404 
	C243.019928,763.615479 243.002502,738.966614 242.960052,714.317688 
	C242.947433,706.987915 242.599548,699.647949 242.882370,692.331055 
	C243.271576,682.262390 238.716461,675.478699 230.528091,670.003296 
	C218.091660,661.687378 205.964249,652.889465 193.954620,643.961304 
	C184.628296,637.028015 180.432251,627.675049 181.001617,615.768677 
	C181.581848,603.634705 180.969925,591.447632 181.129868,579.287109 
	C181.175140,575.845093 181.877228,572.364014 182.657211,568.988525 
	C184.670547,560.275635 186.672852,551.546692 189.175125,542.968689 
	C189.903122,540.473145 192.301666,538.464905 193.934448,536.233276 
	C195.701080,538.198425 198.265808,539.875488 199.097198,542.178284 
	C202.834412,552.529846 201.110519,563.221924 200.217514,573.815918 
	C199.798737,578.783936 198.941116,583.722473 198.693756,588.694885 
	C198.515320,592.281494 199.852692,595.707275 204.020264,595.795715 
	C207.988800,595.879944 209.438171,592.384827 209.373840,589.175964 
	C209.224152,581.710205 208.734207,574.226868 207.907623,566.803528 
	C205.089706,541.496216 210.125458,517.413269 219.045242,493.946747 
	C220.376419,490.444550 222.267807,486.919373 224.728989,484.138489 
	C228.328506,480.071411 232.934875,481.210266 234.822403,486.268341 
	C235.562088,488.250427 236.020737,490.467377 236.019089,492.576904 
	C235.987122,533.567139 235.935379,574.557739 235.704239,615.547241 
	C235.663010,622.858459 234.791748,630.164185 234.329071,637.474060 
	C234.150299,640.298584 233.952805,643.126465 233.922775,645.954590 
	C233.879440,650.037170 235.357346,653.587708 239.786591,653.865662 
	C244.642700,654.170410 245.353821,649.988403 245.973282,646.307373 
	C246.191254,645.012085 246.161484,643.635864 246.010590,642.323486 
	C241.770401,605.444275 244.044113,568.430115 243.760574,531.472717 
	C243.612305,512.145752 243.773529,492.810760 244.209717,473.488770 
	C244.331497,468.094666 245.495895,462.605469 247.032272,457.411377 
	C247.814636,454.766388 250.141510,452.258301 252.380554,450.439819 
	C255.658325,447.777740 259.438934,448.948975 260.746185,452.952057 
	C261.654419,455.733368 261.905426,458.823578 261.937225,461.781281 
	C262.118408,478.609222 262.141174,495.438873 262.228180,512.267883 
	C262.245514,515.616272 261.961487,519.940063 266.343018,520.037048 
	C270.879303,520.137329 270.575043,515.752319 270.579529,512.432983 
	C270.606903,492.269867 270.557190,472.106567 270.622742,451.943634 
	C270.631317,449.307556 270.425964,446.254517 271.636139,444.152557 
	C272.912445,441.935822 275.766663,440.627594 277.931519,438.922455 
	C279.619873,441.105225 282.487488,443.147888 282.766693,445.498047 
	C283.489349,451.581543 283.065918,457.800568 283.110931,463.965424 
	C283.126740,466.129913 282.728699,468.431061 283.339142,470.418060 
	C283.892395,472.219055 285.560730,473.677521 286.737427,475.286987 
	C287.950806,473.764862 289.418091,472.372375 290.285431,470.673584 
	C290.834503,469.598083 290.527557,468.066315 290.539429,466.738617 
	C290.683960,450.576813 290.702881,434.412598 291.030884,418.254608 
	C291.114227,414.148285 291.529327,409.806305 293.021271,406.062469 
	C293.906036,403.842255 297.194031,402.579742 299.401428,400.886627 
	C300.800537,403.094421 303.293335,405.248016 303.405975,407.519592 
	C303.850800,416.492310 303.540222,425.502014 303.525635,434.498016 
	C303.409241,506.310455 303.310272,578.122925 303.172455,649.935364 
	C303.139526,667.098206 302.980408,684.260864 302.880341,701.423584 
	C302.873535,702.589905 302.458893,703.998108 302.964874,704.869324 
	C303.858795,706.408630 305.315796,707.620850 306.537109,708.969971 
	C307.593109,707.646057 309.383087,706.411133 309.556671,704.980164 
	C309.953644,701.707886 309.495514,698.339661 309.497620,695.010498 
	C309.538452,630.362061 309.604065,565.713623 309.642761,501.065216 
	C309.651550,486.401855 309.580536,471.738434 309.541718,457.075043 
	C309.525360,450.892639 310.997467,445.500732 315.440247,440.660675 
	C317.354858,438.574860 317.745514,434.529938 317.776520,431.364716 
	C318.004700,408.037323 317.947052,384.707245 318.037598,361.378235 
	C318.049194,358.390350 318.128296,355.355042 318.660156,352.429657 
	C319.250854,349.180725 319.994934,345.324341 324.323303,345.376434 
	C328.513977,345.426819 329.550903,349.028687 330.064453,352.418213 
	C330.687256,356.528412 330.899506,360.699341 331.461395,364.820557 
	C332.473328,372.242584 333.598663,379.649292 334.702820,387.058533 
	C337.016785,402.585754 336.051758,417.900543 332.136078,433.105011 
	C325.340393,459.492554 322.338745,486.437531 320.712494,513.567749 
	C318.451660,551.284485 319.633575,588.778870 327.985260,625.809753 
	C331.279633,640.416809 335.051117,654.939270 337.702393,669.662842 
	C341.507080,690.792114 340.562561,712.168762 338.601135,733.401550 
	C336.608459,754.972900 337.223602,776.225830 342.966339,797.602966 
	C330.312439,798.000000 317.624878,798.000000 304.485229,797.531616 
	C304.051056,775.754272 304.073792,754.445374 304.081024,733.136475 
	C304.081970,730.341980 303.678406,727.124329 300.243805,727.499512 
	C298.905548,727.645691 296.957886,731.126099 296.942413,733.100769 
	C296.772980,754.732422 296.930969,776.366516 297.000000,798.000000 
	C269.312439,798.000000 241.624878,798.000000 213.468658,798.000000 
M287.667053,643.500122 
	C287.566895,633.341187 287.642944,623.174500 287.195404,613.030884 
	C287.119629,611.313416 284.791321,609.695374 283.503754,608.031372 
	C282.282776,609.752319 280.868500,611.374939 279.922668,613.235657 
	C279.451324,614.162781 279.838379,615.526001 279.836304,616.691956 
	C279.802734,635.512268 279.764191,654.332642 279.740265,673.152954 
	C279.736450,676.139038 279.443726,679.190857 279.979187,682.083740 
	C280.245880,683.524536 282.268372,685.838745 283.172058,685.696472 
	C284.723450,685.452209 286.233765,683.758972 287.339813,682.344421 
	C287.948822,681.565552 287.819580,680.114502 287.817108,678.966980 
	C287.792603,667.478027 287.725220,655.989075 287.667053,643.500122 
M268.322662,711.479919 
	C268.261688,709.157898 268.157928,706.835999 268.150269,704.513794 
	C268.140198,701.457886 267.479919,698.422791 263.948273,698.306885 
	C260.219696,698.184570 259.691345,701.378845 259.673828,704.356995 
	C259.609375,715.307861 259.610809,726.259033 259.566010,737.210022 
	C259.552673,740.469177 260.346252,743.731323 264.015930,743.804749 
	C267.800232,743.880432 268.501251,740.573303 268.481232,737.332581 
	C268.429962,729.037231 268.395447,720.741821 268.322662,711.479919 
M262.143127,542.052246 
	C262.085327,549.209229 261.734100,556.384277 262.170959,563.510925 
	C262.283661,565.349426 264.872559,567.036133 266.323975,568.792603 
	C267.647247,566.992004 270.002716,565.250427 270.109619,563.380249 
	C270.507843,556.415894 270.397491,549.394653 269.951416,542.428467 
	C269.831848,540.561157 267.843536,538.813599 266.713135,537.011047 
	C265.198273,538.399597 263.683411,539.788147 262.143127,542.052246 
M284.188538,543.693787 
	C288.069611,545.520508 289.718658,543.247986 289.785675,539.999390 
	C289.960876,531.509094 289.871582,523.003113 289.494812,514.520874 
	C289.427155,512.998413 287.482117,511.559387 286.403870,510.081848 
	C285.235626,511.647308 283.160767,513.156128 283.058746,514.788208 
	C282.654144,521.261841 282.777161,527.775574 282.890289,534.271179 
	C282.941315,537.202271 283.427948,540.125732 284.188538,543.693787 
z"/>
<path fill="#FEFEFE" opacity="1.000000" stroke="none" 
	d="
M355.531342,1.000002 
	C349.629974,2.284527 343.292755,3.769443 336.884247,4.819174 
	C307.887604,9.568927 279.740356,17.417419 252.566162,28.508724 
	C208.630981,46.441124 168.577713,70.764442 132.965820,102.271233 
	C72.728065,155.565140 32.729832,221.309860 12.927269,299.113129 
	C8.146437,317.896759 6.121469,337.381653 2.822764,356.542969 
	C2.515282,358.329102 2.161266,360.107208 1.414427,361.944519 
	C1.000000,241.740204 1.000000,121.480408 1.000000,1.000000 
	C119.020805,1.000000 237.041748,1.000000 355.531342,1.000002 
z"/>
<path fill="#FEFEFE" opacity="1.000000" stroke="none" 
	d="
M799.000000,350.531342 
	C797.719238,344.780487 796.271851,338.589935 795.185120,332.336700 
	C788.622131,294.569702 776.808960,258.517151 760.016235,224.081207 
	C737.045776,176.976913 706.250183,135.672348 666.993347,100.981514 
	C628.552429,67.011726 584.526428,42.189545 536.668762,23.961250 
	C507.442169,12.829255 477.232513,5.825300 446.142395,1.382471 
	C563.593384,1.000000 681.186829,1.000000 799.000000,1.000000 
	C799.000000,117.354134 799.000000,233.708405 799.000000,350.531342 
z"/>
<path fill="#FEFEFE" opacity="1.000000" stroke="none" 
	d="
M1.000000,437.468658 
	C1.544968,438.385773 2.447307,439.737518 2.582952,441.162262 
	C6.593626,483.287537 17.813997,523.395874 35.795815,561.685242 
	C59.220291,611.563904 91.121338,655.109436 132.419006,691.669128 
	C139.891159,698.283997 147.526993,704.725281 155.283249,711.004517 
	C162.126190,716.544373 164.149078,723.987671 164.602325,732.780823 
	C164.743301,733.890930 164.856384,734.450256 164.969467,735.009644 
	C164.894165,754.363037 164.818878,773.716492 164.693924,793.696289 
	C164.751419,794.885376 164.858566,795.448181 164.965729,796.010925 
	C164.899658,796.458557 164.833588,796.906250 164.883759,797.676941 
	C110.378906,798.000000 55.757816,798.000000 1.000000,798.000000 
	C1.000000,677.979126 1.000000,557.958252 1.000000,437.468658 
z"/>
<path fill="#F8F8F8" opacity="1.000000" stroke="none" 
	d="
M392.466125,798.000000 
	C392.460175,797.426575 393.356781,796.821106 393.317383,796.284363 
	C391.924255,777.295898 390.827667,758.273682 388.842407,739.344971 
	C387.473480,726.292603 387.979675,713.652527 390.501862,700.711853 
	C392.345062,691.254883 391.672455,681.256470 391.656616,671.500183 
	C391.632599,656.718811 390.777832,641.929932 391.060333,627.159302 
	C391.387970,610.027039 392.545959,592.910034 393.390717,575.788757 
	C393.513397,573.302429 393.300354,570.538391 394.325348,568.429016 
	C395.416382,566.183655 397.794525,564.563721 399.610657,562.670715 
	C401.145782,564.625793 403.527100,566.383423 404.039001,568.577271 
	C405.087128,573.069275 405.359985,577.786133 405.550934,582.426880 
	C406.515167,605.864014 407.541718,629.301697 408.108582,652.749817 
	C408.268188,659.352600 406.421814,665.991882 406.430725,672.613098 
	C406.443359,682.021423 405.933777,691.770142 408.147064,700.757874 
	C411.658173,715.015808 412.182129,728.906067 409.363281,743.182190 
	C405.835510,761.048706 404.739746,779.082092 406.787537,797.622864 
	C402.310760,798.000000 397.621490,798.000000 392.466125,798.000000 
z"/>
<path fill="#FCFCFC" opacity="1.000000" stroke="none" 
	d="
M173.468658,798.000000 
	C172.992477,786.491211 172.984970,774.982422 172.988953,762.705566 
	C172.925186,759.620850 172.849945,757.304138 172.774689,754.987427 
	C172.890076,750.679993 172.812561,746.356934 173.159882,742.068298 
	C173.953842,732.264404 179.401230,729.364441 188.156998,733.828857 
	C199.365952,739.544067 205.426956,748.306763 205.196930,761.223816 
	C204.984161,773.170288 205.153946,785.123535 205.077637,797.536865 
	C194.645767,798.000000 184.291550,798.000000 173.468658,798.000000 
z"/>
<path fill="#0A0A09" opacity="1.000000" stroke="none" 
	d="
M297.437500,798.000000 
	C296.930969,776.366516 296.772980,754.732422 296.942413,733.100769 
	C296.957886,731.126099 298.905548,727.645691 300.243805,727.499512 
	C303.678406,727.124329 304.081970,730.341980 304.081024,733.136475 
	C304.073792,754.445374 304.051056,775.754272 304.016602,797.531616 
	C301.958344,798.000000 299.916656,798.000000 297.437500,798.000000 
z"/>
<path fill="#E0E0E0" opacity="1.000000" stroke="none" 
	d="
M355.290283,424.169983 
	C355.726593,410.068573 356.074158,396.426666 356.554596,382.789459 
	C356.641510,380.322327 357.273590,377.874390 357.653961,375.417603 
	C358.302094,375.473175 358.950195,375.528748 359.598328,375.584320 
	C359.598328,380.464752 359.495850,385.347717 359.617462,390.225098 
	C359.990723,405.196259 360.456726,420.165100 360.869446,435.135315 
	C360.945251,437.884430 360.847626,441.152863 357.240204,440.755157 
	C356.006561,440.619171 354.425507,437.089508 354.288605,435.025116 
	C354.061249,431.596710 354.873016,428.099365 355.290283,424.169983 
z"/>
<path fill="#E5E5E5" opacity="1.000000" stroke="none" 
	d="
M453.007507,316.029541 
	C453.250275,332.668121 453.494751,348.812622 453.721527,364.957336 
	C453.735443,365.948639 453.911926,367.109436 453.477203,367.894958 
	C452.828674,369.066681 451.703247,369.974457 450.780762,370.994507 
	C450.082550,369.838104 448.830811,368.704010 448.783173,367.521393 
	C448.588928,362.702576 448.769348,357.868988 448.800842,353.040771 
	C448.898590,338.056610 448.960144,323.072144 449.127747,308.088776 
	C449.147552,306.319336 449.738464,304.556305 450.064636,302.790283 
	C450.791931,302.796783 451.519257,302.803253 452.246552,302.809753 
	C452.499420,307.051666 452.752319,311.293610 453.007507,316.029541 
z"/>
<path fill="#ECECEC" opacity="1.000000" stroke="none" 
	d="
M432.970825,416.015076 
	C434.213654,425.881226 435.500214,435.742249 436.666748,445.617401 
	C436.937286,447.907745 437.355865,450.429199 436.674927,452.506134 
	C436.111877,454.223389 433.829224,456.750214 432.663727,456.573639 
	C430.928833,456.310822 428.878845,454.246613 428.127075,452.459320 
	C427.363800,450.644562 427.859406,448.220581 428.069885,446.089722 
	C428.998657,436.686279 430.023468,427.292328 431.310150,417.349731 
	C432.061493,416.541382 432.516174,416.278259 432.970825,416.015076 
z"/>
<path fill="#E5E5E5" opacity="1.000000" stroke="none" 
	d="
M357.988190,560.699219 
	C358.615692,566.598083 359.318878,572.029053 359.762482,577.481140 
	C359.999023,580.388123 359.666473,583.772766 355.882843,583.714539 
	C352.354797,583.660217 351.664276,580.651917 351.908264,577.505066 
	C352.727905,566.934570 353.474457,556.358337 354.318512,545.789856 
	C354.412842,544.608521 354.952087,543.462708 355.285034,542.300415 
	C355.743378,542.314819 356.201752,542.329224 356.660126,542.343567 
	C357.092041,548.309143 357.523987,554.274658 357.988190,560.699219 
z"/>
<path fill="#ECECEC" opacity="1.000000" stroke="none" 
	d="
M478.408936,240.970245 
	C486.166504,243.468903 491.545898,248.475311 495.246704,255.114059 
	C496.099792,256.644440 495.024475,259.249847 494.836548,261.360535 
	C492.818634,260.427338 490.095276,260.028412 488.910492,258.464172 
	C484.781097,253.012268 481.183441,247.157532 477.396179,241.447601 
	C477.364136,241.399292 477.478333,241.196518 477.570282,241.136948 
	C477.704437,241.050018 477.880402,241.027695 478.408936,240.970245 
z"/>
<path fill="#D6D6D6" opacity="1.000000" stroke="none" 
	d="
M434.152893,632.668030 
	C434.240234,636.103394 434.483459,639.084534 434.306061,642.040405 
	C434.256317,642.868774 433.031219,644.153992 432.229462,644.248596 
	C431.546631,644.329224 430.002991,642.977478 430.025177,642.298035 
	C430.395599,630.953979 430.952728,619.615967 431.468262,608.276611 
	C432.155884,608.281921 432.843536,608.287231 433.531158,608.292542 
	C433.630066,612.118286 433.728973,615.943970 433.827911,619.769714 
	C433.935120,623.914551 434.042389,628.059387 434.152893,632.668030 
z"/>
<path fill="#0F0F0F" opacity="1.000000" stroke="none" 
	d="
M374.945618,313.864624 
	C374.574829,303.241638 374.508728,292.451721 374.517792,281.661865 
	C374.526733,271.020752 374.611755,260.379700 374.836578,249.370667 
	C375.340637,250.226730 375.956207,251.449875 375.959869,252.674850 
	C376.017944,272.086975 376.007385,291.499390 375.964905,310.911621 
	C375.962860,311.840820 375.520538,312.769012 374.945618,313.864624 
z"/>
<path fill="#CBCBCB" opacity="1.000000" stroke="none" 
	d="
M442.561829,567.456177 
	C442.693909,565.411743 442.804291,563.812561 442.914673,562.213379 
	C443.278076,562.207275 443.641449,562.201172 444.004852,562.195068 
	C444.209106,564.727783 444.410797,567.260742 444.618134,569.793213 
	C445.064575,575.246277 445.765839,580.696533 445.821503,586.153381 
	C445.840240,587.993713 444.224182,589.850708 443.355286,591.700073 
	C442.634857,589.886658 441.269531,588.058228 441.311249,586.262573 
	C441.453644,580.135986 442.091400,574.020935 442.561829,567.456177 
z"/>
<path fill="#ECECEC" opacity="1.000000" stroke="none" 
	d="
M294.853638,350.622040 
	C295.165497,347.931732 295.170288,345.541077 295.943604,343.432220 
	C296.405670,342.172058 298.071869,341.353394 299.196777,340.336273 
	C300.051575,341.450195 301.391571,342.461029 301.655060,343.700623 
	C302.128876,345.929993 302.426117,348.409271 301.907074,350.570374 
	C301.488739,352.311859 299.758362,353.738190 298.610077,355.304352 
	C297.363403,353.882996 296.116699,352.461670 294.853638,350.622040 
z"/>
<path fill="#E0E0E0" opacity="1.000000" stroke="none" 
	d="
M533.978516,381.773621 
	C536.050720,385.470581 538.361206,388.755280 539.782837,392.387817 
	C540.336792,393.803162 538.888977,396.001984 538.352905,397.843933 
	C537.249573,396.519775 535.517029,395.343353 535.164673,393.842865 
	C534.229614,389.860901 533.889343,385.739227 533.320557,381.671967 
	C533.303833,381.552643 533.378296,381.420593 533.410217,381.294464 
	C533.560669,381.363129 533.711060,381.431763 533.978516,381.773621 
z"/>
<path fill="#E5E5E5" opacity="1.000000" stroke="none" 
	d="
M378.285767,405.492645 
	C379.028656,403.350250 379.685181,401.613861 380.427765,399.649872 
	C383.478729,402.406494 384.854370,409.453156 383.086426,411.972290 
	C382.510834,412.792419 381.214386,413.734558 380.418182,413.601379 
	C379.565002,413.458649 378.453003,412.204071 378.272186,411.275391 
	C377.935089,409.544067 378.190582,407.697357 378.285767,405.492645 
z"/>
<path fill="#0F0F0F" opacity="1.000000" stroke="none" 
	d="
M381.184143,368.363495 
	C381.218597,360.403229 380.045837,352.357544 382.174988,344.545502 
	C382.871796,344.569977 383.568604,344.594482 384.265442,344.618958 
	C383.868713,351.983551 383.471954,359.348175 382.740417,367.238342 
	C381.998444,367.963806 381.591309,368.163666 381.184143,368.363495 
z"/>
<path fill="#0F0F0F" opacity="1.000000" stroke="none" 
	d="
M395.390381,373.097778 
	C395.861664,383.356506 395.953796,393.726105 395.933075,404.553040 
	C395.216797,404.181854 394.098907,403.359528 394.088837,402.523865 
	C393.977753,393.292786 394.022614,384.059509 394.093964,374.827362 
	C394.098145,374.285492 394.691833,373.748138 395.390381,373.097778 
z"/>
<path fill="#E5E5E5" opacity="1.000000" stroke="none" 
	d="
M494.570190,383.593567 
	C493.690491,385.006866 492.824890,386.014893 491.959259,387.022919 
	C491.326813,385.827881 490.118103,384.612457 490.159485,383.441223 
	C490.361664,377.718567 490.897369,372.007690 492.405853,366.332916 
	C493.131989,371.951385 493.858124,377.569824 494.570190,383.593567 
z"/>
<path fill="#0F0F0F" opacity="1.000000" stroke="none" 
	d="
M395.318512,314.998901 
	C395.761505,321.356354 395.822449,327.730560 395.772888,334.562988 
	C394.776459,333.964905 393.194305,332.951691 393.125916,331.844910 
	C392.839600,327.212250 392.898193,322.546875 393.096161,317.904785 
	C393.138275,316.917389 394.293915,315.977448 395.318512,314.998901 
z"/>
<path fill="#E0E0E0" opacity="1.000000" stroke="none" 
	d="
M381.148804,368.747559 
	C381.591309,368.163666 381.998444,367.963806 382.720551,367.628906 
	C383.562927,370.079559 384.376892,372.653656 384.481995,375.256378 
	C384.526337,376.354004 383.076050,377.512024 382.305176,378.642578 
	C381.500549,377.571259 380.060364,376.518982 380.027588,375.424530 
	C379.965118,373.339630 380.706116,371.230591 381.148804,368.747559 
z"/>
<path fill="#0E0E0E" opacity="1.000000" stroke="none" 
	d="
M172.371216,754.987427 
	C172.849945,757.304138 172.925186,759.620850 172.888275,762.286499 
	C171.525162,761.876587 169.334290,761.242554 169.213501,760.333557 
	C168.938660,758.265320 167.703140,754.978210 172.371216,754.987427 
z"/>
<path fill="#0F0F0F" opacity="1.000000" stroke="none" 
	d="
M381.984558,333.995483 
	C381.984131,331.066895 381.984131,328.600220 381.984131,326.133545 
	C382.433136,326.116394 382.882141,326.099243 383.331146,326.082092 
	C383.583557,331.138794 383.835999,336.195496 384.088440,341.252197 
	C383.387299,341.295044 382.686127,341.337921 381.984985,341.380768 
	C381.984985,339.072968 381.984985,336.765198 381.984558,333.995483 
z"/>
<path fill="#AEAFAD" opacity="1.000000" stroke="none" 
	d="
M433.107056,415.565613 
	C432.516174,416.278259 432.061493,416.541382 431.369202,416.918243 
	C431.131622,412.407257 431.131622,407.782532 431.131622,403.157837 
	C431.835480,403.139038 432.539368,403.120239 433.243225,403.101440 
	C433.243225,407.106323 433.243225,411.111237 433.107056,415.565613 
z"/>
<path fill="#AEAFAD" opacity="1.000000" stroke="none" 
	d="
M491.217468,363.041595 
	C491.217468,359.657867 491.217468,356.274109 491.217468,352.890381 
	C491.843628,352.871613 492.469757,352.852875 493.095917,352.834137 
	C493.095917,355.620331 493.095917,358.406525 492.781647,361.767090 
	C492.050751,362.574860 491.634125,362.808228 491.217468,363.041595 
z"/>
<path fill="#0F0F0F" opacity="1.000000" stroke="none" 
	d="
M394.342102,497.083313 
	C394.763031,499.034882 394.833649,501.087341 394.840027,503.576752 
	C391.872528,502.040466 392.583191,499.652405 394.342102,497.083313 
z"/>
<path fill="#0F0F0F" opacity="1.000000" stroke="none" 
	d="
M395.413879,357.026550 
	C395.818115,358.388885 395.900391,359.793365 395.865784,361.606232 
	C393.465118,360.640259 391.553925,359.216339 395.413879,357.026550 
z"/>
<path fill="#0F0F0F" opacity="1.000000" stroke="none" 
	d="
M395.379639,344.986328 
	C395.798676,346.065186 395.875732,347.147125 395.838715,348.622803 
	C394.861298,348.227936 393.997986,347.439331 393.134674,346.650757 
	C393.769012,346.096985 394.403351,345.543213 395.379639,344.986328 
z"/>
<path fill="#0F0F0F" opacity="1.000000" stroke="none" 
	d="
M395.397827,350.976135 
	C395.796661,351.748047 395.868225,352.512695 395.824310,353.647705 
	C394.710632,353.292633 393.712463,352.567261 392.714294,351.841888 
	C393.499725,351.550903 394.285126,351.259918 395.397827,350.976135 
z"/>
<path fill="#0F0F0F" opacity="1.000000" stroke="none" 
	d="
M381.001801,260.097900 
	C381.395508,261.389496 381.508850,262.812744 381.454895,264.636353 
	C381.098877,263.434326 380.910126,261.831940 381.001801,260.097900 
z"/>
<path fill="#0F0F0F" opacity="1.000000" stroke="none" 
	d="
M395.184448,486.067871 
	C395.460327,487.130310 395.435394,488.289001 395.184357,489.717834 
	C394.933380,488.713318 394.908539,487.438721 395.184448,486.067871 
z"/>
<path fill="#0F0F0F" opacity="1.000000" stroke="none" 
	d="
M395.368713,336.981323 
	C395.761322,337.438782 395.835968,337.896088 395.796173,338.686340 
	C394.929413,338.783936 394.177094,338.548553 393.424805,338.313202 
	C393.966797,337.869171 394.508759,337.425140 395.368713,336.981323 
z"/>
<path fill="#0F0F0F" opacity="1.000000" stroke="none" 
	d="
M381.019257,253.060944 
	C381.387665,253.744949 381.504791,254.523132 381.454895,255.668839 
	C381.114532,255.075958 380.941254,254.115540 381.019257,253.060944 
z"/>
<path fill="#0F0F0F" opacity="1.000000" stroke="none" 
	d="
M384.605713,316.081451 
	C384.770325,315.538177 385.243073,314.992065 385.896240,314.233734 
	C385.689056,314.707214 385.301453,315.392914 384.605713,316.081451 
z"/>
<path fill="#E5E5E5" opacity="1.000000" stroke="none" 
	d="
M491.151672,363.501831 
	C491.634125,362.808228 492.050751,362.574860 492.666473,362.204102 
	C492.621002,363.263550 492.376434,364.460358 492.131897,365.657196 
	C491.783234,365.092163 491.434540,364.527130 491.151672,363.501831 
z"/>
<path fill="#0F0F0F" opacity="1.000000" stroke="none" 
	d="
M374.803223,336.973816 
	C374.466461,336.565948 374.368347,336.102783 374.409393,335.304657 
	C374.712982,335.619293 374.877411,336.268951 374.803223,336.973816 
z"/>
<path fill="#0E0E0E" opacity="1.000000" stroke="none" 
	d="
M165.203003,734.857788 
	C164.856384,734.450256 164.743301,733.890930 164.757507,733.148560 
	C165.068710,733.545715 165.252625,734.125854 165.203003,734.857788 
z"/>
<path fill="#0E0E0E" opacity="1.000000" stroke="none" 
	d="
M165.199493,795.866211 
	C164.858566,795.448181 164.751419,794.885376 164.797424,794.154175 
	C165.111465,794.564270 165.272354,795.142883 165.199493,795.866211 
z"/>
<path fill="#070707" opacity="1.000000" stroke="none" 
	d="
M412.177185,136.999802 
	C412.185455,130.173828 412.579407,123.815514 412.051117,117.534760 
	C411.763733,114.118141 410.079590,110.760963 408.698456,107.516159 
	C407.870422,105.570831 406.042358,104.025284 405.343018,102.058510 
	C404.678223,100.188965 404.897125,98.005203 404.727448,95.959610 
	C406.772278,95.813301 408.922089,95.183418 410.844635,95.600609 
	C421.817566,97.981735 428.440857,105.705284 433.768555,114.879448 
	C439.223572,124.272896 442.445892,134.233673 441.826447,145.279678 
	C441.668549,148.095520 441.665558,150.690689 444.958130,152.863800 
	C449.162872,155.638977 448.278809,168.524017 444.074982,171.544571 
	C443.005585,172.313004 440.632568,172.256363 439.374390,171.595978 
	C434.753754,169.170792 433.499237,169.444229 431.645325,174.163147 
	C425.957794,188.639801 432.796631,211.072113 445.549255,219.770218 
	C448.689117,221.911789 452.082672,231.929886 450.115631,235.112701 
	C449.249023,236.514938 445.845245,237.855515 444.607880,237.226944 
	C441.468811,235.632385 438.441986,233.283493 436.220337,230.546570 
	C433.204529,226.831253 431.017090,222.449524 428.399109,218.402267 
	C427.357391,216.791840 426.114716,215.311432 423.824554,214.099380 
	C423.824554,215.703156 423.498383,217.391556 423.888306,218.894150 
	C424.888947,222.750351 426.473450,226.470016 427.263275,230.358292 
	C427.563477,231.836014 426.772522,234.503311 425.682861,235.054382 
	C424.268921,235.769440 421.267120,235.623505 420.346619,234.595978 
	C417.871368,231.832916 415.269775,228.643539 414.317535,225.183334 
	C412.926575,220.128860 412.472015,214.694702 412.420380,209.414536 
	C412.185944,185.444458 412.232788,161.471634 412.177185,136.999802 
M417.896240,105.711288 
	C417.341125,106.665497 416.786011,107.619713 416.230896,108.573921 
	C418.969849,109.745605 421.708801,110.917282 424.447754,112.088959 
	C424.740295,111.484772 425.032837,110.880585 425.325378,110.276398 
	C423.083344,108.839645 420.841339,107.402893 417.896240,105.711288 
z"/>
<path fill="#080808" opacity="1.000000" stroke="none" 
	d="
M384.324738,106.236038 
	C379.215271,105.360474 375.919342,107.623505 372.937286,112.020203 
	C374.960938,112.276772 376.420868,112.461876 378.262482,112.695366 
	C377.061646,120.845200 365.909302,125.257156 370.153442,136.462418 
	C371.906219,133.855759 373.107208,132.100037 374.276672,130.323593 
	C376.093994,127.562950 377.712860,124.644249 379.786407,122.093796 
	C380.563171,121.138313 382.629669,120.351624 383.641815,120.731239 
	C384.534637,121.066116 385.205139,123.121346 385.237305,124.434967 
	C385.408539,131.424637 385.384613,138.420120 385.360718,145.413361 
	C385.290161,166.063675 385.224030,186.714157 385.046722,207.363647 
	C385.027130,209.642166 384.609314,212.037262 383.774567,214.139420 
	C383.340118,215.233612 381.591492,215.805954 380.436493,216.614014 
	C379.766510,215.402374 378.581909,214.218079 378.515839,212.974335 
	C378.233734,207.664154 378.363770,202.333359 378.165253,197.016739 
	C378.096252,195.168610 377.512512,193.339691 376.629303,191.405289 
	C375.487946,204.440918 373.984314,217.205383 359.895416,223.041214 
	C357.367828,224.088196 354.230804,223.664001 351.375183,223.919067 
	C350.830444,222.910538 350.285675,221.902008 349.740936,220.893478 
	C351.109436,220.285736 352.486481,219.696518 353.845001,219.067230 
	C362.819214,214.910187 366.824524,207.128159 367.737885,197.986099 
	C368.492554,190.432602 368.147522,182.707306 367.602814,175.107361 
	C367.228821,169.889236 364.444489,168.670883 360.192444,171.566864 
	C357.286285,173.546219 355.693695,172.489243 353.915100,170.361740 
	C349.200470,164.722168 350.111694,156.961441 355.804108,151.716125 
	C356.756165,150.838821 356.995117,148.726440 356.888641,147.232880 
	C355.824005,132.299118 361.806854,119.647926 369.532990,107.546974 
	C374.053680,100.466499 381.067017,97.209724 388.891754,95.561394 
	C393.413361,94.608879 394.948151,96.640152 392.972473,100.787857 
	C391.773834,103.304230 390.101105,105.694496 388.215942,107.751572 
	C386.792267,109.305046 384.884491,109.691933 384.324738,106.236038 
z"/>
<path fill="#111111" opacity="1.000000" stroke="none" 
	d="
M486.176514,759.000122 
	C486.164642,711.746155 486.121399,664.991455 486.079407,618.236816 
	C486.078979,617.737427 485.912476,617.130188 486.133423,616.756653 
	C487.273010,614.830505 488.385040,611.491760 489.745239,611.372803 
	C492.915009,611.095520 493.074341,614.076965 493.069519,616.773743 
	C493.035522,635.756592 493.123352,654.739624 493.131134,673.722595 
	C493.146606,711.518677 493.135651,749.314819 493.135651,787.464233 
	C491.035980,787.988159 488.953918,788.507751 486.145233,789.208679 
	C486.145233,779.007385 486.145233,769.253357 486.176514,759.000122 
z"/>
<path fill="#0F0F0F" opacity="1.000000" stroke="none" 
	d="
M519.097900,756.987793 
	C519.057861,737.496521 519.014465,718.502808 518.983582,699.509033 
	C518.980591,697.677917 518.562622,695.634888 519.232910,694.075195 
	C519.897888,692.527954 521.704651,690.459167 522.993164,690.471313 
	C524.335083,690.484070 525.954834,692.527466 526.880066,694.034729 
	C527.485474,695.021179 527.107666,696.633118 527.109070,697.964966 
	C527.133850,720.790466 527.149963,743.615967 527.162903,766.441467 
	C527.163452,767.440369 527.478149,768.671997 527.016663,769.390991 
	C525.965942,771.028015 524.523315,772.413452 523.239929,773.901123 
	C521.888000,772.425903 519.618591,771.091003 519.367310,769.447510 
	C518.769714,765.537720 519.126648,761.482056 519.097900,756.987793 
z"/>
<path fill="#131313" opacity="1.000000" stroke="none" 
	d="
M525.056885,496.352417 
	C525.105347,500.787354 525.399353,504.785400 525.065063,508.730194 
	C524.947021,510.123718 523.294373,511.387207 522.342346,512.710083 
	C521.242859,511.472351 519.331787,510.318390 519.193726,508.981445 
	C518.753357,504.714722 518.711060,500.358917 519.057922,496.081543 
	C519.205566,494.260223 520.698914,492.548035 521.580750,490.786255 
	C522.738770,492.489014 523.896851,494.191803 525.056885,496.352417 
z"/>
<path fill="#111111" opacity="1.000000" stroke="none" 
	d="
M541.955444,593.155518 
	C542.049500,596.341736 542.412415,599.175781 542.018738,601.900513 
	C541.833862,603.180481 540.192322,604.250061 539.210876,605.414978 
	C538.067627,604.201233 536.219360,603.131714 535.934875,601.742188 
	C535.419006,599.222412 535.558533,596.467468 535.972778,593.899048 
	C536.194336,592.525146 537.559326,591.335693 538.408264,590.062927 
	C539.576965,590.961426 540.745605,591.859924 541.955444,593.155518 
z"/>
<path fill="#131313" opacity="1.000000" stroke="none" 
	d="
M287.668488,644.000122 
	C287.725220,655.989075 287.792603,667.478027 287.817108,678.966980 
	C287.819580,680.114502 287.948822,681.565552 287.339813,682.344421 
	C286.233765,683.758972 284.723450,685.452209 283.172058,685.696472 
	C282.268372,685.838745 280.245880,683.524536 279.979187,682.083740 
	C279.443726,679.190857 279.736450,676.139038 279.740265,673.152954 
	C279.764191,654.332642 279.802734,635.512268 279.836304,616.691956 
	C279.838379,615.526001 279.451324,614.162781 279.922668,613.235657 
	C280.868500,611.374939 282.282776,609.752319 283.503723,608.031372 
	C284.791321,609.695374 287.119629,611.313416 287.195404,613.030884 
	C287.642944,623.174500 287.566895,633.341187 287.668488,644.000122 
z"/>
<path fill="#0B0B0B" opacity="1.000000" stroke="none" 
	d="
M268.338440,711.963135 
	C268.395447,720.741821 268.429962,729.037231 268.481232,737.332581 
	C268.501251,740.573303 267.800232,743.880432 264.015930,743.804749 
	C260.346252,743.731323 259.552673,740.469177 259.566010,737.210022 
	C259.610809,726.259033 259.609375,715.307861 259.673828,704.356995 
	C259.691345,701.378845 260.219696,698.184570 263.948273,698.306885 
	C267.479919,698.422791 268.140198,701.457886 268.150269,704.513794 
	C268.157928,706.835999 268.261688,709.157898 268.338440,711.963135 
z"/>
<path fill="#0F0F0F" opacity="1.000000" stroke="none" 
	d="
M262.155823,541.614502 
	C263.683411,539.788147 265.198273,538.399597 266.713135,537.011047 
	C267.843536,538.813599 269.831848,540.561157 269.951416,542.428467 
	C270.397491,549.394653 270.507843,556.415894 270.109619,563.380249 
	C270.002716,565.250427 267.647247,566.992004 266.323975,568.792603 
	C264.872559,567.036133 262.283661,565.349426 262.170959,563.510925 
	C261.734100,556.384277 262.085327,549.209229 262.155823,541.614502 
z"/>
<path fill="#131313" opacity="1.000000" stroke="none" 
	d="
M283.952728,543.373230 
	C283.427948,540.125732 282.941315,537.202271 282.890289,534.271179 
	C282.777161,527.775574 282.654144,521.261841 283.058746,514.788208 
	C283.160767,513.156128 285.235626,511.647308 286.403870,510.081848 
	C287.482117,511.559387 289.427155,512.998413 289.494812,514.520874 
	C289.871582,523.003113 289.960876,531.509094 289.785675,539.999390 
	C289.718658,543.247986 288.069611,545.520508 283.952728,543.373230 
z"/>
<path fill="#E0E0E0" opacity="1.000000" stroke="none" 
	d="
M418.247772,105.838715 
	C420.841339,107.402893 423.083344,108.839645 425.325378,110.276398 
	C425.032837,110.880585 424.740295,111.484772 424.447754,112.088959 
	C421.708801,110.917282 418.969849,109.745605 416.230896,108.573921 
	C416.786011,107.619713 417.341125,106.665497 418.247772,105.838715 
z"/>
</svg>