<?xml version="1.0" encoding="UTF-8"?>
<svg width="1200pt" height="1200pt" version="1.1" viewBox="0 0 1200 1200" xmlns="http://www.w3.org/2000/svg">
 <path d="m640.19 1006.6h-30.637c-5.5547-5.3867-11.125-10.906-16.68 0h-33.422c-12.109-3.2539-18.086-11.879-20.016-24.852-3.9375 5.6641-4.2227 11.797-9.2539 15.254-29.34 2.7461-34.691-15.59-31.559-41.688-8.3398 7.9453-6.9961 17.496-13.633 22.512-26.594-12.238-30.086-18.562-27.48-46.738 1.7891-19.188 8.1602-38.137 3.6484-58.777-14.258 0-28.969-2.293-42.637 0.48047-24.77 5.0742-44.27 0.99609-63.781-16.992-25.922-23.941-48.445-47.762-39.492-86.242 3.6719-15.742-0.5625-28.078-8.3633-41.195-25.777-43.402-22.836-59.832 14.809-92.281 4.2969-3.7422 7.332-8.2422 10.273-13.008 12.926-20.723 20.461-43.523 26.016-67.066 3.7422-15.695 2.4609-31.391-0.69531-47.676-8.9141 37.285-16.008 74.891-47.438 101.47-4.5234-5.4102-7.0547-11.16-8.9531-17.293-12.371-40.246-12.852-82.105-16.609-123.52-2.9414-32.832 11.688-61.609 22.43-91.105 18.422-50.27 49.703-90.348 97.367-115.77 30.695-16.332 63.121-28.934 95.93-40.477 26.34-9.2891 52.598-18.852 78.938-28.297h41.762c0.82812 0.97266 1.5 2.543 2.5195 2.832 54.254 15.047 106.98 34.402 157.59 59.027 36.289 17.617 68.844 39.973 89.867 75.996 12.086 20.688 21.73 42.469 30 64.789 10.5 28.176 17.844 57.156 14.641 87.742-2.9414 28.164-5.6289 56.352-10.402 84.348-2.4492 14.449-4.9336 28.43-15.469 40.934-25.848-28.512-39.445-61.273-44.543-98.293-6 9.8164-2.6758 19.848-2.0742 29.484 2.6406 41.699 16.414 78.887 46.98 108.32 24.406 23.461 27 42.348 7.4766 70.922-7.957 11.629-14.543 24.395-13.609 38.016 1.0312 14.316-0.23828 28.633 1.2617 42.805 1.0547 10.199-3.2148 17.879-9.6016 24.625-9.5508 10.105-19.895 19.5-29.375 29.652-16.848 17.977-35.762 25.141-60.445 16.754-13.957-4.7539-29.16-2.6172-43.078-0.85156-10.945 21.383-3.6484 42.238-1.2461 62.195 3.0469 25.895-1.5703 36.648-26.555 44.242-5.9414-7.4023-4.2734-18.336-13.598-27.383v37.285c-10.754 4.6562-19.703 11.438-31.176 10.656-3.0586-4.3086-5.7852-8.2305-10.477-14.902 0.46094 16.285-10.184 19.371-19.207 24.051zm22.105-299.11c0 6.0352-0.097657 12.047 0.13281 18.059 0 1.1992 1.1523 2.4258 1.9336 3.5391 20.543 29.664 44.09 55.355 79.715 67.906 18.109 6.3711 36.457 9.7305 55.262 11.281 16.234 1.3438 44.305-16.176 42.91-28.199-3-26.207 4.6211-50.352 10.078-75.145 4.2617-19.309-0.61328-25.414-19.992-28.176-39.793-5.5938-80.062-9.0977-117.09-26.34-9-4.2344-16.066-2.5078-23.004 2.2578-19.113 13.152-31.594 30.242-29.949 54.816zm-302.11 53.57c-1.4766 34.512 9.1562 46.801 41.867 44.594 46.188-3.1094 87.348-17.617 118.56-55.391 19.57-23.605 25.621-40.98 13.176-68.762-8.207-18.348-23.699-33.562-41.578-26.965-38.328 14.148-77.113 26.039-119.28 21.457-17.137-1.8477-24.996 10.188-21.383 27.023 4.25 19.867 11.414 39.309 8.6406 58.043zm194.59 98.004c11.41 8.1367 21.18 11.016 33.012 6.875 6.8281-2.375 15.266-3.9609 21.742 0.023438 12.406 7.6211 22.766 2.6289 36.949-4.0781-23.543-32.23-26.473-71.941-43.031-109.91-28.383 32.863-23.965 75.895-48.672 107.09z" fill="#fff"/>
</svg>
