<?xml version="1.0" standalone="no"?>
<!DOCTYPE svg PUBLIC "-//W3C//DTD SVG 20010904//EN"
 "http://www.w3.org/TR/2001/REC-SVG-20010904/DTD/svg10.dtd">
<svg version="1.0" xmlns="http://www.w3.org/2000/svg"
 width="300.000000pt" height="300.000000pt" viewBox="0 0 300.000000 300.000000"
 preserveAspectRatio="xMidYMid meet">
<metadata>
Created by potrace 1.10, written by Peter Selinger 2001-2011
</metadata>
<g transform="translate(0.000000,300.000000) scale(0.100000,-0.100000)"
fill="#ffffff" stroke="none">
<path d="M1315 2989 c-423 -53 -824 -301 -1059 -654 -394 -590 -324 -1367 169
-1860 149 -150 235 -225 255 -225 10 0 36 -15 58 -33 22 -19 53 -39 68 -44 16
-6 36 -14 44 -17 8 -3 25 -13 37 -22 l23 -16 0 154 c0 180 2 176 -104 247 -40
28 -85 64 -100 81 -25 30 -26 37 -26 138 0 118 24 242 46 242 20 0 27 -43 21
-124 -5 -74 2 -104 22 -92 7 5 11 52 11 134 1 111 4 137 28 207 22 64 31 80
47 80 19 0 20 -8 25 -320 4 -274 7 -320 20 -320 13 0 14 46 12 345 -2 369 3
415 43 415 19 0 20 -8 23 -127 2 -105 5 -128 17 -128 13 0 15 23 15 138 0 140
6 169 34 159 11 -4 16 -23 18 -67 6 -111 23 -70 28 67 3 72 8 135 12 138 4 4
14 5 23 1 14 -5 15 -66 15 -573 -1 -396 2 -569 9 -571 8 -3 11 142 11 485 0
415 2 492 15 509 11 15 14 54 15 179 0 161 6 193 32 182 10 -3 18 -39 28 -121
12 -110 12 -122 -8 -219 -31 -147 -42 -254 -42 -402 0 -146 11 -233 42 -350
18 -69 22 -113 24 -311 2 -126 7 -242 13 -256 8 -22 16 -26 78 -31 37 -4 79
-7 92 -7 l24 0 -8 122 c-4 68 -7 139 -7 158 1 19 3 139 6 265 6 314 14 369 47
329 9 -12 14 -82 17 -272 6 -375 6 -387 -3 -501 l-8 -104 89 8 c56 4 95 12
104 21 12 12 15 54 15 242 1 183 4 241 19 297 67 267 70 510 10 798 -24 117
-8 302 26 302 13 0 16 -31 23 -190 8 -200 10 -215 27 -215 6 0 10 36 10 94 0
52 3 101 6 110 8 21 30 21 38 0 3 -9 6 -229 6 -490 0 -309 3 -474 10 -474 7 0
10 145 10 416 0 267 4 422 10 435 16 29 47 23 67 -13 14 -27 18 -65 21 -211 4
-163 10 -203 26 -161 3 9 6 76 6 150 0 110 3 134 14 134 8 0 18 -6 23 -12 4
-7 10 -150 13 -318 4 -262 7 -305 20 -305 13 0 15 37 15 270 0 263 0 270 20
270 37 0 59 -90 61 -238 0 -80 5 -132 12 -139 18 -18 25 16 19 87 -6 66 7 129
25 123 22 -8 47 -142 47 -257 l1 -113 -43 -39 c-23 -22 -70 -58 -105 -81 -34
-22 -65 -50 -67 -62 -3 -11 -4 -88 -3 -171 l3 -150 24 24 c13 13 35 25 48 27
29 3 211 125 311 208 135 112 286 304 369 469 47 94 108 281 129 397 27 144
25 412 -5 550 -80 375 -277 687 -576 913 -98 74 -306 182 -425 221 -109 36
-263 65 -360 68 l-85 3 -3 -126 c-2 -102 0 -128 12 -138 8 -7 48 -17 88 -22
224 -28 429 -113 615 -255 186 -143 344 -370 416 -599 45 -145 52 -192 51
-375 -1 -155 -4 -186 -26 -271 -34 -125 -77 -227 -137 -325 -58 -93 -167 -224
-187 -224 -11 0 -14 19 -14 88 0 48 -6 120 -14 160 -7 40 -10 75 -6 77 9 6 40
-33 40 -50 0 -16 49 -85 60 -85 18 0 10 35 -20 85 -34 57 -36 65 -16 65 8 0
29 -18 46 -40 32 -41 60 -52 60 -25 0 8 -25 42 -55 75 -36 39 -55 68 -55 85 0
29 10 31 50 10 26 -14 60 -12 60 4 -1 18 -84 72 -125 81 -103 23 -150 70 -223
223 -28 58 -66 123 -84 144 -19 21 -41 49 -50 64 -31 50 -68 190 -77 295 -8
86 -14 112 -34 143 -29 43 -85 74 -137 75 -44 1 -50 -21 -20 -78 14 -29 17
-43 9 -52 -6 -7 -9 -30 -7 -51 1 -21 -2 -38 -7 -38 -6 0 -11 14 -13 30 -5 66
-13 92 -33 114 -16 17 -24 20 -35 10 -11 -9 -14 -41 -14 -140 0 -71 -4 -129
-9 -129 -5 0 -11 43 -13 95 -2 53 -8 99 -15 106 -24 24 -33 -3 -33 -97 0 -56
-4 -94 -10 -94 -6 0 -10 43 -10 110 0 87 -3 110 -14 110 -8 0 -17 -8 -21 -17
-3 -10 -5 -220 -4 -468 2 -383 0 -450 -12 -450 -11 0 -13 17 -11 85 2 47 0
226 -4 398 -5 256 -9 312 -20 312 -9 0 -14 -12 -14 -34 0 -19 -4 -38 -10 -41
-6 -4 -10 42 -10 130 0 105 -3 136 -12 133 -10 -4 -14 -56 -16 -206 -1 -123
-6 -202 -12 -202 -6 0 -10 66 -10 170 0 135 -3 170 -13 170 -32 0 -41 -52 -45
-250 -2 -107 -8 -199 -13 -205 -12 -12 -12 389 0 432 12 42 -3 52 -26 16 -13
-19 -19 -52 -22 -110 -2 -48 -7 -83 -13 -83 -7 0 -9 31 -6 88 5 91 19 131 66
187 21 25 22 30 9 33 -25 5 -73 -33 -109 -86 -26 -38 -33 -59 -36 -109 -6 -88
-22 -79 -22 12 0 96 17 136 71 172 52 34 31 44 -37 18 -72 -27 -114 -101 -114
-200 0 -111 -61 -289 -126 -365 -25 -29 -68 -98 -95 -152 -76 -152 -135 -205
-246 -223 -24 -4 -43 -11 -43 -16 0 -5 -16 -19 -35 -30 -19 -12 -35 -25 -35
-29 0 -18 42 -21 65 -6 36 24 55 20 55 -10 0 -18 -18 -45 -61 -89 -54 -56 -67
-85 -39 -85 5 0 27 19 49 42 22 24 43 39 47 35 4 -4 -8 -36 -27 -72 -18 -35
-31 -67 -27 -71 15 -14 35 6 67 70 39 77 57 86 46 24 -4 -24 -10 -90 -14 -147
-4 -69 -10 -106 -18 -108 -24 -8 -142 137 -203 250 -90 166 -132 338 -133 542
0 159 13 251 55 380 147 455 548 785 1023 844 56 7 83 15 92 27 13 18 19 217
7 248 -7 18 -44 19 -159 5z m523 -922 c22 -20 30 -47 14 -47 -5 0 -20 18 -35
40 -27 41 -20 43 21 7z m-138 -332 c0 -77 -4 -125 -10 -125 -6 0 -10 46 -10
118 0 104 4 132 17 132 2 0 3 -56 3 -125z m-570 -40 c0 -25 -14 -34 -24 -16
-8 12 3 41 15 41 5 0 9 -11 9 -25z m721 -87 c2 -26 0 -50 -4 -54 -4 -4 -7 19
-7 51 0 69 7 70 11 3z m-411 -9 c0 -11 -4 -18 -10 -14 -5 3 -7 12 -3 20 7 21
13 19 13 -6z m-95 -247 c-14 -14 -16 16 -8 125 l8 118 3 -119 c1 -65 0 -121
-3 -124z m685 166 c0 -20 -18 -5 -23 19 -5 26 -4 26 9 8 8 -10 14 -22 14 -27z
m-590 -48 c0 -11 -4 -20 -10 -20 -5 0 -10 9 -10 20 0 11 5 20 10 20 6 0 10 -9
10 -20z m195 -179 c-4 -10 -8 -11 -19 -2 -9 8 -12 25 -9 54 9 88 16 95 25 27
4 -36 6 -71 3 -79z m-291 -408 c5 -61 4 -73 -9 -73 -9 0 -15 9 -15 23 0 28 12
128 15 125 1 -2 5 -36 9 -75z m323 -80 c-2 -16 -4 -3 -4 27 0 30 2 43 4 28 2
-16 2 -40 0 -55z m-41 -221 c-12 -12 -14 6 -8 68 l7 65 3 -64 c2 -35 1 -66 -2
-69z"/>
<path d="M1520 2633 c0 -10 7 -27 15 -37 12 -16 15 -61 15 -229 0 -210 5 -247
36 -247 13 0 14 8 9 40 -8 47 -1 51 20 11 19 -37 43 -61 61 -61 25 0 15 43
-17 76 -49 50 -64 179 -20 172 9 -1 22 1 29 5 14 10 16 53 2 62 -5 3 -10 18
-10 32 0 48 -23 104 -59 143 -42 45 -81 61 -81 33z m70 -44 c0 -4 -7 -6 -15
-3 -8 4 -15 10 -15 15 0 4 7 6 15 3 8 -4 15 -10 15 -15z"/>
<path d="M1412 2624 c-33 -23 -72 -107 -72 -154 0 -22 -4 -40 -10 -40 -5 0
-10 -16 -10 -35 0 -35 6 -39 44 -35 17 1 18 -5 14 -70 -3 -65 -7 -75 -32 -97
-31 -26 -29 -39 4 -28 29 9 53 50 61 104 6 45 6 45 8 -16 2 -93 21 -77 23 20
1 45 2 121 3 169 2 91 -7 125 -25 98 -6 -8 -15 -22 -20 -30 -4 -8 -12 -12 -15
-8 -4 4 3 23 15 42 15 26 18 36 8 36 -8 1 -7 5 5 15 11 7 25 11 32 9 7 -3 18
4 25 15 9 18 8 21 -12 21 -13 0 -34 -7 -46 -16z"/>
<path d="M1950 1121 c0 -23 5 -41 10 -41 6 0 10 15 10 34 0 19 -4 38 -10 41
-6 4 -10 -10 -10 -34z"/>
<path d="M1060 1019 c0 -44 3 -60 13 -57 23 8 21 118 -3 118 -6 0 -10 -27 -10
-61z"/>
<path d="M982 925 c2 -30 8 -55 13 -55 6 0 11 25 13 55 2 45 0 55 -13 55 -13
0 -15 -10 -13 -55z"/>
<path d="M2010 755 c0 -14 5 -25 10 -25 6 0 10 11 10 25 0 14 -4 25 -10 25 -5
0 -10 -11 -10 -25z"/>
<path d="M1050 565 c0 -113 3 -146 13 -142 9 3 12 40 12 142 0 102 -3 139 -12
143 -10 3 -13 -30 -13 -143z"/>
<path d="M1827 693 c-4 -3 -7 -152 -7 -330 0 -280 2 -323 15 -323 13 0 15 43
15 330 0 182 -4 330 -8 330 -5 0 -12 -3 -15 -7z"/>
<path d="M1957 403 c-4 -3 -7 -76 -7 -160 0 -119 3 -154 13 -151 9 4 13 45 15
153 2 136 -3 177 -21 158z"/>
<path d="M970 292 c0 -83 5 -99 27 -81 24 21 13 159 -13 159 -11 0 -14 -19
-14 -78z"/>
<path d="M1116 263 c-3 -3 -6 -53 -6 -110 0 -85 3 -103 15 -103 12 0 15 18 15
104 0 96 -7 126 -24 109z"/>
</g>
</svg>
