<svg version="1.1" id="Layer_1" xmlns="http://www.w3.org/2000/svg" xmlns:xlink="http://www.w3.org/1999/xlink" x="0px" y="0px"
	 width="100%" viewBox="0 0 896 912" enable-background="new 0 0 896 912" xml:space="preserve">
<path fill="#000000" opacity="1.000000" stroke="none" 
	d="
M441.000000,1.000000 
	C447.021149,1.000000 453.042297,1.000000 459.918640,1.110698 
	C472.406525,2.122015 483.924408,3.669231 495.238770,6.667705 
	C512.052307,11.123528 527.845154,18.363884 545.180176,21.838598 
	C584.760986,29.772369 621.712830,45.550304 657.340088,64.486298 
	C720.755066,98.191566 772.990662,144.394318 814.237549,203.186691 
	C850.556519,254.954910 876.251831,311.334839 889.547302,373.274841 
	C892.794922,388.404327 895.182312,403.649719 897.000000,419.000000 
	C897.000000,449.687561 897.000000,480.375122 896.972778,511.931793 
	C896.745056,513.603210 896.440979,514.395203 896.359253,515.209412 
	C894.664734,532.102234 892.037537,548.856140 888.165344,565.377747 
	C863.685547,669.826904 809.061096,755.145508 724.501404,821.011353 
	C668.304993,864.784363 604.361206,891.860291 534.833923,906.332397 
	C521.304199,909.148682 507.634064,910.920471 494.000000,913.000000 
	C465.312439,913.000000 436.624878,913.000000 407.109314,912.847229 
	C402.154327,912.185364 398.012970,911.772156 393.902649,911.152588 
	C347.242462,904.118713 302.216705,891.623291 259.399048,871.466675 
	C207.854965,847.202087 162.549149,814.543640 123.400558,773.059326 
	C87.432785,734.945740 59.221348,691.806458 38.107040,644.050781 
	C8.503354,577.094177 -2.128676,506.836456 2.381791,433.927368 
	C4.160040,405.183014 9.253124,377.131104 16.930977,349.528717 
	C36.539650,279.034271 70.567970,216.193466 119.441109,161.759384 
	C183.293976,90.641159 262.393677,44.727051 354.932465,21.492884 
	C362.997101,19.468056 371.525665,19.604795 379.221954,16.150885 
	C385.620178,13.279515 392.205231,10.975250 398.877655,8.858089 
	C412.600159,4.503937 426.808197,2.807930 441.000000,1.000000 
M782.280090,328.267639 
	C791.350342,337.642578 793.407166,348.757782 790.205383,361.055695 
	C788.796692,366.466461 789.449646,371.682648 791.291626,376.743896 
	C794.767883,386.296112 794.914795,395.900146 792.760132,405.737549 
	C791.842651,409.926208 790.790771,414.166840 791.655518,418.583008 
	C792.713196,423.984680 793.256104,429.406494 792.448242,434.948578 
	C791.251465,443.158112 789.085571,451.199432 788.848816,459.585754 
	C788.540283,470.512146 782.123596,477.253876 772.613281,481.579559 
	C769.733704,482.889313 766.911560,484.327484 764.081177,485.742981 
	C757.508606,489.029968 751.306580,492.908234 745.406311,497.295166 
	C743.352356,498.822296 742.437927,500.642334 742.368164,503.207001 
	C742.009705,516.383179 740.005859,529.382751 737.726929,542.328247 
	C729.609619,588.440063 715.917297,632.872375 697.549927,675.921997 
	C688.312378,697.573120 676.507507,717.903564 665.938904,738.869019 
	C661.328979,748.013855 658.388550,757.617493 657.070435,767.838806 
	C655.143921,782.777771 657.843445,797.381592 659.489502,812.072937 
	C659.889221,815.640198 662.165100,816.004089 664.869812,814.282104 
	C670.488953,810.704712 676.151917,807.180176 681.603638,803.358215 
	C772.274963,739.792847 830.490479,654.737793 851.937195,545.474182 
	C859.844177,505.190918 861.716980,464.556641 857.770142,423.687378 
	C854.572998,390.581085 847.725830,358.248047 836.365845,326.956055 
	C820.238831,282.532959 796.736084,242.355286 767.101074,205.548752 
	C718.994934,145.801300 658.593750,103.273293 587.391968,75.588219 
	C585.686584,74.925102 583.858154,73.553322 581.299500,75.205132 
	C595.324585,99.684105 597.908325,126.621582 597.329346,154.971420 
	C599.709045,153.261856 601.208679,152.013611 602.863220,151.024536 
	C611.580627,145.813400 620.064575,150.379120 620.379211,160.500336 
	C620.497803,164.312668 620.461914,168.107407 619.636780,171.924911 
	C614.508789,195.648590 604.607666,216.991837 588.561829,235.353546 
	C585.058472,239.362549 585.432678,240.706833 590.540833,242.837585 
	C598.225525,246.043091 606.040894,248.965836 613.570190,252.499924 
	C617.189026,254.198547 619.920959,253.949921 623.274536,251.975220 
	C634.948364,245.101135 647.267639,239.630707 660.458862,236.335938 
	C673.285339,233.132294 686.158325,233.012711 696.460144,242.146912 
	C702.337524,247.358124 707.851379,247.811188 714.540771,246.470764 
	C715.356689,246.307266 716.183533,246.182358 717.011108,246.094971 
	C737.397400,243.942642 750.732300,255.144211 751.842285,275.502655 
	C751.981934,278.064178 753.117920,279.898102 754.593201,281.729584 
	C759.932495,288.358063 765.755920,294.551575 771.812012,300.513397 
	C776.489319,305.117920 778.924377,310.482361 778.434753,317.078888 
	C778.137146,321.088623 779.150940,324.661041 782.280090,328.267639 
M55.709805,355.019836 
	C47.269146,385.120850 42.632156,415.822998 41.314301,447.032471 
	C40.632099,463.188385 41.177914,479.310760 42.160435,495.465088 
	C43.579033,518.789246 46.771679,541.804321 52.046856,564.536560 
	C64.042984,616.231140 86.454872,663.115173 117.864998,705.748474 
	C149.655121,748.897522 188.236450,784.785522 233.711700,813.207458 
	C238.432983,816.158264 240.528473,815.547180 241.383865,810.241882 
	C243.905655,794.601318 245.784714,778.881165 242.807281,763.069519 
	C239.888687,747.570312 232.075012,734.090088 224.757660,720.455750 
	C207.685074,688.644775 192.805786,655.962158 185.165131,620.460632 
	C183.738068,613.829834 180.937866,608.506470 176.355743,603.617065 
	C168.881226,595.641296 162.795593,586.828491 161.060852,575.547974 
	C159.456146,565.113159 159.381729,554.630249 159.470184,544.152283 
	C159.501923,540.393311 158.440659,537.861511 155.585693,535.602478 
	C150.622147,531.674988 145.765518,527.604065 140.992783,523.445496 
	C131.178375,514.893921 126.062111,504.085480 125.593430,491.036835 
	C125.338837,483.948975 123.463394,477.334534 120.028046,471.022583 
	C115.495277,462.694366 110.172951,454.527588 108.105049,445.233673 
	C104.683006,429.853790 100.307388,414.960236 92.352768,401.241058 
	C89.440651,396.218567 90.424881,391.263580 93.793129,386.739105 
	C96.578781,382.997192 99.432327,379.304901 102.304245,375.628479 
	C104.034424,373.413605 104.825073,371.240967 103.939018,368.265869 
	C102.516708,363.490143 101.943077,358.457458 100.460999,353.704803 
	C98.455727,347.274384 100.484787,342.369965 105.058479,337.960571 
	C109.632019,333.551331 114.296806,329.265930 119.951721,326.279938 
	C122.738304,324.808502 123.764732,323.001190 122.767868,319.819763 
	C121.326942,315.221069 120.158058,310.529602 119.046310,305.836700 
	C116.215981,293.889252 119.336060,287.421539 130.575226,282.133484 
	C136.309662,279.435425 142.280502,277.298523 148.488419,275.963043 
	C151.019348,275.418579 152.258270,274.342468 151.980011,271.564331 
	C151.455109,266.323639 153.653503,262.132141 157.603577,258.857269 
	C166.065506,251.841797 174.538483,244.837631 183.111542,237.959244 
	C186.220184,235.465103 189.860382,234.604492 193.929626,235.293732 
	C199.174911,236.182205 204.459076,236.885681 209.750320,237.442200 
	C213.023804,237.786499 216.329407,238.382584 219.601349,236.960449 
	C226.920090,233.779373 234.579025,234.056793 242.202118,235.343964 
	C255.780060,237.636612 267.507355,244.457443 279.243439,251.109192 
	C282.316315,252.850815 284.871063,253.087311 288.110199,251.642654 
	C295.253052,248.456924 302.574371,245.672775 309.802399,242.675385 
	C311.575165,241.940231 313.759491,241.795715 314.699371,239.745651 
	C314.452667,238.040405 313.307373,237.020111 312.318634,235.915070 
	C295.940613,217.611328 285.878601,196.082443 280.188324,172.402237 
	C279.152222,168.090500 278.486389,163.603714 279.456909,159.041519 
	C281.461365,149.619080 288.922333,146.458572 297.154175,151.555191 
	C298.728943,152.530151 299.737213,154.723358 302.641266,154.206207 
	C301.990387,126.509529 304.227356,99.329391 319.375793,74.739670 
	C316.588501,74.168564 314.762512,75.115051 312.956696,75.803352 
	C277.418152,89.348900 244.246216,107.307899 213.415924,129.556396 
	C176.038940,156.529251 144.452530,189.296310 117.764008,226.740402 
	C89.986336,265.712585 68.819176,307.993561 55.709805,355.019836 
M524.195312,599.815063 
	C516.220825,603.971436 508.225708,608.080139 499.530029,610.670410 
	C505.917603,605.605286 512.159790,600.235229 519.293884,596.630066 
	C531.162415,590.632507 540.686829,581.241882 552.300903,575.047546 
	C559.790222,571.053101 566.451538,566.071045 572.801758,560.535034 
	C574.518982,559.037903 576.517578,557.703125 578.610107,556.825806 
	C585.985535,553.733521 591.931641,548.401611 598.161682,543.752930 
	C609.223022,535.499207 621.882568,530.282104 633.651978,523.420410 
	C637.580994,521.129822 642.198120,519.960266 646.129822,517.347168 
	C648.881287,515.518494 652.196411,513.807373 655.262451,516.786316 
	C657.631226,519.087769 659.229614,517.870789 661.650513,516.744385 
	C666.764038,514.364990 669.192078,508.712891 674.454346,506.800446 
	C677.393799,505.732147 679.344910,504.150177 679.717651,500.923096 
	C679.769348,500.475342 680.203003,500.071686 680.258484,499.980042 
	C682.474609,499.871643 682.433472,502.658325 684.488403,502.057556 
	C690.505737,496.039948 699.077637,493.157928 705.356079,487.278290 
	C705.057312,486.718292 704.758545,486.158264 704.459778,485.598236 
	C679.540466,494.818451 654.621216,504.038666 629.701965,513.258911 
	C629.487122,512.722839 629.272278,512.186768 629.057495,511.650726 
	C635.246460,503.655762 646.127747,502.262878 652.899902,494.815063 
	C657.665466,489.574036 664.841736,487.533081 671.147949,484.400757 
	C677.274048,481.357910 682.957642,477.300232 689.274536,474.795197 
	C698.481689,471.144043 707.729431,467.597290 716.591980,463.194580 
	C725.749634,458.645233 734.560852,453.388000 744.446167,450.426514 
	C750.647278,448.568756 757.022217,447.095276 762.953308,444.585083 
	C769.481628,441.822174 775.947266,438.720490 775.389954,429.397064 
	C775.181824,425.914093 775.281006,421.290558 779.967407,419.288361 
	C781.418762,418.668304 781.382751,416.922882 781.780762,415.448883 
	C783.609680,408.675629 780.201172,402.388397 780.281067,395.762360 
	C780.466064,380.429077 776.976135,365.087311 781.298584,349.728027 
	C782.405457,345.794922 782.865173,340.503113 777.647583,337.242188 
	C774.463867,343.154266 775.145935,349.599060 773.519348,356.350403 
	C771.612000,353.721344 771.833618,351.695404 771.761536,349.762726 
	C771.376282,339.441010 771.016785,329.118317 770.653381,318.795776 
	C770.458801,313.267456 768.743347,308.417847 764.796448,304.353577 
	C757.600647,296.944000 750.548950,289.394714 743.407593,281.932037 
	C738.816406,277.134216 735.834595,277.239288 731.552917,282.438110 
	C727.583191,287.258301 725.272400,293.015137 722.763062,298.641907 
	C722.168457,299.975189 721.312073,301.507202 722.492493,302.863739 
	C723.671692,304.218781 725.256592,303.523743 726.703552,303.186249 
	C730.606628,302.275909 734.477356,300.924408 740.130493,302.240295 
	C733.215881,305.222229 727.367615,307.063049 722.107422,310.201721 
	C719.765991,311.598816 717.910400,312.834686 718.901733,315.861359 
	C714.953979,316.872559 710.811279,315.769562 707.760132,318.974884 
	C709.395813,322.243164 714.675720,322.502502 714.203369,327.147736 
	C712.174133,328.076996 710.447998,327.247711 708.704407,326.856354 
	C700.052917,324.914490 692.629150,320.620575 685.829224,315.054901 
	C678.175781,308.790619 671.792175,301.313751 665.299194,293.930908 
	C659.123169,286.908478 645.878113,285.559692 638.390991,291.083496 
	C633.833801,294.445709 631.694458,300.005951 626.189392,302.865326 
	C630.034790,306.167175 633.760376,305.753967 637.331238,305.651306 
	C640.618469,305.556763 642.513489,306.799286 644.638672,309.553619 
	C649.446594,315.785034 653.911438,322.635712 661.731079,325.798553 
	C666.387817,327.682098 669.773193,331.022888 672.499634,335.148743 
	C674.782898,338.603851 677.862732,340.680023 681.969055,341.926208 
	C691.234436,344.738098 700.112000,348.608582 707.940186,354.446289 
	C709.991943,355.976318 713.025330,357.088928 712.712158,361.274841 
	C703.874512,360.094208 695.228882,359.715973 686.333984,360.688690 
	C688.702393,365.459015 693.406494,366.995972 696.104980,370.542999 
	C699.530762,375.046051 703.380188,379.314209 708.111450,382.204071 
	C713.357910,385.408569 719.003601,388.618896 725.755310,384.822815 
	C728.659119,383.190247 732.247009,382.647522 735.910095,382.864929 
	C735.641113,387.308899 730.243103,389.363647 731.266479,394.471558 
	C736.475037,394.316650 740.870728,390.552765 746.378296,392.016541 
	C741.628601,395.849365 736.727539,399.416748 731.518677,402.456635 
	C693.162476,424.841187 652.240173,441.158264 609.630127,453.325806 
	C576.166077,462.881714 542.538025,471.865540 509.098114,481.503235 
	C484.118347,488.702637 459.404083,496.736420 436.261200,508.910767 
	C423.366608,515.693970 411.595093,524.093384 400.293640,533.215271 
	C398.477600,534.681091 396.612640,536.806274 394.537811,533.317139 
	C392.584167,535.641296 390.945984,537.590271 389.307770,539.539185 
	C388.999756,531.084961 392.962311,524.931702 399.275787,520.545593 
	C403.173279,517.837891 403.071198,515.613647 400.878693,511.994476 
	C387.706207,490.250671 373.099884,469.598419 354.678467,451.939728 
	C339.925873,437.797974 323.671204,425.901886 302.741302,422.920197 
	C286.272247,420.573975 272.282806,425.613739 262.513916,439.533691 
	C251.475128,455.263123 249.959152,472.930450 253.850571,491.187561 
	C256.373596,503.024750 260.905975,513.870972 271.365479,521.378601 
	C275.914368,524.643738 280.407501,528.390869 283.793427,532.790649 
	C291.631165,542.975098 297.384125,554.978821 310.927338,561.276855 
	C299.029022,542.563049 286.252838,525.485657 276.894196,506.267090 
	C278.663696,507.122253 279.990601,508.312836 281.019653,509.721069 
	C284.639862,514.675293 288.058807,519.778442 291.737671,524.687561 
	C297.279816,532.083130 303.073517,539.268860 308.343018,546.894409 
	C312.649017,553.125671 317.267914,559.347839 323.079132,564.335999 
	C326.958099,567.665588 330.989410,571.072632 333.634583,575.209900 
	C340.055481,585.252502 350.117645,591.675781 357.508270,600.738953 
	C363.018219,607.495911 370.130615,612.931946 375.809204,619.572144 
	C378.219116,622.390198 383.085083,623.796936 382.774323,628.910767 
	C379.426605,629.719543 377.137512,627.923218 374.777618,626.460388 
	C372.979218,625.345581 371.212677,624.785889 370.401978,627.344482 
	C368.586243,633.075134 366.438782,638.767700 372.304901,643.855042 
	C375.285278,646.439697 377.310699,650.100647 380.181061,652.842468 
	C386.022766,658.422546 392.927979,661.553345 401.238434,661.840637 
	C411.214813,662.185608 419.097137,657.319946 427.156738,652.594116 
	C435.393616,647.764404 443.042603,641.762329 452.729370,639.794006 
	C458.556580,638.609924 464.383392,638.423645 470.320435,636.536560 
	C482.131714,632.782410 493.899261,629.125610 505.123199,623.843201 
	C509.527252,621.770569 512.716614,617.868591 516.847229,615.515137 
	C533.079041,606.266907 548.611694,595.902710 564.508606,586.123901 
	C571.274658,581.961792 577.466003,576.667725 584.597046,573.343811 
	C594.753845,568.609558 603.419312,561.976624 611.934753,555.013733 
	C618.335754,549.779846 624.920166,544.756226 631.425781,539.682373 
	C635.380798,536.597717 639.718018,533.720581 644.005493,530.931335 
	C645.467957,529.979919 647.093140,528.988708 646.597717,526.852783 
	C645.201050,526.245972 644.372070,526.996155 643.568665,527.502686 
	C632.444336,534.516602 621.288452,541.482544 610.244324,548.621155 
	C582.402039,566.617737 554.257202,584.099304 524.195312,599.815063 
M358.208099,45.712612 
	C338.244507,63.421959 323.930176,84.742371 317.699921,110.884888 
	C312.258606,133.717087 313.814026,156.868362 315.802704,179.968750 
	C317.189941,196.082809 320.594208,211.875549 323.404388,227.767029 
	C326.995850,248.076447 329.920929,268.527435 337.120911,288.006104 
	C339.477173,294.380768 341.362671,300.941925 346.010620,306.285583 
	C348.638306,309.306580 351.170410,309.212555 354.487854,307.605835 
	C352.520355,301.440460 347.748444,296.969604 345.081390,290.724091 
	C348.372467,291.326691 349.282654,293.464661 350.565979,295.051788 
	C362.951019,310.369354 379.047058,319.290497 398.260681,322.865173 
	C399.918488,323.173615 401.884460,324.255615 402.941162,321.708832 
	C402.205017,319.793396 400.373962,319.826111 398.879089,319.286255 
	C394.653595,317.760406 390.279175,316.543671 386.240417,314.622742 
	C372.272552,307.979279 359.162476,300.156738 350.802551,286.429108 
	C350.032501,285.164673 348.496185,283.559753 349.229126,282.418457 
	C351.016663,279.634949 349.263763,277.762604 348.284607,275.586456 
	C339.667938,256.436127 332.637238,236.759933 328.814484,216.048477 
	C328.296143,213.240097 326.963074,209.973251 330.579010,208.044464 
	C333.890656,206.277954 336.349976,208.435989 338.674164,210.251999 
	C341.973877,212.830246 344.243774,216.428131 347.138977,219.393433 
	C349.539001,221.851517 350.746826,225.762833 355.535217,226.747986 
	C353.627106,221.192352 351.834015,216.244110 350.233551,211.234299 
	C348.663330,206.319290 347.075928,201.392090 345.889740,196.377121 
	C344.744354,191.534729 342.916504,186.646622 344.727844,181.441132 
	C345.960999,188.121826 350.095367,193.471848 353.630371,198.433258 
	C359.710754,206.967026 366.296844,215.239197 372.812073,223.475327 
	C378.159607,230.235382 385.399597,235.810318 392.620209,240.700577 
	C402.430206,247.344482 412.510437,254.478287 425.494965,252.414307 
	C429.666565,251.751221 433.898071,250.752014 437.333771,247.837296 
	C438.004944,247.267929 439.169617,247.050491 440.103943,247.057098 
	C448.307587,247.115128 456.237152,250.962357 464.625092,248.837753 
	C465.137695,248.707947 465.852936,249.260757 466.439972,249.562012 
	C469.091400,250.922531 471.927795,250.626984 474.730286,250.465454 
	C480.785645,250.116440 486.587463,248.205429 492.075195,246.065399 
	C499.989166,242.979187 508.740204,241.385239 515.221252,235.209808 
	C519.066589,231.545776 522.576599,227.498322 526.630310,224.090591 
	C537.673950,214.806778 545.253296,203.056366 551.681519,190.371063 
	C553.108948,187.554276 553.455078,184.008942 557.488403,181.261581 
	C555.496094,197.974243 549.043396,212.420074 545.220215,227.692642 
	C550.343079,221.881302 558.542358,220.690948 563.125366,214.373932 
	C564.722168,212.173019 566.858643,212.182907 567.789185,215.987640 
	C569.811035,224.253784 567.783508,232.146637 565.536194,239.759750 
	C562.797058,249.039032 558.302551,257.755524 555.260132,266.996277 
	C552.877991,274.231323 550.559570,281.787811 547.217957,288.341614 
	C540.182434,302.140228 526.417236,308.895355 512.842468,315.168854 
	C509.963043,316.499573 506.996429,317.641663 503.284637,319.200470 
	C510.196838,321.806732 515.469177,319.593506 520.715393,317.466400 
	C532.194580,312.812073 540.985596,304.885529 548.090942,294.893311 
	C549.267029,293.239349 550.117493,291.022156 553.115112,290.845856 
	C552.418213,295.449921 549.215515,298.610657 547.486511,302.431549 
	C545.573547,306.658691 543.622803,310.588074 548.046143,314.581116 
	C552.282288,311.893921 554.921387,308.124207 557.040405,303.922272 
	C560.729858,296.606171 563.399170,288.913940 565.569214,281.024078 
	C569.769287,265.753021 572.203125,250.121185 575.203918,234.603287 
	C581.562744,201.719711 587.204956,168.745270 585.576538,135.055801 
	C584.116821,104.856949 573.555908,78.389236 552.890503,55.974449 
	C527.811157,28.772074 496.314758,15.316910 460.024536,13.214375 
	C422.429962,11.036269 388.037872,20.469055 358.208099,45.712612 
M606.579224,677.062317 
	C608.510742,673.638000 610.203674,670.266785 613.079712,667.234192 
	C621.910156,657.922852 629.255188,647.428955 636.410645,636.702393 
	C642.085938,628.194885 646.503845,619.036499 652.110535,610.529724 
	C658.600342,600.682983 663.574158,589.949524 667.797607,578.922119 
	C669.098694,575.525024 671.607361,572.423462 671.192383,568.311340 
	C668.207947,568.429993 666.080811,569.867920 663.924866,571.019348 
	C642.769897,582.317749 621.581604,593.557068 600.549194,605.080383 
	C556.546692,629.188538 515.914612,658.146423 477.986572,690.937500 
	C471.939758,696.165344 472.078217,696.225891 477.448090,701.879456 
	C480.187103,704.763123 482.961792,707.711731 483.612946,712.004578 
	C481.140778,712.443237 480.399475,710.064453 478.676025,710.266296 
	C477.716217,714.364563 475.750305,711.544434 474.642578,710.720581 
	C466.201965,704.443420 457.303223,698.926453 448.147919,693.753113 
	C443.429230,691.086853 439.177582,690.295105 434.079803,692.835144 
	C428.281891,695.723999 422.056702,697.740601 416.130280,700.389282 
	C399.666931,707.747131 383.041199,714.626465 365.016357,718.763916 
	C367.308868,724.495300 372.414612,723.606445 376.727325,724.017822 
	C382.519501,724.570374 388.334717,724.766846 393.771881,727.204895 
	C410.652130,734.773987 427.621338,742.098450 445.891266,745.775330 
	C447.159546,746.030579 448.609344,746.175842 448.788483,747.939270 
	C445.789398,750.060669 445.757721,750.022644 441.567291,750.268555 
	C422.232330,751.402954 403.327423,749.483948 385.037140,742.698547 
	C382.920441,741.913330 380.521210,740.184082 377.112213,743.074951 
	C394.410217,759.148315 410.279938,776.394226 430.747437,789.605530 
	C426.075592,791.763611 422.082001,790.417114 418.363037,789.934448 
	C390.041779,786.258057 364.644684,774.861084 340.949219,759.465332 
	C315.417877,742.876770 294.367981,721.351013 274.744598,698.298401 
	C269.546844,692.192383 264.833313,685.594849 257.482361,679.480957 
	C259.621094,684.289551 262.297821,686.989441 264.358002,690.102356 
	C273.950989,704.597046 286.577637,716.511414 297.986206,729.402344 
	C310.058960,743.043701 323.911591,755.096497 336.526215,768.283875 
	C338.813538,770.674988 341.523834,772.385132 343.809814,774.710815 
	C350.555084,781.573364 357.252350,788.672180 364.933929,794.378906 
	C375.243408,802.037903 384.826019,810.059021 391.128204,821.464172 
	C399.224487,836.116150 414.891418,841.238098 431.091949,837.994019 
	C442.822388,835.645081 452.169952,829.467590 459.008118,819.373718 
	C463.378876,812.921936 469.852753,808.100647 474.911163,800.445068 
	C469.581909,802.394165 465.956238,805.521912 461.200134,805.691040 
	C461.349396,803.445679 462.875763,802.457886 463.682831,801.053284 
	C465.744812,797.464722 469.791107,796.733398 472.758698,794.465515 
	C478.947510,789.736084 484.979279,784.754150 491.474792,780.483154 
	C503.646027,772.480469 516.154358,765.001465 528.037537,756.542542 
	C536.674133,750.394592 544.334778,743.114075 552.497986,736.457275 
	C558.425293,731.623840 563.439941,726.614685 568.131470,720.575073 
	C571.430725,716.327698 577.180969,713.708496 580.757996,709.007874 
	C584.928955,703.526794 589.513428,698.362549 593.790588,692.959595 
	C597.917969,687.745850 603.045654,683.329590 606.579224,677.062317 
M184.699066,496.467560 
	C185.668289,498.158203 185.097229,500.078064 186.195663,502.009674 
	C190.561371,509.686707 197.720078,514.859436 203.604614,520.926392 
	C212.794479,530.401184 218.848221,542.294128 228.866440,551.042908 
	C233.853134,555.397705 236.756104,561.923218 241.817459,566.399902 
	C243.665878,568.034790 245.383484,569.619629 247.015686,571.528259 
	C252.081253,577.451782 257.011627,583.852478 263.237976,588.344360 
	C275.237152,597.001038 288.246857,604.182495 302.179840,609.462463 
	C303.234528,609.862122 304.398407,610.438843 305.413696,608.959106 
	C305.173096,606.021851 302.903625,604.093872 301.216553,601.943420 
	C280.109894,575.038879 260.826050,546.866028 242.802856,517.829956 
	C232.700882,501.555206 222.438156,485.355560 213.802017,468.226685 
	C209.748810,460.187592 207.442490,451.668518 207.900848,441.243561 
	C211.818481,446.190765 212.259735,451.705872 216.647186,456.177155 
	C216.939087,449.419067 216.312012,443.941284 214.264694,438.615814 
	C213.412079,436.397980 212.728134,434.335999 215.168961,432.362671 
	C222.146835,426.721375 229.349136,421.404419 235.602295,414.817596 
	C240.732803,409.413300 245.105286,403.317474 250.883530,398.469757 
	C255.514862,394.584259 259.613068,390.063263 264.972534,384.822296 
	C251.606094,386.242950 240.146606,389.047363 228.217697,393.783691 
	C234.002823,385.001892 255.582230,370.384827 267.022858,367.711823 
	C273.286041,366.248535 276.284302,362.306610 279.053314,357.057251 
	C283.689026,348.269135 288.571533,339.529388 295.512146,332.256287 
	C299.561249,328.013275 299.433197,325.503815 294.671997,321.824951 
	C292.449677,320.107788 289.598724,319.003845 288.385803,315.631805 
	C296.806274,319.816833 305.119171,326.771912 313.846497,315.830444 
	C311.262238,315.151245 308.750702,315.350952 306.623444,311.889313 
	C310.988739,314.102875 313.477600,313.165131 314.747192,309.718658 
	C316.148895,305.913544 314.247314,303.274109 311.373108,301.168121 
	C309.418762,299.736145 307.133118,299.386597 304.710876,299.656738 
	C299.086792,300.283936 293.464508,300.977356 287.822693,301.382263 
	C280.883728,301.880310 275.862122,304.842438 273.038116,311.422241 
	C271.003296,316.163239 268.602936,320.746948 266.378754,325.407135 
	C262.692139,333.131439 258.359283,340.416321 251.793091,346.088135 
	C246.941147,350.279175 241.444885,353.305817 235.006500,354.774109 
	C239.691208,349.110199 245.759369,344.649078 248.596298,336.523987 
	C238.285355,337.057373 231.465958,332.225739 224.547791,325.159943 
	C229.615616,324.407288 232.689911,328.148132 236.632065,327.081329 
	C236.656525,323.932861 234.348877,322.475098 232.818283,320.632507 
	C217.570389,302.276459 203.152130,283.374329 192.722046,261.727112 
	C191.104797,258.370605 191.371292,256.323914 194.850281,254.498184 
	C198.545822,252.558807 201.901733,250.014542 205.877838,245.881012 
	C198.299225,244.998474 192.141022,242.300507 186.402054,246.954697 
	C179.667770,252.416061 172.796158,257.676117 165.652588,262.586090 
	C162.485199,264.763153 162.301605,267.325195 163.878967,270.803894 
	C165.295837,273.928619 168.161453,275.796844 169.559082,278.905426 
	C172.721603,285.939362 176.785400,292.399139 183.397095,296.807709 
	C186.440262,298.836853 186.455231,300.826660 183.623962,303.082428 
	C181.250351,304.973602 179.510925,307.434692 177.969528,310.023254 
	C177.213150,311.293457 176.143127,312.649231 177.275742,314.140930 
	C178.265091,315.443970 179.842285,315.857452 181.341736,315.316406 
	C186.042236,313.620331 187.440369,316.636475 188.076859,320.171082 
	C189.200333,326.410370 189.874619,332.682098 188.231186,338.996704 
	C183.619812,356.715057 176.643768,373.713593 172.302841,391.512573 
	C171.985428,392.814087 171.559311,394.126068 169.840637,394.186066 
	C168.238510,393.481598 168.358337,392.079773 168.515518,390.768890 
	C169.386536,383.503937 170.485687,376.261719 171.169250,368.980042 
	C172.144241,358.594025 175.035751,348.314453 172.747528,337.726349 
	C171.237976,330.741333 168.121643,324.174042 167.648956,316.908203 
	C167.471848,314.185883 165.365005,314.608246 163.484528,315.373566 
	C161.075134,316.354156 159.051346,318.330780 155.710098,318.303894 
	C155.731308,310.264587 152.713867,302.847198 151.561432,295.039368 
	C150.214767,285.915588 147.543091,284.441193 139.391006,287.795593 
	C127.066017,292.867004 126.615036,293.567261 132.316193,306.035736 
	C135.691544,313.417664 138.517685,321.458008 146.948288,325.124084 
	C145.339203,330.031891 139.867554,332.447357 139.307404,337.811676 
	C146.345840,338.211700 148.250992,339.850922 150.163177,346.947571 
	C150.377960,347.744690 150.672043,348.527649 151.002655,349.285187 
	C153.539825,355.098938 154.939163,360.979218 154.145660,367.495544 
	C152.557709,380.535919 151.557114,393.646729 150.126556,406.707916 
	C149.673340,410.845795 149.783493,415.201813 147.818939,418.968872 
	C145.176804,418.786346 144.973206,417.176636 144.667618,415.739166 
	C143.629822,410.857330 142.498230,405.989166 141.665588,401.071198 
	C139.132614,386.110138 135.932617,371.335052 130.614792,357.067352 
	C129.275940,353.475189 127.481216,353.151459 124.732529,355.384583 
	C120.866447,358.525543 117.408318,361.988556 115.271011,367.303467 
	C120.441269,363.464935 122.500885,363.684052 124.681198,367.883881 
	C128.977127,376.158905 131.768524,385.093964 133.769165,394.039032 
	C136.583694,406.623199 138.756638,419.482666 138.137238,432.498657 
	C137.656097,442.609802 139.589493,452.671783 138.168671,462.805786 
	C136.983887,471.256317 140.564194,477.450867 148.092865,481.656403 
	C150.763794,483.148315 153.857880,484.551575 155.333359,487.594116 
	C159.041046,495.239532 165.099457,501.014404 170.880737,506.959015 
	C172.708557,508.838501 174.603622,511.100800 178.689346,512.203674 
	C173.597412,503.479706 166.162766,497.992310 161.744400,490.278381 
	C157.604843,483.051208 157.360962,469.167145 161.173569,464.792908 
	C165.422470,466.735382 169.834213,468.720612 168.707291,474.597595 
	C167.690292,479.901367 171.503098,483.284241 173.284119,487.467896 
	C175.349777,492.320068 181.601639,491.995117 184.699066,496.467560 
M598.331604,416.767273 
	C595.059204,424.953522 591.639526,433.085144 588.574341,441.348297 
	C586.953674,445.717407 588.322632,447.159943 592.639404,445.887817 
	C616.260864,438.926788 639.761902,431.606628 662.624634,422.367310 
	C666.744385,420.702423 668.559937,418.007996 668.654724,413.677979 
	C668.819153,406.173157 668.937561,398.645264 667.499939,391.272644 
	C665.660706,381.840637 662.420837,372.911469 655.031311,366.233978 
	C647.057007,359.028198 642.216919,358.993591 634.087036,365.827393 
	C631.926941,367.643188 629.920105,369.653168 627.940308,371.669708 
	C615.282166,384.562622 606.702148,400.155090 598.331604,416.767273 
M500.886169,442.311279 
	C505.517761,441.374115 506.599121,436.525482 509.908203,434.124908 
	C520.385193,426.524353 530.747070,418.760406 541.343201,411.330109 
	C558.049438,399.615234 575.088806,388.366516 591.593323,376.378357 
	C596.380676,372.901031 601.682495,370.001831 605.871582,365.689636 
	C607.389282,364.127350 608.229004,362.449432 606.939819,360.333801 
	C605.804199,358.470154 604.118042,358.155762 602.167847,358.666351 
	C598.952026,359.508301 595.673950,360.178864 592.543762,361.270386 
	C574.638672,367.513947 558.461365,377.047607 542.708252,387.434448 
	C518.405090,403.458801 495.535187,421.105103 477.075409,443.912933 
	C475.162170,446.276764 473.581879,448.164642 476.331116,451.175873 
	C478.879150,453.966766 481.054413,453.971405 484.579437,452.879181 
	C490.903900,450.919647 494.710571,445.547302 500.886169,442.311279 
M392.496521,431.971252 
	C403.620819,440.826782 413.683350,450.929779 424.492218,460.371094 
	C426.150085,457.868103 424.874695,456.409454 424.333282,454.943024 
	C419.998749,443.203308 413.154236,433.058655 404.555725,424.034119 
	C383.006958,401.417572 357.592438,383.795837 331.229828,367.431091 
	C324.876343,363.487091 318.502625,359.494781 311.534302,356.652130 
	C307.483887,354.999817 302.811340,357.041534 300.276520,361.459503 
	C297.985931,365.451813 299.763336,368.218658 302.807495,370.955322 
	C305.835571,373.677551 309.638824,375.084656 312.797913,377.504089 
	C327.655365,388.882782 343.400940,398.958527 358.986908,409.279022 
	C370.032288,416.592926 380.400604,424.916321 392.496521,431.971252 
M311.648346,718.047913 
	C326.920227,729.399231 342.977600,739.493896 360.062714,749.510376 
	C359.767426,746.333679 358.225708,745.414368 357.111786,744.262573 
	C346.924835,733.729126 336.683105,723.248352 327.516846,711.785034 
	C325.140930,708.813721 323.333191,705.405579 320.010406,703.190186 
	C302.885620,691.772705 291.125458,675.822815 282.082581,657.676086 
	C280.741486,654.984802 279.064209,653.100952 276.375397,651.767578 
	C266.680023,646.959900 257.084290,641.965515 247.650238,636.643372 
	C243.092331,634.072205 238.853867,630.707642 233.470245,629.349731 
	C232.899353,632.193726 234.201569,634.194031 235.598007,635.980469 
	C241.404877,643.408875 247.299942,650.759399 252.967575,658.302124 
	C259.148407,666.527771 263.456360,676.537659 272.639740,682.377747 
	C273.007202,682.611389 273.225830,683.179138 273.377899,683.636353 
	C275.442261,689.844116 280.552338,694.545227 285.326447,697.198730 
	C291.108002,700.412231 294.537994,705.976318 300.241302,708.781738 
	C304.584625,710.918152 306.373260,716.155945 311.648346,718.047913 
M655.343445,247.911133 
	C619.038696,260.638947 590.649292,283.528473 569.112244,315.174927 
	C568.004028,316.803375 567.185852,318.697601 566.579834,320.579834 
	C565.988708,322.415710 566.601501,324.263947 568.869507,323.902222 
	C572.573486,323.311523 576.469299,323.293274 579.618591,320.537018 
	C582.981384,317.593964 586.744690,315.108429 590.105347,312.163269 
	C597.209106,305.937714 605.586975,300.520599 610.790588,292.949371 
	C616.269897,284.977081 621.908203,279.137756 631.525391,277.625519 
	C632.154785,277.526581 632.750671,277.115662 633.325928,276.786530 
	C647.807007,268.500549 662.233643,260.117096 676.808105,251.999039 
	C679.289795,250.616745 679.889526,248.912735 680.138367,246.292435 
	C671.808655,243.802917 663.930420,245.286224 655.343445,247.911133 
M442.376160,399.371796 
	C451.239166,402.385162 458.731873,400.888611 463.103119,394.699829 
	C466.659027,389.665436 470.408997,384.817993 474.374023,380.108887 
	C477.682129,376.179962 477.577484,371.764435 476.162628,366.961395 
	C470.880524,367.704285 469.855713,373.162567 466.044952,374.801331 
	C463.741119,373.547089 463.528961,371.357910 463.336365,369.506439 
	C462.666412,363.066711 462.419769,356.583679 461.786163,350.139313 
	C461.041321,342.563019 456.826294,337.897491 450.714539,337.514130 
	C444.644012,337.133331 439.192535,341.425964 438.507721,348.861664 
	C437.706635,357.559082 433.808014,366.131165 436.839172,375.087311 
	C436.956970,375.435303 436.534332,375.966248 436.256348,376.691437 
	C430.506134,375.073853 429.621735,367.681396 423.620331,366.010162 
	C421.538788,371.390930 421.856750,376.081329 425.645782,380.147797 
	C429.179047,383.939850 432.181976,388.115356 435.097137,392.363983 
	C436.904266,394.997772 438.870850,397.423584 442.376160,399.371796 
M541.470337,777.201477 
	C542.917725,778.390259 543.442261,776.765686 544.122498,776.188782 
	C555.049377,766.923340 565.650085,757.274231 575.540649,746.924011 
	C624.306274,695.891968 663.885315,638.280151 697.179932,576.212830 
	C698.882385,573.039307 700.815918,569.855408 701.324463,565.059998 
	C699.913513,566.803467 699.134949,567.658264 698.475403,568.596680 
	C690.109314,580.500549 681.891663,592.498108 674.163147,604.837036 
	C668.892090,613.252686 662.735962,621.128174 657.688843,629.666809 
	C649.091187,644.212341 639.633118,658.183167 630.151794,672.132263 
	C617.870850,690.199951 604.502869,707.466614 590.694458,724.407166 
	C588.372864,727.255310 585.197083,728.924011 583.117065,732.050232 
	C576.427734,742.104004 567.693909,750.457825 559.364441,759.115173 
	C553.551025,765.157349 547.463257,770.935608 541.470337,777.201477 
M552.783752,356.258179 
	C552.036621,357.150787 551.341553,358.094116 550.531616,358.925537 
	C548.828064,360.674255 548.200378,362.683960 549.515381,364.805450 
	C551.079102,367.328278 552.954712,365.485718 554.760559,364.928314 
	C565.473267,361.621582 575.055664,355.674072 584.212097,349.756592 
	C594.678711,342.992432 605.731323,337.319519 616.207092,330.632782 
	C626.763977,323.894318 626.686951,324.207703 618.506042,315.030914 
	C614.765320,310.834808 611.818848,311.035889 607.474060,313.634338 
	C587.679016,325.473053 569.141052,338.883728 552.783752,356.258179 
M541.352600,423.881775 
	C531.711243,431.320038 522.337280,439.063019 514.260498,448.233032 
	C512.064697,450.725983 510.028320,453.370758 508.066132,456.053619 
	C506.974609,457.546051 507.086456,459.218994 508.395020,460.629608 
	C509.553711,461.878693 510.724365,461.428680 511.960632,460.614868 
	C512.627014,460.176208 513.458252,459.877594 514.251526,459.758514 
	C526.436829,457.929169 535.881348,450.621338 545.230469,443.571503 
	C553.134705,437.611145 560.431030,430.771332 567.529968,423.842834 
	C572.079529,419.402527 576.662109,414.813599 579.750000,409.081451 
	C580.398438,407.877747 581.014099,406.630005 580.062073,405.351501 
	C579.104614,404.065735 577.709290,404.286194 576.397095,404.619598 
	C575.107971,404.947052 573.827332,405.338257 572.583130,405.807892 
	C561.408875,410.025665 551.635132,416.683655 541.352600,423.881775 
M263.736664,270.734375 
	C270.510590,275.231201 277.239166,279.798492 284.076019,284.197540 
	C287.953674,286.692535 291.753174,289.928680 296.046143,291.007721 
	C301.908081,292.481201 308.285309,290.747070 315.486511,293.498108 
	C313.628052,291.116669 312.880768,290.011688 311.989441,289.038666 
	C294.233276,269.655243 272.963531,255.542038 248.188828,246.776505 
	C245.079636,245.676437 241.761337,244.962997 238.481628,244.606171 
	C235.135956,244.242142 230.366104,243.057175 229.343979,247.203842 
	C228.413834,250.977341 232.856339,252.624954 235.959213,254.029663 
	C245.655090,258.419220 254.188568,264.732605 263.736664,270.734375 
M686.308105,281.867279 
	C701.182251,273.242035 718.497070,269.993439 733.960632,261.521118 
	C732.827942,260.020386 732.516296,259.438171 732.054871,259.021820 
	C726.425110,253.942123 719.547363,254.945267 713.039856,255.717911 
	C693.578735,258.028564 675.836975,265.477234 658.846558,274.894592 
	C657.329285,275.735596 655.373474,276.296967 654.970886,278.713104 
	C657.614807,281.603363 661.893616,280.444031 664.893860,282.415009 
	C671.877014,287.002533 678.752747,285.854553 686.308105,281.867279 
M227.813934,280.035095 
	C239.086807,286.971649 250.510834,293.668884 261.351501,301.288971 
	C262.954987,302.416077 264.887695,304.268250 266.669586,302.451447 
	C270.401367,298.646454 274.923584,296.133820 280.896332,293.903046 
	C263.448242,281.799622 247.156311,270.625580 227.744476,265.137238 
	C223.897125,264.049500 220.032730,263.026581 215.971191,263.260132 
	C213.799759,263.385010 212.041962,264.165863 211.431442,266.441589 
	C210.828934,268.687500 211.914902,270.204987 213.666718,271.535309 
	C217.896744,274.747589 222.217194,277.785889 227.813934,280.035095 
M364.616852,428.983856 
	C363.069305,428.440704 361.497101,427.591339 359.816742,429.662506 
	C360.781036,434.668549 365.477600,437.228790 368.675934,440.311096 
	C378.787567,450.055878 388.964966,459.729095 398.688354,469.865662 
	C400.438904,471.690552 402.166687,473.414154 404.579834,471.512573 
	C406.966156,469.632080 405.134155,467.378632 404.106995,465.718872 
	C394.444458,450.105438 381.768036,437.643463 364.616852,428.983856 
M311.484467,769.040405 
	C292.700745,751.948547 275.225006,733.521423 257.251740,715.601807 
	C276.172485,742.500244 298.025452,766.415771 326.747589,783.341431 
	C321.839508,778.727661 316.931427,774.113953 311.484467,769.040405 
M340.785004,329.484802 
	C336.393646,321.013275 331.788727,312.686279 324.950958,305.038086 
	C322.422546,327.385284 325.356506,333.836761 342.262726,338.048645 
	C343.646210,335.133728 342.104156,332.665924 340.785004,329.484802 
M296.929840,177.648682 
	C299.567352,181.478165 301.400848,185.922379 305.848053,189.739594 
	C305.208130,182.016342 303.218567,175.749008 300.842682,169.566208 
	C299.377472,165.753189 297.136322,162.527435 293.909912,160.004974 
	C292.350403,158.785751 290.646454,158.169342 288.885895,159.447922 
	C286.871674,160.910706 287.732422,162.698959 288.698853,164.304871 
	C291.268646,168.575027 293.916321,172.798294 296.929840,177.648682 
M602.090088,178.628387 
	C604.892700,174.131577 607.753357,169.669418 610.468872,165.120636 
	C611.530212,163.342850 613.271851,161.167206 611.040588,159.351486 
	C608.567261,157.338730 606.172974,159.057693 604.503845,160.904022 
	C597.539734,168.607498 595.608093,178.160385 595.442749,188.496841 
	C597.535156,185.412796 599.627563,182.328751 602.090088,178.628387 
M123.129349,346.956024 
	C123.859062,342.634277 123.248611,338.833008 119.207390,336.236359 
	C116.330040,337.820190 114.518486,340.234589 112.451118,342.333771 
	C109.341240,345.491486 109.733498,348.821838 113.350388,351.364014 
	C117.902565,354.563538 119.682503,353.869141 123.129349,346.956024 
M629.695435,297.312561 
	C632.670898,294.899292 634.921265,291.966064 636.633789,287.817566 
	C632.333679,287.227905 628.467590,286.505585 624.924133,288.952576 
	C622.438110,290.669250 619.709839,293.123474 621.208923,296.200134 
	C622.670776,299.200439 626.052734,299.132935 629.695435,297.312561 
M110.194756,400.895477 
	C110.172760,394.779999 109.084572,388.873810 107.375710,382.778168 
	C100.881660,387.158112 99.389389,393.397797 104.454132,395.134705 
	C108.391808,396.485077 107.682686,399.431580 110.194756,400.895477 
M776.814819,445.762207 
	C774.010437,452.786560 767.627197,455.944305 760.546509,459.922791 
	C772.316589,457.601044 778.411621,451.564880 778.064514,443.312439 
	C777.672607,444.070282 777.372192,444.651184 776.814819,445.762207 
M128.618683,428.303772 
	C128.759674,428.375122 128.898438,428.496735 129.042297,428.503113 
	C129.174835,428.509003 129.424301,428.402618 129.432236,428.326019 
	C129.645111,426.267365 130.327316,424.047119 127.939735,422.371704 
	C126.618622,424.735107 127.544991,426.320892 128.618683,428.303772 
z"/>
<path fill="#000000" opacity="1.000000" stroke="none" 
	d="
M618.192993,505.373993 
	C618.528503,510.542572 614.361572,512.950562 611.633728,515.958740 
	C588.059753,541.955261 558.487427,559.363953 527.203857,574.240051 
	C508.570038,583.100891 489.684814,591.359924 470.014587,597.700134 
	C468.432709,598.210022 466.891296,598.895569 465.275665,599.238159 
	C463.128937,599.693420 460.298004,601.358826 459.107971,598.410339 
	C457.994995,595.652893 460.918823,594.327698 462.793701,593.218811 
	C478.253204,584.075317 493.948914,575.320740 509.241119,565.908997 
	C517.540039,560.801392 526.268066,557.270020 535.623535,554.824646 
	C542.428284,553.046082 548.352783,550.036804 554.016235,545.152527 
	C559.204163,540.678345 565.353210,536.726440 570.539917,532.172607 
	C575.327148,527.969482 579.818726,523.437683 585.476257,520.569458 
	C593.182373,516.662659 599.596436,510.736481 607.511169,507.166473 
	C610.951355,505.614746 614.371765,505.182007 618.192993,505.373993 
z"/>
<path fill="#000000" opacity="1.000000" stroke="none" 
	d="
M501.231995,553.044434 
	C501.313477,556.972900 499.423462,559.156433 496.144257,560.450562 
	C491.059326,562.457336 486.053833,564.671082 480.935577,566.585571 
	C478.005615,567.681641 474.529694,568.938354 475.675568,563.284485 
	C476.072021,561.328369 474.730743,560.754639 473.417511,559.936646 
	C471.499054,558.741638 471.430756,557.125916 473.469757,556.129639 
	C482.137909,551.894531 491.142853,548.570068 500.667480,546.830566 
	C501.386902,546.699158 502.222809,547.205750 503.399475,547.521851 
	C502.777740,549.454163 500.753357,550.691101 501.231995,553.044434 
z"/>
<path fill="#000000" opacity="1.000000" stroke="none" 
	d="
M769.826416,363.555908 
	C769.618652,364.469849 769.411926,365.055695 769.022400,366.159515 
	C766.594971,363.680542 766.572144,360.740570 766.010437,358.199036 
	C763.137817,345.200287 759.808044,332.368805 754.241821,320.204712 
	C753.171265,317.864990 751.541748,314.990814 755.487000,313.660400 
	C760.357178,312.018066 764.244873,313.512482 765.174255,317.268402 
	C767.138794,325.207062 767.097290,333.387939 767.865845,341.470062 
	C768.555237,348.719269 769.176270,355.974976 769.826416,363.555908 
z"/>
<path fill="#000000" opacity="1.000000" stroke="none" 
	d="
M654.414551,292.432281 
	C652.142944,296.626770 647.784668,298.370728 644.464966,302.167450 
	C644.303284,297.114044 647.873718,293.801544 654.414551,292.432281 
z"/>
</svg>