 <svg  version="1.0" xmlns="http://www.w3.org/2000/svg"  width="300.000000pt" height="305.000000pt" viewBox="0 0 300.000000 305.000000"  preserveAspectRatio="xMidYMid meet">  <g transform="translate(0.000000,305.000000) scale(0.100000,-0.100000)" fill="#ffffff" stroke="none"> <path d="M1419 3040 c-31 -5 -82 -18 -115 -29 -32 -11 -97 -29 -143 -41 -575 -145 -1017 -616 -1131 -1206 -48 -251 -18 -573 76 -805 220 -544 701 -897 1291 -949 191 -17 445 22 645 99 495 191 844 620 935 1151 22 129 22 366 -1 485 -92 487 -396 894 -829 1112 -86 43 -305 123 -338 123 -9 0 -56 13 -105 29 -100 32 -201 43 -285 31z m212 -46 c234 -70 347 -253 319 -519 -13 -128 -47 -309 -71 -381 -20 -64 -59 -115 -59 -80 0 10 5 27 11 39 9 17 3 14 -22 -10 -37 -35 -95 -63 -131 -63 -15 0 -3 10 37 29 33 15 70 39 82 52 47 52 128 312 99 322 -13 4 -53 -38 -62 -65 -3 -11 -8 -18 -10 -15 -2 2 2 21 9 43 8 21 17 57 21 79 l6 40 -14 -30 c-34 -76 -152 -161 -260 -189 -91 -24 -212 -3 -285 49 -26 18 -136 130 -148 150 -10 17 -11 15 -6 -15 3 -19 14 -60 24 -90 15 -43 15 -51 4 -35 -9 11 -22 28 -29 37 -8 9 -19 26 -26 37 -6 12 -16 21 -22 21 -21 0 6 -116 64 -272 19 -50 53 -85 111 -115 27 -13 47 -27 44 -30 -12 -11 -82 21 -120 56 l-40 36 17 -33 c10 -19 16 -36 14 -38 -11 -10 -48 41 -66 89 -21 56 -66 293 -77 407 -22 239 107 435 328 495 71 19 192 18 258 -1z m-575 -209 c-24 -37 -46 -131 -46 -199 0 -47 -3 -57 -12 -48 -21 21 -57 14 -64 -12 -11 -45 36 -168 93 -243 l24 -32 -47 -20 c-58 -26 -54 -26 -117 6 -47 24 -63 27 -160 27 l-108 1 -54 -43 c-37 -29 -55 -51 -55 -66 0 -17 -9 -24 -46 -35 -61 -18 -79 -46 -64 -102 l12 -42 -43 -37 -42 -36 11 -45 c10 -41 9 -47 -15 -82 l-26 -37 26 -58 c14 -31 28 -72 32 -91 4 -19 20 -61 36 -95 16 -34 29 -74 29 -89 0 -41 24 -80 70 -117 37 -30 40 -35 40 -83 0 -69 14 -113 49 -157 18 -23 37 -67 51 -117 12 -45 57 -154 101 -244 l79 -163 0 -86 c0 -122 -4 -124 -92 -65 -183 125 -385 369 -476 577 -156 355 -144 804 29 1149 148 297 407 544 705 674 94 42 101 42 80 10z m1029 -40 c383 -186 667 -545 757 -955 32 -150 32 -426 -1 -580 -57 -269 -188 -500 -394 -697 -99 -94 -232 -191 -244 -179 -5 4 -8 53 -8 109 l0 102 72 137 c102 198 203 521 203 650 0 45 22 74 78 102 77 39 80 46 91 193 7 81 7 143 1 163 -5 18 -7 52 -3 75 4 34 1 50 -14 72 -11 15 -23 44 -27 64 -4 22 -20 49 -45 73 -26 26 -41 50 -45 75 -9 56 -37 76 -108 78 -42 1 -65 7 -80 20 -33 30 -110 24 -190 -14 l-68 -32 -54 24 -55 24 39 58 c46 70 85 181 76 217 -7 28 -42 36 -64 14 -9 -9 -12 -1 -12 39 0 68 -16 150 -39 196 l-19 38 22 -6 c11 -3 71 -30 131 -60z m-1079 -271 c9 -24 15 -47 12 -50 -7 -7 -68 88 -62 98 10 16 34 -6 50 -48z m1009 -10 c-15 -25 -29 -43 -32 -41 -9 10 18 87 35 96 27 16 26 -5 -3 -55z m-1347 -249 c-23 -20 -26 -28 -19 -47 8 -20 74 -116 131 -190 l20 -26 -22 4 c-20 4 -19 3 5 -11 16 -9 35 -14 43 -11 17 6 11 -7 -15 -38 -15 -18 -15 -18 5 -8 28 15 44 35 79 101 l30 56 60 0 c58 0 60 -1 61 -27 1 -26 -24 -46 -49 -40 -4 1 -6 -1 -5 -5 1 -5 -14 -38 -35 -74 -31 -56 -44 -69 -80 -83 -23 -9 -55 -27 -72 -41 l-30 -24 38 10 c78 21 76 8 -14 -81 -83 -83 -85 -86 -79 -122 8 -45 6 -47 -14 -10 -11 19 -15 22 -16 10 -1 -42 172 -328 288 -478 28 -35 49 -66 47 -68 -2 -2 -25 8 -53 22 -53 27 -135 104 -242 226 -35 41 -87 100 -115 130 -28 30 -58 66 -67 80 l-17 25 0 -32 c-1 -21 10 -46 34 -78 25 -32 30 -43 16 -36 -11 6 -30 25 -43 41 -12 17 -35 45 -49 63 -23 28 -27 47 -37 157 -14 156 -46 257 -65 208 -4 -9 -6 -8 -6 3 -1 8 10 25 23 38 l23 22 16 -43 c9 -24 20 -60 24 -81 5 -21 13 -39 18 -40 13 -3 26 98 19 145 -7 47 -28 67 -43 41 -8 -14 -10 -15 -11 -3 0 9 7 26 16 38 15 22 15 25 -4 45 -11 12 -26 35 -32 52 -10 26 -9 32 10 47 36 29 55 23 68 -21 7 -21 12 -46 12 -55 0 -13 4 -15 18 -7 16 9 20 3 31 -50 8 -33 11 -82 8 -112 l-6 -52 15 34 c22 49 42 132 36 153 -2 10 -13 18 -23 18 -23 0 -24 9 -4 37 15 21 13 25 -20 68 -19 26 -35 54 -34 63 1 27 79 80 119 81 l35 0 -27 -24z m217 -10 c64 -33 165 -109 165 -124 0 -22 -92 10 -161 55 -42 28 -90 56 -107 63 -18 8 -32 20 -32 27 0 26 66 15 135 -21z m1389 26 c3 -5 0 -13 -7 -18 -25 -20 -167 -93 -181 -93 -7 0 -25 -15 -39 -34 -45 -59 -157 -130 -157 -100 0 15 74 105 112 136 61 49 90 67 155 94 60 24 108 31 117 15z m173 -47 c2 -6 -27 -22 -64 -36 -37 -14 -84 -32 -103 -40 -32 -13 -38 -13 -70 2 l-34 17 34 18 c69 36 135 55 184 52 27 -1 51 -7 53 -13z m-1617 -45 c30 -15 67 -36 82 -46 l27 -19 -34 -18 -33 -18 -44 30 c-23 16 -62 39 -85 50 -49 25 -61 41 -42 53 19 12 65 1 129 -32z m1687 -62 c45 -47 51 -59 58 -112 6 -45 10 -55 16 -40 4 11 9 18 10 15 6 -16 4 -282 -3 -286 -4 -3 -8 -16 -8 -28 0 -29 -11 -38 -75 -62 -87 -32 -382 -191 -372 -200 2 -3 53 13 112 36 59 22 110 40 113 40 10 0 -62 -59 -73 -60 -5 0 -39 -23 -75 -50 -159 -123 -252 -192 -287 -212 -21 -13 -54 -33 -73 -46 -56 -38 -229 -119 -305 -143 -38 -12 -100 -38 -138 -57 -63 -33 -70 -34 -107 -23 -44 13 -81 57 -84 100 l-2 28 36 -20 c26 -15 9 7 -65 83 -125 130 -114 117 -187 214 -34 44 -66 86 -71 91 -16 16 32 -64 91 -150 l55 -80 -48 50 c-52 55 -167 201 -185 235 -7 14 -11 48 -8 86 9 136 116 196 238 134 62 -32 163 -131 222 -219 41 -63 47 -76 34 -83 -9 -5 -20 -17 -26 -28 -16 -30 15 -19 92 33 84 57 176 92 408 157 285 79 395 117 515 174 113 55 174 94 127 81 -21 -6 -23 -5 -13 14 11 19 9 20 -19 15 -19 -4 -38 -1 -52 9 -26 17 -88 75 -88 82 0 3 14 5 31 5 37 0 30 14 -20 40 -21 10 -64 44 -97 74 -35 34 -67 56 -81 56 -29 0 -49 35 -33 56 9 10 26 12 69 8 51 -6 61 -12 118 -65 34 -33 66 -59 71 -59 6 0 19 -3 29 -7 17 -6 17 -5 -1 15 -17 19 -17 22 -3 22 9 0 31 9 49 21 25 16 28 20 11 16 -27 -6 -28 -5 -7 36 20 39 34 57 44 57 4 0 30 -24 57 -53z m-1377 -132 c9 -24 8 -26 -12 -19 -33 10 -47 34 -48 79 l0 40 25 -37 c14 -21 30 -49 35 -63z m929 51 l23 -24 -44 -28 c-23 -15 -59 -38 -78 -50 -56 -36 -150 -75 -150 -62 0 18 95 105 162 149 34 21 62 39 63 39 1 0 12 -11 24 -24z m-1223 -24 c-4 -3 -14 2 -24 12 -16 18 -16 18 6 6 13 -6 21 -14 18 -18z m-436 -66 c0 -27 -18 -46 -36 -39 -19 7 -18 32 2 54 20 22 34 16 34 -15z m1118 12 c5 -7 13 -35 16 -61 7 -47 8 -48 27 -31 18 16 19 16 19 -8 0 -13 -11 -40 -25 -59 -27 -36 -58 -50 -87 -40 -25 9 -68 71 -68 99 0 24 1 24 19 8 18 -16 19 -15 26 31 8 54 19 73 45 73 10 0 22 -6 28 -12z m-390 -111 c140 -87 282 -232 282 -288 0 -9 -98 66 -120 91 -8 10 -243 175 -277 195 -38 22 -39 27 -17 50 20 20 28 17 132 -48z m892 33 c-6 -11 -70 -60 -143 -109 -73 -49 -159 -109 -192 -132 -66 -47 -131 -69 -116 -40 16 29 145 147 209 190 78 52 199 111 230 111 20 0 21 -3 12 -20z m164 -20 c28 -34 39 -77 34 -135 l-3 -39 -105 -37 c-58 -20 -118 -39 -134 -43 -27 -7 -28 -6 -22 21 24 98 139 263 184 263 11 0 32 -14 46 -30z m-1825 -104 c1 -17 -1 -17 -19 4 -23 27 -24 32 -7 49 10 10 13 7 19 -11 3 -13 6 -32 7 -42z m1581 -15 c0 -10 -74 -82 -125 -123 -48 -39 -78 -55 -114 -63 l-34 -7 21 28 c62 88 252 211 252 165z m-1516 -86 c4 -26 3 -35 -3 -25 -5 8 -12 33 -16 55 -4 26 -3 35 3 25 5 -8 12 -33 16 -55z m812 -10 c40 -23 114 -106 114 -126 0 -23 -31 -3 -97 63 -93 93 -98 110 -17 63z m1339 -65 c-9 -10 -25 -20 -36 -23 -14 -4 -10 3 14 26 33 33 52 30 22 -3z m-240 -372 c-75 -182 -330 -531 -487 -668 l-63 -55 72 80 c109 121 215 263 356 479 70 108 130 196 132 196 2 0 -2 -15 -10 -32z m-103 -35 c-123 -266 -344 -510 -647 -717 -48 -32 -84 -60 -81 -63 2 -2 14 1 26 7 21 11 21 11 6 -18 -55 -106 -187 -121 -245 -27 -14 23 -44 56 -66 73 -134 103 -304 278 -376 387 l-40 60 42 -50 c81 -96 235 -240 292 -274 76 -44 161 -78 222 -87 l50 -7 -47 39 c-26 22 -80 70 -122 107 -48 44 -80 66 -88 61 -7 -4 -10 -4 -6 1 4 4 -2 16 -14 27 -22 18 -21 19 34 12 50 -6 65 -2 171 40 127 52 122 52 206 -3 36 -23 53 -23 41 -1 -5 10 -15 20 -22 22 -32 11 257 221 447 325 105 58 228 123 232 123 1 0 -6 -17 -15 -37z m-1528 -243 c73 -126 187 -269 298 -375 105 -101 105 -113 -1 -25 -70 58 -158 163 -233 280 -64 98 -122 200 -115 200 3 0 26 -36 51 -80z m247 -66 c17 -26 94 -110 171 -186 99 -99 128 -133 102 -119 -20 11 -42 17 -47 14 -6 -3 -7 -2 -4 4 3 5 -23 26 -58 47 -97 57 -267 231 -349 358 -17 25 -12 24 69 -21 69 -39 92 -58 116 -97z m829 -378 c0 -2 -8 -10 -17 -17 -16 -13 -17 -12 -4 4 13 16 21 21 21 13z"/> <path d="M2525 1981 c3 -10 12 -38 19 -62 13 -42 14 -42 15 -13 2 51 -10 94 -26 94 -9 0 -12 -6 -8 -19z"/> <path d="M2043 1252 c-51 -31 -147 -91 -213 -132 -149 -93 -171 -108 -100 -74 111 53 446 264 420 263 -8 0 -56 -25 -107 -57z"/> <path d="M1915 1262 c-27 -15 -52 -29 -55 -32 -7 -8 -110 -57 -137 -65 -13 -3 -23 -11 -23 -16 0 -5 -3 -8 -7 -7 -9 3 -103 -44 -136 -67 -62 -44 115 20 247 88 87 46 198 127 171 126 -5 0 -32 -13 -60 -27z"/> <path d="M1524 1165 c-12 -8 -23 -13 -25 -12 -3 1 -2 -1 1 -5 3 -4 23 -3 44 3 29 8 36 13 25 20 -19 12 -21 11 -45 -6z"/> <path d="M1470 1140 c0 -7 3 -10 7 -7 3 4 3 10 0 14 -4 3 -7 0 -7 -7z"/> <path d="M1280 600 c-32 -5 -33 -7 -13 -14 13 -4 28 -4 34 0 7 4 9 3 6 -3 -9 -14 31 -24 112 -29 75 -4 70 6 -14 30 -80 23 -84 23 -125 16z"/> </g> </svg> 