 <svg  version="1.0" xmlns="http://www.w3.org/2000/svg"  width="300.000000pt" height="317.000000pt" viewBox="0 0 300.000000 317.000000"  preserveAspectRatio="xMidYMid meet">  <g transform="translate(0.000000,317.000000) scale(0.100000,-0.100000)" fill="#ffffff" stroke="none"> <path d="M1365 3039 c-616 -48 -1148 -503 -1309 -1120 -40 -150 -49 -243 -43 -432 4 -151 9 -187 36 -295 38 -145 76 -242 141 -359 196 -356 545 -622 942 -718 590 -143 1221 94 1557 585 357 521 348 1201 -22 1727 -86 123 -252 286 -366 362 -291 193 -604 277 -936 250z m330 -93 c22 -2 102 -24 179 -50 236 -78 393 -173 562 -341 165 -164 283 -351 354 -565 97 -287 91 -636 -15 -930 -61 -169 -171 -344 -296 -473 -49 -51 -60 -58 -73 -47 -12 9 -54 11 -162 9 -135 -4 -146 -3 -156 15 -9 16 -7 23 12 38 12 10 26 15 31 12 15 -9 199 -14 199 -6 0 4 -20 27 -43 50 l-44 43 -314 -2 c-278 -1 -315 1 -324 15 -7 11 -7 21 0 32 9 14 44 16 304 15 161 -1 291 2 290 6 -2 4 -15 27 -29 50 l-25 43 -440 0 c-460 0 -476 1 -454 42 9 17 32 18 439 18 237 0 430 2 430 4 0 1 -5 18 -11 35 l-11 32 -245 -2 c-215 -2 -247 0 -254 14 -11 18 -2 47 15 48 6 0 116 0 244 -1 l232 -1 0 31 0 31 -445 -1 c-244 -1 -449 1 -455 5 -13 8 -13 42 0 50 5 3 210 6 454 5 l444 -1 4 36 4 36 -239 -2 c-202 -1 -241 1 -254 14 -11 11 -12 20 -5 33 9 16 28 18 260 15 l250 -3 21 47 c12 26 21 49 21 52 0 2 -186 3 -412 2 -379 -1 -413 0 -416 15 -9 46 -5 46 442 46 l422 0 27 53 c15 30 27 57 27 61 0 5 -53 6 -117 4 l-118 -3 -3 24 c-5 33 22 53 55 40 13 -5 64 -9 113 -9 78 0 91 2 100 19 28 54 50 52 -470 51 -264 -1 -484 1 -490 5 -13 8 -13 42 0 50 5 3 230 5 499 5 269 0 492 3 494 7 3 5 8 30 12 56 l7 48 -372 -1 c-225 -1 -376 2 -382 8 -5 5 -8 20 -6 32 l3 23 378 -2 377 -2 0 36 0 37 -247 -3 -248 -3 -3 23 c-2 13 1 28 6 33 6 6 104 9 249 9 l240 -2 -5 31 -4 31 -466 -1 c-281 -1 -469 3 -474 8 -6 6 -8 18 -6 28 3 18 24 19 466 22 254 1 462 5 462 8 0 3 -7 19 -16 35 l-15 31 -233 -3 c-127 -2 -237 1 -244 5 -14 8 -15 25 -3 45 7 10 53 13 230 12 l222 -2 -16 31 -16 30 -576 0 c-595 -1 -592 -1 -593 37 0 6 5 15 10 18 6 4 258 6 560 5 303 0 550 3 550 8 0 4 -13 21 -29 36 l-29 28 -288 -2 c-159 -1 -295 -1 -301 -1 -16 1 -17 47 -2 56 5 4 128 6 272 6 l262 -1 -35 30 -34 30 -171 2 c-93 1 -190 1 -214 -1 -71 -4 -93 5 -89 37 l3 27 180 -3 c112 -2 176 0 170 6 -18 16 -118 52 -190 67 -107 22 -299 18 -390 -8 -135 -40 -210 -72 -247 -105 -10 -8 -18 -12 -18 -8 0 12 -113 -79 -155 -125 -49 -53 -135 -181 -135 -201 0 -8 -4 -18 -9 -23 -5 -6 -17 -35 -27 -65 -15 -44 -19 -85 -19 -200 0 -130 2 -150 23 -192 12 -26 22 -58 22 -72 0 -15 -36 -79 -89 -158 -97 -144 -108 -169 -92 -211 12 -31 65 -67 99 -67 13 0 37 -13 53 -29 28 -28 29 -33 23 -85 -6 -52 -5 -56 17 -66 21 -10 24 -17 21 -50 -3 -25 2 -47 12 -62 11 -16 16 -45 16 -104 0 -89 16 -126 73 -168 26 -19 42 -21 171 -21 164 0 183 -7 218 -80 27 -54 25 -54 294 -48 224 6 232 4 220 -40 -5 -22 -7 -22 -235 -22 -126 0 -232 -2 -235 -5 -3 -3 0 -35 6 -72 13 -76 3 -140 -37 -227 -25 -53 -25 -53 -63 -46 -117 21 -324 112 -455 199 -327 218 -530 530 -598 921 -36 206 -16 477 51 675 132 394 474 750 848 884 102 36 223 66 311 76 70 8 272 6 366 -4z m-401 -783 c8 -21 -11 -53 -32 -53 -39 0 -57 50 -26 68 21 12 51 4 58 -15z m-44 -718 c20 -24 3 -55 -30 -55 -20 0 -31 6 -35 20 -8 25 10 50 35 50 10 0 23 -7 30 -15z m-140 -295 c13 -25 -10 -53 -41 -48 -30 4 -39 46 -14 64 20 15 42 8 55 -16z m58 -232 c17 -17 15 -43 -4 -59 -31 -26 -70 25 -44 56 15 18 32 19 48 3z"/> </g> </svg> 