 <svg  version="1.0" xmlns="http://www.w3.org/2000/svg"  width="300.000000pt" height="299.000000pt" viewBox="0 0 300.000000 299.000000"  preserveAspectRatio="xMidYMid meet">  <g transform="translate(0.000000,299.000000) scale(0.100000,-0.100000)" fill="#ffffff" stroke="none"> <path d="M1315 2906 c-488 -81 -894 -381 -1100 -811 -90 -189 -125 -339 -132 -571 -6 -195 7 -302 58 -468 69 -225 180 -408 354 -582 204 -205 450 -337 747 -401 120 -26 448 -25 568 1 433 94 791 360 993 736 56 104 120 292 143 420 24 130 24 374 1 495 -114 590 -532 1025 -1117 1161 -131 31 -389 41 -515 20z m417 -191 c254 -44 493 -169 678 -355 244 -244 370 -545 370 -880 0 -334 -122 -631 -355 -866 -149 -150 -326 -259 -525 -322 -134 -42 -225 -56 -375 -55 -320 0 -609 110 -855 325 -266 232 -426 615 -407 973 13 235 75 423 205 621 193 293 472 481 820 554 110 23 326 26 444 5z"/> <path d="M1415 1886 c-67 -31 -110 -81 -202 -237 l-77 -131 -68 7 c-49 4 -80 14 -105 31 -46 31 -67 25 -118 -32 -38 -42 -43 -44 -94 -44 -42 0 -59 5 -83 25 -53 44 -116 26 -138 -40 -7 -22 -28 -46 -60 -69 -57 -41 -76 -68 -95 -130 -10 -34 -11 -47 -2 -54 7 -5 102 -12 212 -16 110 -3 252 -11 315 -16 63 -6 174 -15 247 -19 91 -6 139 -14 154 -25 22 -15 22 -15 -20 -22 -35 -6 -40 -9 -26 -17 23 -13 782 -2 895 13 47 6 175 12 285 14 190 3 241 8 230 26 -3 4 -34 11 -70 15 l-65 7 32 26 c92 78 90 236 -5 319 -75 66 -168 68 -258 7 -28 -20 -54 -32 -58 -27 -4 4 -24 32 -45 60 -67 94 -201 193 -370 274 -176 84 -311 102 -411 55z m269 -21 c157 -51 335 -156 439 -259 69 -67 97 -117 97 -168 l-1 -33 -15 28 c-8 15 -16 27 -18 27 -2 0 -1 -28 1 -63 6 -76 -5 -92 -74 -101 -26 -4 -112 -27 -190 -51 -78 -24 -182 -49 -230 -56 -163 -22 -311 3 -388 65 -39 31 -26 44 17 18 35 -21 108 -45 108 -34 0 17 -37 42 -62 42 -19 0 -28 5 -28 16 0 26 66 8 136 -37 l61 -39 119 34 c158 46 346 114 363 131 24 23 3 65 -72 143 -121 125 -311 240 -426 258 -61 10 -134 -12 -181 -54 -24 -21 -85 -108 -144 -202 -112 -181 -101 -173 -197 -147 -31 8 -116 20 -190 27 l-134 12 -37 41 c-27 31 -32 43 -21 45 8 2 27 -7 41 -21 26 -25 31 -25 212 -29 102 -3 197 -10 211 -15 25 -11 27 -9 125 154 54 91 114 183 133 205 76 89 198 111 345 63z m-720 -334 c12 -13 38 -21 82 -26 44 -4 64 -11 64 -20 0 -22 -11 -23 -81 -11 -54 9 -72 17 -97 44 -29 31 -29 32 -8 32 13 0 31 -9 40 -19z m1508 9 c58 -17 98 -55 98 -96 0 -40 -2 -41 -43 -11 -46 32 -152 32 -197 -1 -36 -27 -38 -26 -46 14 -7 35 24 68 83 89 47 17 58 18 105 5z m-847 -209 l49 -51 -102 0 c-68 0 -102 4 -102 11 0 6 16 33 36 60 41 57 44 56 119 -20z m-865 -41 c47 -10 112 -28 145 -38 l60 -20 -255 -1 -255 -1 34 21 c52 31 123 58 156 58 17 0 68 -8 115 -19z m616 -117 c11 -6 14 -12 9 -12 -17 -1 -118 63 -123 77 -2 8 18 -1 45 -20 28 -18 59 -38 69 -45z"/> </g> </svg> 