<svg version="1.1" id="Layer_1" xmlns="http://www.w3.org/2000/svg" xmlns:xlink="http://www.w3.org/1999/xlink" x="0px" y="0px"
	 width="100%" viewBox="0 0 912 912" enable-background="new 0 0 912 912" xml:space="preserve">
<path fill="#000000" opacity="1.000000" stroke="none" 
	d="
M913.000000,513.531372 
	C911.019775,527.803406 909.111389,541.608032 906.349304,555.296814 
	C894.215332,615.433289 870.231934,670.473083 834.799866,720.424988 
	C812.941162,751.241272 787.524719,778.874695 758.208191,802.915771 
	C719.235596,834.875061 676.442993,860.195496 629.296936,877.949951 
	C594.626221,891.006470 558.927307,900.083191 522.029785,904.433960 
	C493.126434,907.842041 464.193329,908.302124 435.258270,906.108093 
	C383.511505,902.184387 334.089813,888.883362 286.614838,868.041016 
	C251.331436,852.550842 218.660675,832.770508 188.377289,808.991943 
	C159.112488,786.013184 133.771698,759.248108 111.231514,729.694397 
	C83.817841,693.750793 62.791714,654.403503 47.838360,611.814209 
	C37.607822,582.676147 30.715408,552.731812 26.587526,522.095520 
	C22.137371,489.067444 21.606243,455.921936 25.074177,422.928375 
	C31.997343,357.062042 51.060722,295.084930 85.800690,238.093246 
	C105.719841,205.415421 129.231537,175.875244 156.271759,148.993317 
	C179.656754,125.745201 205.862122,106.053215 233.788284,88.660835 
	C263.439880,70.193871 294.728149,55.070862 328.023041,44.310314 
	C354.485229,35.758022 381.348572,28.748735 408.945496,25.010202 
	C436.712616,21.248615 464.567169,19.934093 492.628265,21.495186 
	C530.250671,23.588200 566.856262,30.634531 602.815918,41.597656 
	C637.278259,52.104271 669.547913,67.423790 700.307373,85.994713 
	C733.678589,106.142410 764.380432,129.756683 791.445251,157.900665 
	C812.403137,179.694244 830.761536,203.494965 847.012207,229.044952 
	C874.385925,272.083160 893.159180,318.575134 904.590698,368.143341 
	C908.026611,383.042267 910.592102,398.115265 912.876709,413.626648 
	C913.000000,447.020905 913.000000,480.041779 913.000000,513.531372 
M776.498413,232.975403 
	C768.646545,223.255524 760.917297,213.420990 752.316589,204.345917 
	C708.329529,157.933029 656.449951,123.506516 595.999756,102.409439 
	C562.229980,90.623833 527.594360,82.768867 491.684540,81.083534 
	C462.631653,79.720016 433.774567,80.919769 405.116699,86.045227 
	C370.991180,92.148582 338.273468,102.678261 306.898376,117.382759 
	C268.441467,135.406296 233.391159,158.436066 202.708008,187.982666 
	C172.450607,217.119293 147.657104,250.394760 127.327278,287.028381 
	C104.099785,328.883484 89.824722,373.755371 84.498817,421.259491 
	C80.796593,454.281403 80.929848,487.393921 86.245956,520.350891 
	C92.673500,560.198303 103.383652,598.667297 121.909889,634.759521 
	C149.302597,688.124939 186.500763,733.182678 234.842621,768.871826 
	C262.859253,789.555542 292.966003,806.578186 325.247559,819.632263 
	C361.311066,834.215698 398.769287,842.782776 437.573883,846.171448 
	C472.350555,849.208374 506.841675,847.545288 541.010742,841.207642 
	C579.373352,834.092285 615.822449,821.155884 650.400024,802.835632 
	C697.725830,777.760925 738.804565,744.954163 772.252441,703.234070 
	C827.720215,634.048218 856.174683,554.928833 856.589478,465.999817 
	C856.771118,427.052399 850.572510,389.088379 838.970276,351.977386 
	C825.458130,308.757141 804.675964,269.319153 776.498413,232.975403 
z"/>
<path fill="#000000" opacity="1.000000" stroke="none" 
	d="
M395.835449,375.893005 
	C404.095917,362.712585 413.866364,351.531494 427.189056,343.775726 
	C449.445404,330.819366 473.196472,327.927094 498.116608,333.241669 
	C531.864929,340.438965 562.998901,354.240753 592.735291,371.375885 
	C616.908203,385.305206 639.847290,400.954895 659.792603,420.686035 
	C671.235168,432.005768 681.247925,444.429230 689.126587,458.450012 
	C691.500977,462.675385 693.429688,462.464203 696.789001,459.855255 
	C701.527405,456.175232 705.473022,451.575775 710.609558,448.366028 
	C733.758362,433.900726 757.657715,432.337891 780.815308,446.996338 
	C802.706360,460.853027 812.062988,481.888245 810.723450,507.922638 
	C809.918396,523.569824 804.829285,537.139404 794.387817,548.777649 
	C790.833069,552.739929 786.298279,555.582458 782.386047,559.248962 
	C784.120056,561.234070 786.240479,560.607483 788.123596,560.715454 
	C797.755249,561.267639 807.448364,561.158325 816.897217,563.557007 
	C819.455200,564.206421 822.841003,564.455872 822.799255,567.802979 
	C822.758850,571.041199 819.284973,571.434998 816.843933,572.175354 
	C810.096802,574.221497 803.052734,574.786926 796.096680,574.922058 
	C771.782654,575.394531 747.376038,576.942139 723.183105,574.100708 
	C708.200684,572.341125 694.124512,576.527649 679.640808,577.829895 
	C657.755493,579.797546 635.893982,582.065002 613.954468,583.298828 
	C552.532837,586.753174 491.044678,586.491089 429.563629,586.076172 
	C415.752197,585.982910 401.941223,584.954468 388.146057,584.098083 
	C385.595367,583.939758 381.252045,584.296936 381.352173,580.790771 
	C381.447845,577.441772 385.623352,577.971313 388.320618,577.690369 
	C394.058563,577.092651 399.810913,576.632690 405.750854,575.539429 
	C400.095459,572.275208 396.725189,566.115295 388.885193,565.890808 
	C350.090027,564.779724 311.499878,560.616577 272.833679,557.545166 
	C249.266525,555.673096 225.633926,554.616455 202.027359,553.251709 
	C176.240433,551.760864 150.412216,551.796875 124.599792,551.245850 
	C113.853516,551.016357 110.488693,546.608276 113.515007,536.206177 
	C115.465233,529.502869 117.809601,522.890320 120.383987,516.398315 
	C124.050911,507.151306 130.024094,499.733398 138.847534,494.785461 
	C141.312637,493.403107 143.589096,491.688202 145.985519,490.178864 
	C154.582153,484.764465 160.646790,477.661835 163.902817,467.678986 
	C168.727707,452.886078 183.202850,445.523773 197.215210,449.799896 
	C202.801971,451.504761 207.434753,454.867065 211.088287,459.248260 
	C214.322067,463.126160 218.046143,464.357452 222.905975,464.061096 
	C229.220062,463.675995 235.579834,463.515503 241.893539,463.815033 
	C246.904602,464.052795 250.555679,462.116455 253.700089,458.574615 
	C256.914276,454.954224 259.684265,451.012329 262.448517,447.041443 
	C272.890686,432.041046 289.021027,430.807678 301.257050,444.242035 
	C304.230377,447.506592 307.903809,448.057190 311.595551,448.371338 
	C322.239166,449.277008 332.726654,451.187927 343.193390,453.106964 
	C347.809753,453.953308 350.163574,452.617584 352.422516,448.760162 
	C365.723328,426.047546 379.228699,403.454712 392.677246,380.828674 
	C393.613434,379.253571 394.646881,377.736237 395.835449,375.893005 
M484.704620,542.368958 
	C476.704163,545.544067 469.454132,544.173218 462.741669,538.919983 
	C460.254089,536.973267 457.510071,535.357849 454.934113,533.519775 
	C448.541870,528.958679 441.849457,524.891174 434.722931,521.604065 
	C427.542023,518.291931 420.079834,518.998047 412.437195,519.819885 
	C413.007782,523.902405 415.056915,525.400696 418.269043,525.701599 
	C421.417297,525.996643 424.557404,526.379211 427.700531,526.728455 
	C433.449371,527.367371 441.873535,536.123962 442.084259,541.758362 
	C441.620361,541.842896 441.114990,542.080872 440.673279,541.994263 
	C427.697784,539.450073 414.896973,536.466187 404.419434,527.601074 
	C403.284424,526.640686 401.992615,525.800354 400.649841,525.166260 
	C398.662659,524.227966 396.228760,523.343018 394.836823,525.651306 
	C393.594971,527.710754 395.870270,528.856506 397.200745,529.984558 
	C406.834503,538.152771 417.618286,544.321228 429.545929,548.497559 
	C453.098877,556.744629 477.216522,558.211365 501.981812,556.055603 
	C527.488525,553.835327 552.384827,549.305176 576.875610,541.885132 
	C604.341003,533.563965 630.815491,521.515137 660.232483,520.349976 
	C668.862000,520.008118 674.318359,512.796204 674.895386,504.006500 
	C675.190491,499.512451 674.840454,495.034698 674.261841,490.554138 
	C673.095032,481.518036 671.165161,472.687347 667.851379,464.053955 
	C674.291199,469.267456 677.581848,476.719604 682.507446,484.059479 
	C683.185974,472.626434 682.888672,462.448669 676.575439,453.169617 
	C669.033142,442.084076 660.474548,431.928375 650.598999,422.894562 
	C615.682373,390.953857 575.141785,368.287537 531.208740,351.522766 
	C511.117432,343.855865 490.567596,337.592804 468.493256,339.221344 
	C445.726837,340.900940 426.501312,349.870697 412.063843,367.487823 
	C397.236664,385.580505 386.572540,406.488495 374.480530,426.411835 
	C364.196991,443.355560 354.055511,460.385559 343.857697,477.381287 
	C342.434967,479.752411 340.976288,481.016083 337.797424,479.677704 
	C324.739471,474.180054 310.802429,472.288818 296.867554,471.472778 
	C271.389740,469.980835 245.907730,471.713806 220.449646,472.889099 
	C215.478302,473.118622 211.697769,471.862427 208.635635,468.000458 
	C206.141083,464.854309 203.314117,461.971893 199.869965,459.881653 
	C196.512100,457.843842 192.956543,456.165924 188.315918,458.258118 
	C195.479141,465.865906 201.074768,474.181793 208.422699,480.997009 
	C210.377029,482.809662 212.709244,483.533051 215.261124,483.629333 
	C236.243469,484.421021 257.157532,486.035339 277.988159,488.703461 
	C296.344208,491.054626 314.607208,493.831787 331.631775,501.625366 
	C334.282867,502.838989 335.610199,501.968018 336.950256,499.905060 
	C340.942474,493.759247 345.067749,487.698639 348.994629,481.511810 
	C365.241333,455.914612 380.368561,429.627899 396.952271,404.230591 
	C412.429199,380.528198 434.072845,369.108612 462.212982,369.994965 
	C477.097137,370.463776 491.100616,374.798431 504.463043,381.099762 
	C536.977661,396.432648 565.925049,417.100861 592.583679,441.031586 
	C604.385864,451.626099 615.376099,463.048401 623.253723,477.029877 
	C629.658020,488.396454 627.312622,495.847015 615.211304,500.233337 
	C572.473145,515.724548 529.704285,531.155701 484.704620,542.368958 
M790.578857,469.126343 
	C789.166626,464.898163 786.545471,461.547699 783.195068,458.663635 
	C763.641113,441.831726 734.049744,440.977905 712.987244,456.671997 
	C703.573303,463.686554 701.864685,468.803192 705.238464,479.876740 
	C707.194519,486.297028 708.247131,486.635834 713.464478,482.524689 
	C734.922791,465.616089 764.796387,466.244781 785.633728,484.031952 
	C786.730957,484.968506 787.596008,486.379333 789.903931,486.032043 
	C792.585144,480.934998 792.286194,475.460815 790.578857,469.126343 
M200.466873,518.211670 
	C199.468094,518.222473 198.441956,518.086182 197.474579,518.265930 
	C179.382584,521.628784 162.800430,528.604797 147.751480,539.195923 
	C147.481049,539.386169 147.532242,540.033447 147.436478,540.453857 
	C195.502823,540.453857 243.408325,540.453857 291.313812,540.453857 
	C262.026581,529.790527 232.229355,521.807678 200.466873,518.211670 
M459.323608,512.787476 
	C458.240784,514.263062 457.010071,515.654785 456.113373,517.235962 
	C455.043182,519.123169 452.487549,520.678894 454.101166,523.370361 
	C455.497772,525.699768 457.907593,525.693909 460.296967,525.706787 
	C475.775513,525.790405 491.253784,525.943542 506.732391,525.981873 
	C508.589172,525.986511 510.765350,526.688782 512.851868,523.840881 
	C501.297302,511.987396 489.107635,500.738159 475.945709,489.636200 
	C470.188354,497.660431 464.969208,504.934540 459.323608,512.787476 
M286.912170,443.413544 
	C284.683746,443.346436 282.356140,442.660431 279.745056,444.655212 
	C286.082367,449.389313 290.738525,455.180237 294.938812,461.369202 
	C296.190887,463.214081 298.164459,463.493195 300.216614,463.653076 
	C311.012360,464.494202 321.640442,466.393738 332.163544,468.894257 
	C339.876038,470.726959 340.932556,470.064056 342.629669,461.758087 
	C331.999573,459.076294 321.152679,457.605927 310.293060,456.299438 
	C304.375488,455.587524 298.860168,454.656647 295.283600,449.002411 
	C293.585724,446.318207 290.705109,444.694763 286.912170,443.413544 
M419.974518,560.459106 
	C422.223572,561.274780 424.428711,562.336121 427.182556,561.450378 
	C413.960358,554.445435 401.558228,546.315796 390.410217,536.283630 
	C389.851440,537.050049 389.292633,537.816467 388.733856,538.582886 
	C397.009644,548.225342 407.547394,554.957031 419.974518,560.459106 
z"/>
</svg>