<?xml version="1.0" encoding="UTF-8"?>
<svg width="1200pt" height="1200pt" version="1.1" viewBox="0 0 1200 1200" xmlns="http://www.w3.org/2000/svg">
 <g fill="#fff">
  <path d="m183.36 631.68c0 44.008-35.672 79.68-79.68 79.68-44.004 0-79.68-35.672-79.68-79.68 0-44.004 35.676-79.68 79.68-79.68 44.008 0 79.68 35.676 79.68 79.68"/>
  <path d="m1171.9 596.04c-11.762-11.762-115.92 21.961-136.44 18.961-16.078-2.2812-138.96-19.922-204.36-29.641 7.0781 19.078 13.199 35.281 16.922 45.359 28.559 5.2812 82.559 18.602 98.762 45.602 21.961 1.0781 44.039 1.3203 63.84 0 0 0 14.641 22.199 33.719 22.199s74.879-39.602 121.8-66c-0.125 0.12109 17.516-24.719 5.7578-36.48z"/>
  <path d="m587.88 674.88 150.84-9.9609c-18.602-33.359-34.199-62.52-46.922-87-17.16 0.23828-33.961 0.48047-47.879 0.83984-16.68 33.363-36.238 69.121-56.039 96.121z"/>
  <path d="m833.04 648.96s-49.32-134.04-74.039-194.16c-24.719-60.121-49.441-95.398-99.121-95.398-49.801 0-190.44 197.4-190.44 197.4s-30.238 1.8008-74.039 1.8008c-20.52 0-44.16-0.35937-69-1.5586-3.3594-0.12109-6.7188-0.23828-10.078-0.23828-39.359 0-69.84 10.801-89.281 20.398-11.16 5.5195-20.879 13.68-28.199 23.398 3.2383 9.7188 4.9219 20.16 4.9219 30.961 0 18.121-4.9219 35.16-13.441 49.801 3.8398 16.078 12 39.121 27.961 46.441 25.441 11.641 142.44 48.359 169.32 55.441 26.762 7.0781 145.32 19.801 179.16 38.16 33.84 18.359 43.68 26.879 54.961 9.8398 11.281-16.922-27.84-52.922-48-55.078-26.762-2.8789-62.039-36.719-171.72-54.48-6.2383-0.96094-16.441-5.0391-28.199-10.559h-0.12109c-0.12109-0.12109-0.35938-0.12109-0.48047-0.23828-5.1602-2.3984-10.441-5.0391-15.84-7.8008h0.23828c-43.32-22.078-80.52-45-80.52-45l117.36 45.359c10.922 0.12109 21.84 0.12109 32.398 0.12109 53.879 0 99.359-1.4414 110.52-6.7188 48.84-22.922 128.4-216.24 128.4-216.24s30.84 67.078 94.801 181.68c4.9219 8.7617-3.8398 25.922 12.238 46.32 3.7188 4.6797 49.32 13.32 90.719 13.32 31.559 0 60.719-5.0391 66.84-20.641 14.406-35.652-97.316-52.332-97.316-52.332z"/>
 </g>
</svg>
