 <svg  version="1.0" xmlns="http://www.w3.org/2000/svg"  width="300.000000pt" height="322.000000pt" viewBox="0 0 300.000000 322.000000"  preserveAspectRatio="xMidYMid meet">  <g transform="translate(0.000000,322.000000) scale(0.100000,-0.100000)" fill="#ffffff" stroke="none"> <path d="M1355 3214 c-336 -52 -580 -161 -807 -361 -524 -464 -693 -1248 -410 -1913 200 -473 597 -806 1085 -912 146 -31 408 -31 554 0 487 106 874 428 1083 903 93 210 134 420 134 679 0 210 -15 315 -71 500 -77 258 -208 477 -402 671 -224 224 -470 358 -763 414 -81 16 -343 28 -403 19z m305 -219 c283 -42 520 -164 725 -369 380 -382 517 -950 353 -1465 -94 -294 -272 -541 -520 -718 l-45 -32 -36 37 c-71 73 -82 113 -85 323 -3 170 -2 190 16 226 25 49 47 127 63 223 9 60 13 70 20 52 11 -29 34 -38 64 -24 25 12 53 59 75 125 11 36 10 40 -11 64 -37 39 -252 139 -373 172 -163 46 -309 65 -447 58 -127 -6 -284 -35 -399 -73 -93 -31 -264 -115 -308 -152 l-33 -28 25 -69 c36 -101 93 -136 122 -76 12 24 13 23 19 -15 17 -107 38 -184 63 -234 26 -54 27 -59 26 -225 -1 -212 -13 -260 -83 -337 l-49 -53 -53 37 c-190 131 -338 304 -446 523 -95 193 -133 353 -140 597 -7 213 8 323 68 503 142 427 462 753 870 883 184 59 345 74 519 47z m-140 -1504 c0 -97 -4 -142 -12 -147 -6 -4 -33 -6 -60 -5 -36 1 -50 -2 -54 -14 -8 -21 -21 -19 -34 5 -9 16 -3 45 25 136 39 124 65 164 110 164 l25 0 0 -139z m-41 -298 c45 -55 42 -72 -13 -66 -30 4 -57 -1 -89 -15 l-47 -21 15 36 c18 42 31 61 60 85 29 25 40 22 74 -19z m154 -134 c20 -6 37 -13 37 -17 0 -4 -15 -16 -32 -27 -51 -30 -191 -34 -251 -7 -54 24 -59 36 -19 50 35 13 215 13 265 1z m-459 -293 c21 -14 46 -26 54 -26 9 0 37 22 63 49 67 70 157 93 200 50 22 -22 20 -55 -9 -118 -33 -72 -126 -92 -218 -46 -56 28 -161 119 -195 168 -20 29 -18 28 22 -10 24 -22 62 -53 83 -67z"/> <path d="M1305 2776 c-49 -13 -106 -31 -126 -40 -119 -50 -259 -164 -341 -273 -98 -133 -161 -323 -156 -469 l3 -82 64 39 c137 83 370 157 561 180 145 16 406 6 533 -21 172 -36 376 -116 468 -181 l28 -20 7 25 c16 64 -37 308 -89 411 -97 193 -274 344 -487 416 -86 30 -108 33 -235 36 -123 3 -151 0 -230 -21z"/> <path d="M1803 2053 c4 -3 10 -3 14 0 3 4 0 7 -7 7 -7 0 -10 -3 -7 -7z"/> <path d="M1951 2011 c101 -34 259 -104 259 -115 0 -2 -39 10 -87 26 -83 28 -286 68 -341 68 -16 0 14 -14 68 -33 84 -29 352 -149 346 -154 -1 -1 -37 9 -79 22 -84 27 -231 55 -281 55 -19 -1 3 -10 59 -24 147 -39 306 -106 365 -154 19 -16 5 -13 -62 14 -85 34 -255 78 -347 89 -31 4 -8 -6 69 -30 109 -35 277 -113 330 -155 16 -12 -10 -5 -74 21 -103 42 -244 82 -331 93 -47 6 -45 4 33 -23 165 -58 373 -176 422 -239 18 -22 23 -24 31 -12 6 8 8 35 5 60 -3 34 0 51 15 69 25 30 24 82 -1 113 -19 25 -19 26 0 43 29 26 27 86 -5 123 -49 59 -231 137 -388 167 -128 24 -130 17 -6 -24z m344 -421 c3 -5 4 -10 1 -10 -3 0 -8 5 -11 10 -3 6 -4 10 -1 10 3 0 8 -4 11 -10z"/> <path d="M1733 1993 c4 -3 10 -3 14 0 3 4 0 7 -7 7 -7 0 -10 -3 -7 -7z"/> <path d="M950 1934 c-153 -45 -290 -128 -290 -175 0 -26 6 -24 55 19 47 41 214 132 297 162 77 27 37 23 -62 -6z"/> <path d="M1773 1883 c4 -3 10 -3 14 0 3 4 0 7 -7 7 -7 0 -10 -3 -7 -7z"/> <path d="M971 1834 c-119 -35 -242 -96 -280 -139 -28 -32 -39 -55 -26 -55 2 0 28 18 57 40 68 51 170 105 278 146 101 39 88 43 -29 8z"/> <path d="M1768 1813 c6 -2 18 -2 25 0 6 3 1 5 -13 5 -14 0 -19 -2 -12 -5z"/> <path d="M1098 1783 c7 -3 16 -2 19 1 4 3 -2 6 -13 5 -11 0 -14 -3 -6 -6z"/> <path d="M944 1746 c-55 -18 -124 -46 -153 -61 -61 -34 -121 -96 -121 -127 0 -21 2 -20 33 9 62 58 187 131 327 189 81 34 30 28 -86 -10z"/> <path d="M817 1572 c-76 -42 -127 -86 -127 -110 0 -11 14 -3 43 25 23 23 71 60 106 82 80 51 68 53 -22 3z"/> </g> </svg> 